<svg width="25" height="25" viewBox="0 0 25 25" fill="none" xmlns="http://www.w3.org/2000/svg">
    <path d="M18.6246 8.27757C20.339 8.27757 21.7287 6.88781 21.7287 5.17345C21.7287 3.4591 20.339 2.06934 18.6246 2.06934C16.9103 2.06934 15.5205 3.4591 15.5205 5.17345C15.5205 6.88781 16.9103 8.27757 18.6246 8.27757Z" stroke="#3E64FF" stroke-width="2" stroke-linecap="round" stroke-linejoin="round"/>
    <path d="M6.20812 15.5207C7.92248 15.5207 9.31224 14.131 9.31224 12.4166C9.31224 10.7023 7.92248 9.3125 6.20812 9.3125C4.49376 9.3125 3.104 10.7023 3.104 12.4166C3.104 14.131 4.49376 15.5207 6.20812 15.5207Z" stroke="#3E64FF" stroke-width="2" stroke-linecap="round" stroke-linejoin="round"/>
    <path d="M18.6246 22.7634C20.339 22.7634 21.7287 21.3737 21.7287 19.6593C21.7287 17.9449 20.339 16.5552 18.6246 16.5552C16.9103 16.5552 15.5205 17.9449 15.5205 19.6593C15.5205 21.3737 16.9103 22.7634 18.6246 22.7634Z" stroke="#3E64FF" stroke-width="2" stroke-linecap="round" stroke-linejoin="round"/>
    <path d="M8.88818 13.979L15.9552 18.0971" stroke="#3E64FF" stroke-width="2" stroke-linecap="round" stroke-linejoin="round"/>
    <path d="M15.9449 6.73584L8.88818 10.854" stroke="#3E64FF" stroke-width="2" stroke-linecap="round" stroke-linejoin="round"/>
</svg>
