<svg width="25" height="22" viewBox="0 0 25 22" fill="none" xmlns="http://www.w3.org/2000/svg">
<path fill-rule="evenodd" clip-rule="evenodd" d="M24.2 19.5556C24.2 20.2302 23.6591 20.7778 22.99 20.7778C22.3209 20.7778 21.78 20.2302 21.78 19.5556C21.78 17.534 20.1513 15.8889 18.15 15.8889C17.3236 15.8889 16.5383 16.1749 15.9042 16.6821C16.5625 17.8994 16.94 19.2952 16.94 20.7778C16.94 21.4524 16.3991 22 15.73 22C15.0609 22 14.52 21.4524 14.52 20.7778C14.52 17.4081 11.806 14.6667 8.47 14.6667C5.13403 14.6667 2.42 17.4081 2.42 20.7778C2.42 21.4524 1.87913 22 1.21 22C0.54087 22 0 21.4524 0 20.7778C0 16.06 3.80061 12.2222 8.47 12.2222C10.8017 12.2222 12.9143 13.1792 14.4474 14.7229C15.4989 13.9016 16.7936 13.4444 18.15 13.4444C21.486 13.4444 24.2 16.1859 24.2 19.5556ZM18.15 7.33333C18.8179 7.33333 19.36 7.88211 19.36 8.55556C19.36 9.229 18.8179 9.77778 18.15 9.77778C17.4821 9.77778 16.94 9.229 16.94 8.55556C16.94 7.88211 17.4821 7.33333 18.15 7.33333ZM18.15 12.2222C20.1513 12.2222 21.78 10.5771 21.78 8.55556C21.78 6.534 20.1513 4.88889 18.15 4.88889C16.1487 4.88889 14.52 6.534 14.52 8.55556C14.52 10.5771 16.1487 12.2222 18.15 12.2222ZM8.47 2.44444C9.80463 2.44444 10.89 3.54078 10.89 4.88889C10.89 6.237 9.80463 7.33333 8.47 7.33333C7.13537 7.33333 6.05 6.237 6.05 4.88889C6.05 3.54078 7.13537 2.44444 8.47 2.44444ZM8.47 9.77778C11.1393 9.77778 13.31 7.58511 13.31 4.88889C13.31 2.19267 11.1393 0 8.47 0C5.80074 0 3.63 2.19267 3.63 4.88889C3.63 7.58511 5.80074 9.77778 8.47 9.77778Z" fill="#7ACEFA"/>
</svg>
