<svg width="24" height="22" viewBox="0 0 24 22" fill="none" xmlns="http://www.w3.org/2000/svg">
<path fill-rule="evenodd" clip-rule="evenodd" d="M11.6057 16.3068C11.7902 16.3068 11.9748 16.3509 12.1431 16.4379L16.5175 18.7243L15.6853 13.8996C15.6191 13.5213 15.7457 13.1359 16.0219 12.8678L19.5455 9.46024L14.6674 8.74994C14.2902 8.69539 13.9641 8.45978 13.7946 8.11856L11.6057 3.71516L9.41677 8.11856C9.24732 8.45978 8.92119 8.69539 8.54398 8.74994L3.66588 9.46024L7.18954 12.8678C7.46576 13.1359 7.59227 13.5213 7.52612 13.8996L6.69395 18.7243L11.0683 16.4379C11.2366 16.3509 11.4212 16.3068 11.6057 16.3068ZM18.0611 21.9996C17.8766 21.9996 17.692 21.9567 17.5237 21.8685L11.6057 18.7766L5.68769 21.8685C5.2954 22.0727 4.82186 22.0368 4.46787 21.7768C4.1104 21.5168 3.93283 21.0769 4.00711 20.6417L5.13523 14.1097L0.353464 9.48461C0.0342927 9.17705 -0.0794483 8.71512 0.0563446 8.29381C0.190977 7.87251 0.555413 7.5661 0.992968 7.50227L7.60968 6.54127L10.5658 0.591918C10.9581 -0.197306 12.2533 -0.197306 12.6456 0.591918L15.6017 6.54127L22.2184 7.50227C22.656 7.5661 23.0204 7.87251 23.1551 8.29381C23.2909 8.71512 23.1771 9.17705 22.858 9.48461L18.0762 14.1097L19.2043 20.6417C19.2786 21.0769 19.101 21.5168 18.7435 21.7768C18.5428 21.9253 18.3025 21.9996 18.0611 21.9996Z" fill="#F7C480"/>
</svg>
