<svg width="16" height="22" viewBox="0 0 16 22" fill="none" xmlns="http://www.w3.org/2000/svg">
<path fill-rule="evenodd" clip-rule="evenodd" d="M8.03629 16.1777C7.69419 15.9896 7.28059 15.9929 6.94729 16.192L2.82449 18.612L4.43929 12.331C5.40179 12.881 6.51389 13.2 7.69969 13.2C8.88549 13.2 9.99759 12.881 10.9612 12.331L12.5991 18.7022L8.03629 16.1777ZM7.69969 2.2C10.1263 2.2 12.0997 4.1734 12.0997 6.6C12.0997 9.0266 10.1263 11 7.69969 11C5.27309 11 3.29969 9.0266 3.29969 6.6C3.29969 4.1734 5.27309 2.2 7.69969 2.2ZM15.3656 20.6261L12.8257 10.7492C13.7453 9.614 14.2997 8.1719 14.2997 6.6C14.2997 2.9601 11.3396 0 7.69969 0C4.06089 0 1.09969 2.9601 1.09969 6.6C1.09969 8.1719 1.65409 9.614 2.57369 10.7492L0.034887 20.6261C-0.076213 21.0573 0.083287 21.5116 0.438587 21.7789C0.792787 22.0462 1.27459 22.0704 1.65629 21.8482L7.51929 18.4063L13.7673 21.8625C13.9334 21.9549 14.1171 22 14.2997 22C14.5384 22 14.776 21.923 14.974 21.7701C15.3205 21.5017 15.4756 21.0518 15.3656 20.6261Z" fill="#E8899E"/>
</svg>
