<?xml version="1.0" standalone="no"?>
<!DOCTYPE svg PUBLIC "-//W3C//DTD SVG 20010904//EN"
 "http://www.w3.org/TR/2001/REC-SVG-20010904/DTD/svg10.dtd">
<svg version="1.0" xmlns="http://www.w3.org/2000/svg"
 width="572.000000pt" height="572.000000pt" viewBox="0 0 572.000000 572.000000"
 preserveAspectRatio="xMidYMid meet">
<metadata>
Created by potrace 1.14, written by Peter Selinger 2001-2017
</metadata>
<g transform="translate(0.000000,572.000000) scale(0.100000,-0.100000)"
fill="#000000" stroke="none">
<path d="M103 5305 c-1 -139 2 -183 10 -178 9 5 9 3 1 -8 -16 -20 -16 -482 0
-472 8 5 8 3 0 -8 -16 -20 -17 -482 0 -472 8 5 8 3 0 -8 -16 -20 -16 -482 0
-472 8 5 8 3 0 -8 -16 -20 -17 -482 0 -472 8 5 8 3 0 -8 -16 -20 -16 -482 0
-472 8 5 8 3 0 -8 -16 -20 -17 -482 0 -472 8 5 8 3 0 -8 -16 -20 -16 -482 0
-472 8 5 8 3 0 -8 -16 -20 -17 -482 0 -472 8 5 8 3 0 -8 -16 -20 -16 -482 0
-472 8 5 8 3 0 -8 -8 -10 -11 -83 -10 -239 l1 -225 190 -1 c129 -1 195 2 204
10 11 8 13 8 8 -1 -8 -13 -6 -13 531 -14 160 0 296 2 301 5 9 6 6 1340 -3
1456 -2 30 -7 118 -10 195 -3 77 -8 174 -11 215 -2 41 -7 138 -10 215 -3 77
-8 172 -11 210 -4 63 -7 123 -19 395 -4 92 -13 286 -20 415 -2 44 -6 134 -9
200 -3 66 -9 169 -12 230 -3 60 -3 108 -1 105 3 -3 13 -27 22 -55 39 -113 289
-848 325 -955 21 -63 98 -288 170 -500 73 -212 153 -448 180 -525 26 -77 50
-147 53 -155 3 -8 19 -55 36 -105 29 -89 226 -668 363 -1065 38 -113 74 -219
79 -237 5 -18 14 -35 20 -38 5 -4 191 -7 412 -7 l402 -1 13 26 c10 21 189 543
332 967 12 36 24 72 27 80 63 177 393 1154 397 1176 3 10 12 36 20 57 9 20 13
37 10 37 -4 0 -2 6 4 13 5 6 47 120 92 252 45 132 108 319 142 415 33 96 61
182 63 190 9 34 145 424 150 428 3 3 3 -24 0 -59 -2 -35 -7 -129 -11 -209 -3
-80 -7 -172 -9 -205 -2 -33 -6 -121 -9 -195 -4 -74 -8 -169 -11 -210 -3 -41
-7 -130 -11 -198 -3 -67 -7 -160 -9 -205 -3 -45 -7 -140 -10 -212 -3 -71 -7
-164 -10 -205 -2 -41 -7 -129 -10 -195 -4 -66 -9 -156 -12 -200 -2 -44 -7
-410 -10 -813 -4 -608 -3 -732 9 -733 7 0 150 0 318 0 747 1 845 3 852 15 6 8
8 8 8 -1 0 -8 13 -13 29 -13 l30 0 -2 73 c0 40 2 78 7 85 4 6 4 12 -1 12 -4 0
-7 62 -5 137 1 76 2 143 3 148 0 6 -2 27 -3 48 -2 20 0 37 5 37 4 0 5 5 1 12
-10 15 -11 138 -2 138 4 0 3 12 -1 28 -5 15 -5 37 -1 48 5 11 4 27 0 35 -5 8
-4 19 2 26 6 7 7 13 2 13 -5 0 -8 55 -6 122 1 68 2 128 3 133 0 6 -2 27 -3 48
-2 20 0 37 5 37 4 0 5 5 1 12 -10 15 -11 138 -2 138 4 0 3 12 -1 28 -5 15 -5
37 -1 48 5 11 4 27 0 35 -5 8 -4 19 2 26 6 7 7 13 2 13 -5 0 -8 55 -6 122 1
68 2 128 3 133 0 6 -2 27 -3 48 -2 20 0 37 5 37 4 0 5 5 1 12 -10 15 -11 138
-2 138 4 0 3 12 -1 28 -5 15 -5 37 -1 48 5 11 4 27 0 35 -5 8 -4 19 2 26 6 7
7 13 2 13 -5 0 -8 55 -6 122 1 68 2 128 3 133 0 6 -2 27 -3 48 -2 20 0 37 5
37 4 0 5 5 1 12 -10 15 -11 138 -2 138 4 0 3 12 -1 28 -5 15 -5 37 -1 48 5 11
4 27 0 35 -5 8 -4 19 2 26 6 7 7 13 2 13 -5 0 -8 55 -6 122 1 68 2 128 3 133
0 6 -2 27 -3 48 -2 20 0 37 5 37 4 0 5 5 1 12 -10 15 -11 138 -2 138 4 0 3 12
-1 28 -5 15 -5 37 -1 48 5 11 4 27 0 35 -5 8 -4 19 2 26 6 7 7 13 2 13 -5 0
-8 55 -6 122 1 68 2 128 3 133 0 6 -2 27 -3 48 -2 20 0 37 5 37 4 0 5 5 1 12
-10 15 -11 138 -2 138 4 0 3 12 -1 28 -5 15 -5 37 -1 48 5 11 4 27 0 35 -5 8
-4 19 2 26 6 7 7 13 2 13 -5 0 -8 55 -6 122 1 68 2 128 3 133 0 6 -2 27 -3 48
-2 20 0 37 5 37 4 0 5 5 1 12 -10 15 -11 138 -2 138 4 0 3 12 -1 28 -5 15 -5
37 -1 48 5 11 4 27 0 35 -5 8 -4 19 2 26 6 7 7 13 2 13 -5 0 -8 55 -6 122 1
68 2 128 3 133 0 6 -2 27 -3 48 -2 20 1 37 6 37 4 0 4 6 -2 13 -5 6 -6 21 -2
32 4 11 4 29 0 40 -4 11 -6 28 -5 37 3 16 -46 17 -815 18 -737 0 -819 -2 -824
-16 -3 -9 -4 -20 0 -25 3 -5 1 -9 -4 -9 -16 0 -23 -61 -10 -79 11 -14 11 -14
-4 -3 -14 11 -17 10 -23 -7 -11 -35 -17 -66 -19 -88 0 -11 -4 -19 -7 -17 -12
7 -17 -34 -5 -46 8 -8 6 -9 -7 -4 -13 5 -18 2 -16 -7 2 -14 -6 -41 -20 -69 -4
-8 -7 -25 -6 -37 1 -13 -1 -21 -4 -18 -4 5 -37 -89 -44 -125 -1 -8 -6 -21 -10
-27 -5 -7 -5 -17 -2 -23 3 -5 2 -10 -3 -10 -17 0 -24 -51 -10 -68 12 -16 11
-16 -6 -2 -18 14 -19 13 -14 -8 4 -12 2 -20 -3 -16 -5 3 -10 -2 -10 -10 -2
-18 -3 -25 -12 -46 -8 -23 -29 -90 -31 -103 -1 -7 -4 -16 -7 -22 -4 -5 -10
-23 -14 -40 -5 -16 -10 -37 -12 -45 -2 -8 -5 -21 -5 -27 -1 -7 -6 -13 -11 -13
-5 0 -4 -7 3 -16 10 -11 10 -14 1 -12 -7 2 -21 -25 -35 -68 -21 -64 -21 -72
-7 -82 14 -9 14 -10 -3 -9 -20 2 -41 -45 -31 -71 3 -7 0 -10 -5 -7 -6 3 -10
-3 -10 -14 0 -11 -5 -23 -10 -26 -6 -4 -10 -12 -9 -18 1 -7 -3 -24 -8 -38 -6
-14 -13 -36 -15 -50 -1 -13 -5 -26 -8 -29 -11 -10 -50 -142 -45 -150 3 -5 0
-12 -6 -15 -5 -4 -8 -14 -5 -22 3 -8 1 -11 -4 -8 -6 3 -11 -1 -11 -9 -2 -19
-4 -26 -13 -47 -4 -9 -6 -20 -5 -25 1 -5 -6 -27 -16 -49 -10 -22 -18 -52 -19
-67 0 -14 -4 -24 -7 -22 -4 2 -12 -18 -20 -44 -17 -63 -16 -61 -19 -67 -1 -3
-4 -9 -5 -15 -1 -5 -4 -12 -5 -15 -1 -3 -3 -8 -5 -12 -1 -5 -5 -17 -9 -28 -5
-11 -14 -36 -21 -54 -13 -35 -15 -36 -80 -32 -13 1 -15 54 -15 416 l0 415
-370 0 c-289 0 -370 -3 -371 -12 -1 -7 -2 -191 -3 -410 0 -218 -4 -400 -9
-404 -10 -10 -87 -9 -96 2 -5 5 -14 30 -21 56 -7 26 -16 46 -19 43 -4 -2 -7 6
-8 18 -1 48 -3 58 -13 52 -5 -3 -7 0 -4 8 3 8 1 18 -4 21 -6 3 -8 15 -5 25 3
10 0 22 -6 25 -6 4 -11 16 -11 27 0 10 -4 19 -8 19 -4 0 -8 9 -9 21 -4 43 -35
119 -46 112 -8 -4 -7 -1 1 9 7 9 9 19 4 22 -5 3 -12 24 -16 46 -3 22 -10 40
-14 40 -5 0 -9 6 -9 14 0 27 -26 105 -33 101 -5 -3 -6 3 -3 14 3 10 0 22 -6
25 -5 4 -8 13 -4 21 3 8 0 15 -6 15 -6 0 -10 3 -10 8 4 21 -2 53 -8 49 -5 -3
-9 6 -9 19 -1 13 -5 32 -9 42 -5 9 -9 23 -11 30 -1 8 -6 21 -10 30 -4 9 -8 23
-10 30 -1 8 -6 21 -10 30 -4 9 -9 28 -11 42 -2 13 -7 27 -11 30 -4 3 -9 14
-10 25 -3 16 -50 166 -67 213 -2 7 -5 16 -6 20 -1 4 -10 32 -21 62 -11 30 -21
64 -23 74 -5 22 -24 84 -32 106 -4 8 -7 18 -8 23 -2 4 -4 9 -5 12 -1 3 -3 8
-4 13 -8 31 -61 188 -66 192 -3 3 -5 12 -5 20 1 8 -4 29 -11 45 -7 17 -24 69
-39 117 -15 48 -31 86 -35 83 -5 -3 -6 4 -3 15 3 11 0 26 -6 33 -6 8 -8 17 -5
20 4 4 -362 7 -813 7 l-819 0 -1 -185z m552 95 c3 -6 -1 -7 -9 -4 -18 7 -21
14 -7 14 6 0 13 -4 16 -10z m396 -157 c13 -16 12 -17 -3 -4 -17 13 -22 21 -14
21 2 0 10 -8 17 -17z m3840 0 c13 -16 12 -17 -3 -4 -10 7 -18 15 -18 17 0 8 8
3 21 -13z m-4080 -80 c13 -16 12 -17 -3 -4 -17 13 -22 21 -14 21 2 0 10 -8 17
-17z m3840 0 c13 -16 12 -17 -3 -4 -17 13 -22 21 -14 21 2 0 10 -8 17 -17z
m-4321 -84 c0 -5 -4 -9 -8 -9 -5 0 -9 7 -9 15 0 8 4 12 9 9 4 -3 8 -9 8 -15z
m313 6 c-3 -9 -8 -14 -10 -11 -3 3 -2 9 2 15 9 16 15 13 8 -4z m641 -11 c3 -8
2 -12 -4 -9 -6 3 -10 10 -10 16 0 14 7 11 14 -7z m3117 -1 c13 -16 12 -17 -3
-4 -17 13 -22 21 -14 21 2 0 10 -8 17 -17z m734 -393 c3 -6 -1 -7 -9 -4 -18 7
-21 14 -7 14 6 0 13 -4 16 -10z m-3205 -304 c0 -2 -8 -10 -17 -17 -16 -13 -17
-12 -4 4 13 16 21 21 21 13z m1755 -135 c3 -5 2 -12 -3 -15 -5 -3 -9 1 -9 9 0
17 3 19 12 6z m1450 -201 c3 -6 -1 -7 -9 -4 -18 7 -21 14 -7 14 6 0 13 -4 16
-10z m-3115 -394 c0 -2 -8 -10 -17 -17 -16 -13 -17 -12 -4 4 13 16 21 21 21
13z m3115 -246 c3 -6 -1 -7 -9 -4 -18 7 -21 14 -7 14 6 0 13 -4 16 -10z
m-4811 -250 c-6 -6 -10 -3 -10 10 0 13 4 16 10 10 7 -7 7 -13 0 -20z m4811
-390 c3 -6 -1 -7 -9 -4 -18 7 -21 14 -7 14 6 0 13 -4 16 -10z m-2615 -178 c3
-1 6 -13 6 -27 2 -24 -9 -30 -45 -26 -8 2 -10 -2 -5 -10 5 -9 3 -9 -7 -3 -21
13 -122 14 -138 0 -12 -8 -13 -8 -7 2 5 9 3 13 -5 11 -33 -4 -45 3 -55 29
l-11 29 131 -2 c72 -1 133 -2 136 -3z m1063 -12 c8 -9 8 -11 0 -6 -7 3 -14 -2
-18 -14 -6 -20 -16 -24 -44 -21 -8 2 -10 -2 -5 -10 5 -8 3 -9 -7 -3 -22 14
-89 14 -89 1 0 -8 -3 -8 -9 1 -9 14 -32 13 -43 -3 -5 -6 -8 -6 -8 2 0 7 -12
11 -26 10 -23 -2 -27 -7 -31 -40 -3 -28 0 -37 8 -31 9 5 9 3 3 -7 -5 -8 -9
-92 -9 -188 -1 -138 2 -174 13 -178 11 -5 11 -7 1 -14 -7 -4 -14 -28 -15 -54
-3 -34 0 -44 9 -39 9 6 9 4 1 -7 -6 -8 -10 -34 -10 -59 2 -50 -8 -99 -30 -147
-15 -32 -16 -33 -82 -34 -37 0 -100 0 -140 1 -48 1 -79 -3 -90 -12 -9 -8 -13
-8 -9 -1 10 17 -294 17 -305 0 -6 -9 -8 -9 -8 1 0 7 -15 12 -39 12 -30 0 -40
4 -44 20 -5 20 0 20 354 20 l359 0 0 404 c0 377 1 405 18 408 9 2 77 3 150 2
96 0 136 -4 145 -14z m1552 -450 c3 -6 -1 -7 -9 -4 -18 7 -21 14 -7 14 6 0 13
-4 16 -10z m0 -640 c3 -6 -1 -7 -9 -4 -18 7 -21 14 -7 14 6 0 13 -4 16 -10z
m-4805 -241 c0 -5 -4 -9 -8 -9 -5 0 -9 7 -9 15 0 8 4 12 9 9 4 -3 8 -9 8 -15z
m315 1 c3 -5 1 -10 -4 -10 -6 0 -11 5 -11 10 0 6 2 10 4 10 3 0 8 -4 11 -10z
m2243 -165 c-3 -3 -9 2 -12 12 -6 14 -5 15 5 6 7 -7 10 -15 7 -18z m2247 -235
c3 -6 -1 -7 -9 -4 -18 7 -21 14 -7 14 6 0 13 -4 16 -10z m160 -319 c-9 -8 -36
-10 -30 -2 2 4 11 8 20 8 8 0 13 -3 10 -6z m-4875 -75 c0 -2 -8 -10 -17 -17
-16 -13 -17 -12 -4 4 13 16 21 21 21 13z"/>
</g>
</svg>
