<svg width="55" height="10" viewBox="0 0 55 10" fill="none" xmlns="http://www.w3.org/2000/svg">
<path d="M4.65484 0L5.69992 3.21642H9.08186L6.34581 5.20427L7.39089 8.42069L4.65484 6.43283L1.91879 8.42069L2.96387 5.20427L0.227824 3.21642H3.60976L4.65484 0Z" fill="#F7C480"/>
<path d="M15.9039 0L16.9489 3.21642H20.3309L17.5948 5.20427L18.6399 8.42069L15.9039 6.43283L13.1678 8.42069L14.2129 5.20427L11.4768 3.21642H14.8588L15.9039 0Z" fill="#F7C480"/>
<path d="M27.1534 0L28.1985 3.21642H31.5804L28.8443 5.20427L29.8894 8.42069L27.1534 6.43283L24.4173 8.42069L25.4624 5.20427L22.7264 3.21642H26.1083L27.1534 0Z" fill="#F7C480"/>
<path d="M38.4024 0L39.4475 3.21642H42.8294L40.0934 5.20427L41.1384 8.42069L38.4024 6.43283L35.6664 8.42069L36.7114 5.20427L33.9754 3.21642H37.3573L38.4024 0Z" fill="#F7C480"/>
<path d="M50.0962 0L51.1413 3.21642H54.5233L51.7872 5.20427L52.8323 8.42069L50.0962 6.43283L47.3602 8.42069L48.4053 5.20427L45.6692 3.21642H49.0512L50.0962 0Z" fill="#F0F0F0"/>
<mask id="mask0" style="mask-type:alpha" maskUnits="userSpaceOnUse" x="45" y="0" width="6" height="9">
<rect x="45.4414" width="5.04902" height="8.83579" fill="#C4C4C4"/>
</mask>
<g mask="url(#mask0)">
<path d="M50.0962 0L51.1413 3.21642H54.5233L51.7872 5.20427L52.8323 8.42069L50.0962 6.43283L47.3602 8.42069L48.4053 5.20427L45.6692 3.21642H49.0512L50.0962 0Z" fill="#F7C480"/>
</g>
</svg>
