<svg width="46" height="43" viewBox="0 0 46 43" fill="none" xmlns="http://www.w3.org/2000/svg">
<path d="M19.0299 12.07C19.1708 12.0175 19.3222 11.9903 19.4753 11.9898C19.6284 11.9893 19.7801 12.0156 19.9214 12.0672C20.0626 12.1188 20.1906 12.1945 20.2977 12.29C20.4049 12.3855 20.489 12.4988 20.5451 12.6231C20.6013 12.7475 20.6283 12.8804 20.6246 13.014C20.6209 13.1477 20.5865 13.2793 20.5235 13.4011C20.4605 13.523 20.3702 13.6325 20.2579 13.7234C20.1456 13.8142 20.0135 13.8845 19.8696 13.93C19.1039 14.1934 18.4467 14.6519 17.9836 15.2458C17.5204 15.8397 17.2728 16.5415 17.2728 17.26V19C17.2728 19.2652 17.3935 19.5196 17.6083 19.7071C17.8231 19.8946 18.1145 20 18.4183 20H27.5818C27.8856 20 28.177 19.8946 28.3918 19.7071C28.6066 19.5196 28.7273 19.2652 28.7273 19V17.353C28.7274 16.6115 28.4694 15.8874 27.9874 15.2768C27.5055 14.6662 26.8224 14.1979 26.0286 13.934C25.8838 13.8901 25.7505 13.8213 25.6367 13.7316C25.5228 13.6419 25.4308 13.5332 25.366 13.4119C25.3012 13.2905 25.265 13.1591 25.2594 13.0253C25.2539 12.8916 25.2792 12.7582 25.3338 12.6331C25.3884 12.508 25.4712 12.3938 25.5773 12.2972C25.6835 12.2006 25.8107 12.1235 25.9516 12.0706C26.0924 12.0177 26.244 11.9901 26.3973 11.9893C26.5507 11.9885 26.7026 12.0146 26.8442 12.066C28.0716 12.4742 29.1281 13.1983 29.8735 14.1425C30.6189 15.0867 31.0181 16.2063 31.0182 17.353V19C31.0182 19.7956 30.6561 20.5587 30.0117 21.1213C29.3673 21.6839 28.4932 22 27.5818 22H18.4183C17.5069 22 16.6329 21.6839 15.9884 21.1213C15.344 20.5587 14.9819 19.7956 14.9819 19V17.26C14.9821 16.1402 15.3683 15.0463 16.0902 14.1206C16.8122 13.195 17.8365 12.4805 19.0299 12.07ZM23.0001 2C24.2152 2 25.3806 2.42143 26.2399 3.17157C27.0991 3.92172 27.5818 4.93913 27.5818 6V8C27.5818 9.06087 27.0991 10.0783 26.2399 10.8284C25.3806 11.5786 24.2152 12 23.0001 12C21.7849 12 20.6195 11.5786 19.7602 10.8284C18.901 10.0783 18.4183 9.06087 18.4183 8V6C18.4183 4.93913 18.901 3.92172 19.7602 3.17157C20.6195 2.42143 21.7849 2 23.0001 2ZM23.0001 4C22.3925 4 21.8098 4.21071 21.3801 4.58579C20.9505 4.96086 20.7092 5.46957 20.7092 6V8C20.7092 8.53043 20.9505 9.03914 21.3801 9.41421C21.8098 9.78929 22.3925 10 23.0001 10C23.6076 10 24.1903 9.78929 24.62 9.41421C25.0496 9.03914 25.2909 8.53043 25.2909 8V6C25.2909 5.46957 25.0496 4.96086 24.62 4.58579C24.1903 4.21071 23.6076 4 23.0001 4Z" fill="#181725"/>
<path d="M8.61711 38.076C8.66511 38.18 8.68911 38.284 8.68911 38.388C8.68911 38.572 8.61311 38.728 8.46111 38.856C8.31711 38.984 8.14911 39.048 7.95711 39.048C7.82911 39.048 7.70911 39.016 7.59711 38.952C7.48511 38.88 7.39711 38.772 7.33311 38.628L6.61311 37.02H2.38911L1.66911 38.628C1.60511 38.772 1.51711 38.88 1.40511 38.952C1.29311 39.016 1.16911 39.048 1.03311 39.048C0.849109 39.048 0.681109 38.984 0.529109 38.856C0.377109 38.728 0.301109 38.572 0.301109 38.388C0.301109 38.284 0.325109 38.18 0.373109 38.076L3.68511 30.96C3.75711 30.8 3.86511 30.68 4.00911 30.6C4.16111 30.512 4.32111 30.468 4.48911 30.468C4.65711 30.468 4.81311 30.512 4.95711 30.6C5.10911 30.68 5.22111 30.8 5.29311 30.96L8.61711 38.076ZM2.91711 35.82H6.08511L4.50111 32.256L2.91711 35.82ZM12.3274 39.096C11.7434 39.096 11.2274 38.972 10.7794 38.724C10.3394 38.476 9.99936 38.124 9.75936 37.668C9.51936 37.212 9.39936 36.68 9.39936 36.072C9.39936 35.464 9.52336 34.928 9.77136 34.464C10.0274 33.992 10.3834 33.628 10.8394 33.372C11.2954 33.116 11.8194 32.988 12.4114 32.988C12.7234 32.988 13.0354 33.032 13.3474 33.12C13.6674 33.208 13.9474 33.328 14.1874 33.48C14.4434 33.648 14.5714 33.86 14.5714 34.116C14.5714 34.292 14.5274 34.436 14.4394 34.548C14.3594 34.652 14.2514 34.704 14.1154 34.704C14.0274 34.704 13.9354 34.684 13.8394 34.644C13.7434 34.604 13.6474 34.556 13.5514 34.5C13.3754 34.396 13.2074 34.316 13.0474 34.26C12.8874 34.196 12.7034 34.164 12.4954 34.164C11.9994 34.164 11.6154 34.328 11.3434 34.656C11.0794 34.976 10.9474 35.44 10.9474 36.048C10.9474 36.648 11.0794 37.112 11.3434 37.44C11.6154 37.76 11.9994 37.92 12.4954 37.92C12.6954 37.92 12.8714 37.892 13.0234 37.836C13.1834 37.772 13.3594 37.688 13.5514 37.584C13.6714 37.512 13.7754 37.46 13.8634 37.428C13.9514 37.388 14.0394 37.368 14.1274 37.368C14.2554 37.368 14.3634 37.424 14.4514 37.536C14.5394 37.648 14.5834 37.788 14.5834 37.956C14.5834 38.092 14.5514 38.212 14.4874 38.316C14.4314 38.412 14.3354 38.5 14.1994 38.58C13.9514 38.74 13.6634 38.868 13.3354 38.964C13.0074 39.052 12.6714 39.096 12.3274 39.096ZM18.1867 39.096C17.6027 39.096 17.0867 38.972 16.6387 38.724C16.1987 38.476 15.8587 38.124 15.6187 37.668C15.3787 37.212 15.2587 36.68 15.2587 36.072C15.2587 35.464 15.3827 34.928 15.6307 34.464C15.8867 33.992 16.2427 33.628 16.6987 33.372C17.1547 33.116 17.6787 32.988 18.2707 32.988C18.5827 32.988 18.8947 33.032 19.2067 33.12C19.5267 33.208 19.8067 33.328 20.0467 33.48C20.3027 33.648 20.4307 33.86 20.4307 34.116C20.4307 34.292 20.3867 34.436 20.2987 34.548C20.2187 34.652 20.1107 34.704 19.9747 34.704C19.8867 34.704 19.7947 34.684 19.6987 34.644C19.6027 34.604 19.5067 34.556 19.4107 34.5C19.2347 34.396 19.0667 34.316 18.9067 34.26C18.7467 34.196 18.5627 34.164 18.3547 34.164C17.8587 34.164 17.4747 34.328 17.2027 34.656C16.9387 34.976 16.8067 35.44 16.8067 36.048C16.8067 36.648 16.9387 37.112 17.2027 37.44C17.4747 37.76 17.8587 37.92 18.3547 37.92C18.5547 37.92 18.7307 37.892 18.8827 37.836C19.0427 37.772 19.2187 37.688 19.4107 37.584C19.5307 37.512 19.6347 37.46 19.7227 37.428C19.8107 37.388 19.8987 37.368 19.9867 37.368C20.1147 37.368 20.2227 37.424 20.3107 37.536C20.3987 37.648 20.4427 37.788 20.4427 37.956C20.4427 38.092 20.4107 38.212 20.3467 38.316C20.2907 38.412 20.1947 38.5 20.0587 38.58C19.8107 38.74 19.5227 38.868 19.1947 38.964C18.8667 39.052 18.5307 39.096 18.1867 39.096ZM24.1181 39.096C23.5181 39.096 22.9901 38.972 22.5341 38.724C22.0861 38.476 21.7381 38.12 21.4901 37.656C21.2421 37.192 21.1181 36.652 21.1181 36.036C21.1181 35.42 21.2421 34.884 21.4901 34.428C21.7381 33.964 22.0861 33.608 22.5341 33.36C22.9901 33.112 23.5181 32.988 24.1181 32.988C24.7181 32.988 25.2421 33.112 25.6901 33.36C26.1461 33.608 26.4941 33.964 26.7341 34.428C26.9821 34.884 27.1061 35.42 27.1061 36.036C27.1061 36.652 26.9821 37.192 26.7341 37.656C26.4941 38.12 26.1461 38.476 25.6901 38.724C25.2421 38.972 24.7181 39.096 24.1181 39.096ZM24.1061 37.932C24.5941 37.932 24.9661 37.772 25.2221 37.452C25.4781 37.132 25.6061 36.66 25.6061 36.036C25.6061 35.42 25.4781 34.952 25.2221 34.632C24.9661 34.304 24.5981 34.14 24.1181 34.14C23.6381 34.14 23.2661 34.304 23.0021 34.632C22.7461 34.952 22.6181 35.42 22.6181 36.036C22.6181 36.66 22.7461 37.132 23.0021 37.452C23.2581 37.772 23.6261 37.932 24.1061 37.932ZM32.9765 33.012C33.2085 33.012 33.3925 33.076 33.5285 33.204C33.6645 33.332 33.7325 33.504 33.7325 33.72V38.376C33.7325 38.584 33.6605 38.752 33.5165 38.88C33.3805 39.008 33.2005 39.072 32.9765 39.072C32.7605 39.072 32.5885 39.012 32.4605 38.892C32.3325 38.772 32.2685 38.608 32.2685 38.4V38.1C32.0845 38.42 31.8365 38.668 31.5245 38.844C31.2125 39.012 30.8605 39.096 30.4685 39.096C29.0285 39.096 28.3085 38.288 28.3085 36.672V33.72C28.3085 33.504 28.3765 33.332 28.5125 33.204C28.6485 33.076 28.8285 33.012 29.0525 33.012C29.2845 33.012 29.4685 33.076 29.6045 33.204C29.7405 33.332 29.8085 33.504 29.8085 33.72V36.684C29.8085 37.1 29.8925 37.408 30.0605 37.608C30.2285 37.808 30.4925 37.908 30.8525 37.908C31.2685 37.908 31.6005 37.772 31.8485 37.5C32.1045 37.22 32.2325 36.852 32.2325 36.396V33.72C32.2325 33.504 32.3005 33.332 32.4365 33.204C32.5725 33.076 32.7525 33.012 32.9765 33.012ZM38.7017 32.988C39.4057 32.988 39.9297 33.188 40.2737 33.588C40.6177 33.988 40.7897 34.592 40.7897 35.4V38.352C40.7897 38.576 40.7217 38.752 40.5857 38.88C40.4577 39.008 40.2777 39.072 40.0457 39.072C39.8137 39.072 39.6297 39.008 39.4937 38.88C39.3577 38.752 39.2897 38.576 39.2897 38.352V35.484C39.2897 35.028 39.2017 34.696 39.0257 34.488C38.8577 34.28 38.5897 34.176 38.2217 34.176C37.7897 34.176 37.4417 34.312 37.1777 34.584C36.9217 34.856 36.7937 35.22 36.7937 35.676V38.352C36.7937 38.576 36.7257 38.752 36.5897 38.88C36.4537 39.008 36.2697 39.072 36.0377 39.072C35.8057 39.072 35.6217 39.008 35.4857 38.88C35.3577 38.752 35.2937 38.576 35.2937 38.352V33.708C35.2937 33.5 35.3617 33.332 35.4977 33.204C35.6337 33.076 35.8177 33.012 36.0497 33.012C36.2577 33.012 36.4257 33.076 36.5537 33.204C36.6897 33.324 36.7577 33.484 36.7577 33.684V34.008C36.9577 33.68 37.2257 33.428 37.5617 33.252C37.8977 33.076 38.2777 32.988 38.7017 32.988ZM45.3612 37.956C45.7612 37.98 45.9612 38.16 45.9612 38.496C45.9612 38.688 45.8812 38.836 45.7212 38.94C45.5692 39.036 45.3492 39.076 45.0612 39.06L44.7372 39.036C43.3932 38.94 42.7212 38.22 42.7212 36.876V34.26H42.1212C41.9052 34.26 41.7372 34.212 41.6172 34.116C41.5052 34.02 41.4492 33.88 41.4492 33.696C41.4492 33.512 41.5052 33.372 41.6172 33.276C41.7372 33.18 41.9052 33.132 42.1212 33.132H42.7212V32.028C42.7212 31.812 42.7892 31.64 42.9252 31.512C43.0612 31.384 43.2452 31.32 43.4772 31.32C43.7012 31.32 43.8812 31.384 44.0172 31.512C44.1532 31.64 44.2212 31.812 44.2212 32.028V33.132H45.2412C45.4572 33.132 45.6212 33.18 45.7332 33.276C45.8532 33.372 45.9132 33.512 45.9132 33.696C45.9132 33.88 45.8532 34.02 45.7332 34.116C45.6212 34.212 45.4572 34.26 45.2412 34.26H44.2212V36.984C44.2212 37.576 44.4932 37.892 45.0372 37.932L45.3612 37.956Z" fill="#181725"/>
</svg>
