<svg width="24" height="49" viewBox="0 0 24 49" fill="none" xmlns="http://www.w3.org/2000/svg">
<path d="M8.91984 43.7625C8.96784 43.8665 8.99184 43.9705 8.99184 44.0745C8.99184 44.2585 8.91584 44.4145 8.76384 44.5425C8.61984 44.6705 8.45184 44.7345 8.25984 44.7345C8.13184 44.7345 8.01184 44.7025 7.89984 44.6385C7.78784 44.5665 7.69984 44.4585 7.63584 44.3145L6.91584 42.7065H2.69184L1.97184 44.3145C1.90784 44.4585 1.81984 44.5665 1.70784 44.6385C1.59584 44.7025 1.47184 44.7345 1.33584 44.7345C1.15184 44.7345 0.983844 44.6705 0.831844 44.5425C0.679844 44.4145 0.603844 44.2585 0.603844 44.0745C0.603844 43.9705 0.627844 43.8665 0.675844 43.7625L3.98784 36.6465C4.05984 36.4865 4.16784 36.3665 4.31184 36.2865C4.46384 36.1985 4.62384 36.1545 4.79184 36.1545C4.95984 36.1545 5.11584 36.1985 5.25984 36.2865C5.41184 36.3665 5.52384 36.4865 5.59584 36.6465L8.91984 43.7625ZM3.21984 41.5065H6.38784L4.80384 37.9425L3.21984 41.5065ZM14.9221 36.1665C15.1461 36.1665 15.3301 36.2305 15.4741 36.3585C15.6181 36.4865 15.6901 36.6545 15.6901 36.8625V44.0385C15.6901 44.2545 15.6221 44.4265 15.4861 44.5545C15.3501 44.6825 15.1701 44.7465 14.9461 44.7465C14.7221 44.7465 14.5421 44.6825 14.4061 44.5545C14.2701 44.4265 14.2021 44.2545 14.2021 44.0385V43.7385C14.0261 44.0665 13.7701 44.3225 13.4341 44.5065C13.1061 44.6905 12.7301 44.7825 12.3061 44.7825C11.8021 44.7825 11.3501 44.6545 10.9501 44.3985C10.5581 44.1425 10.2501 43.7825 10.0261 43.3185C9.81009 42.8465 9.70209 42.3065 9.70209 41.6985C9.70209 41.0905 9.81009 40.5585 10.0261 40.1025C10.2501 39.6465 10.5581 39.2945 10.9501 39.0465C11.3421 38.7985 11.7941 38.6745 12.3061 38.6745C12.7301 38.6745 13.1061 38.7625 13.4341 38.9385C13.7621 39.1145 14.0141 39.3625 14.1901 39.6825V36.8385C14.1901 36.6385 14.2541 36.4785 14.3821 36.3585C14.5181 36.2305 14.6981 36.1665 14.9221 36.1665ZM12.7021 43.6185C13.1821 43.6185 13.5501 43.4545 13.8061 43.1265C14.0701 42.7985 14.2021 42.3305 14.2021 41.7225C14.2021 41.1145 14.0701 40.6505 13.8061 40.3305C13.5501 40.0025 13.1861 39.8385 12.7141 39.8385C12.2341 39.8385 11.8621 39.9985 11.5981 40.3185C11.3341 40.6385 11.2021 41.0985 11.2021 41.6985C11.2021 42.3065 11.3341 42.7785 11.5981 43.1145C11.8621 43.4505 12.2301 43.6185 12.7021 43.6185ZM22.1291 36.1665C22.3531 36.1665 22.5371 36.2305 22.6811 36.3585C22.8251 36.4865 22.8971 36.6545 22.8971 36.8625V44.0385C22.8971 44.2545 22.8291 44.4265 22.6931 44.5545C22.5571 44.6825 22.3771 44.7465 22.1531 44.7465C21.9291 44.7465 21.7491 44.6825 21.6131 44.5545C21.4771 44.4265 21.4091 44.2545 21.4091 44.0385V43.7385C21.2331 44.0665 20.9771 44.3225 20.6411 44.5065C20.3131 44.6905 19.9371 44.7825 19.5131 44.7825C19.0091 44.7825 18.5571 44.6545 18.1571 44.3985C17.7651 44.1425 17.4571 43.7825 17.2331 43.3185C17.0171 42.8465 16.9091 42.3065 16.9091 41.6985C16.9091 41.0905 17.0171 40.5585 17.2331 40.1025C17.4571 39.6465 17.7651 39.2945 18.1571 39.0465C18.5491 38.7985 19.0011 38.6745 19.5131 38.6745C19.9371 38.6745 20.3131 38.7625 20.6411 38.9385C20.9691 39.1145 21.2211 39.3625 21.3971 39.6825V36.8385C21.3971 36.6385 21.4611 36.4785 21.5891 36.3585C21.7251 36.2305 21.9051 36.1665 22.1291 36.1665ZM19.9091 43.6185C20.3891 43.6185 20.7571 43.4545 21.0131 43.1265C21.2771 42.7985 21.4091 42.3305 21.4091 41.7225C21.4091 41.1145 21.2771 40.6505 21.0131 40.3305C20.7571 40.0025 20.3931 39.8385 19.9211 39.8385C19.4411 39.8385 19.0691 39.9985 18.8051 40.3185C18.5411 40.6385 18.4091 41.0985 18.4091 41.6985C18.4091 42.3065 18.5411 42.7785 18.8051 43.1145C19.0691 43.4505 19.4371 43.6185 19.9091 43.6185Z" fill="#3E64FF"/>
<path d="M9 16.7541C9.53 17.2291 10.232 17.5181 11 17.5181H13C13.7381 17.5191 14.4505 17.2469 15 16.7541H9ZM9 16.7541C8.45054 17.2469 7.73814 17.5191 7 17.5181L9 16.7541ZM8.05 11.5181V11.4681H8H5C4.72153 11.4681 4.45445 11.5787 4.25754 11.7756C4.06063 11.9725 3.95 12.2396 3.95 12.5181V14.5181C3.95 14.7965 4.06063 15.0636 4.25754 15.2605C4.45445 15.4574 4.72153 15.5681 5 15.5681H7C7.27848 15.5681 7.54555 15.4574 7.74247 15.2605C7.93938 15.0636 8.05 14.7965 8.05 14.5181V11.5181ZM5.01 17.4681H4.96V17.5181V27.4831V27.5331H5.01H7H7.05V27.4831V22.5181C7.05 22.0009 7.25545 21.5049 7.62114 21.1392C7.98684 20.7735 8.48283 20.5681 9 20.5681H11C11.5172 20.5681 12.0132 20.7735 12.3789 21.1392C12.7446 21.5049 12.95 22.0009 12.95 22.5181V27.4831V27.5331H13H19.013H19.063V27.4831V17.5181V17.4681H19.013H17C16.2448 17.4681 15.5545 17.1839 15.0334 16.7168L15 16.6869L14.9666 16.7168C14.4263 17.2015 13.7259 17.4691 13.0001 17.4681H13H11C10.2448 17.4681 9.55454 17.1839 9.03337 16.7168L8.99999 16.6869L8.96662 16.7168C8.42634 17.2015 7.72586 17.4691 7.00007 17.4681H7H5.01ZM3.00817 16.6952C2.71173 16.4244 2.4737 16.0957 2.3089 15.7293C2.13767 15.3485 2.04942 14.9356 2.05 14.5181V14.5181V12.5181C2.05 11.7357 2.36081 10.9853 2.91404 10.4321C3.46727 9.87887 4.21761 9.56807 5 9.56807H19C19.7824 9.56807 20.5327 9.87887 21.086 10.4321C21.6392 10.9853 21.95 11.7357 21.95 12.5181V14.5181C21.95 15.3854 21.5764 16.1661 20.9795 16.706L20.963 16.7209V16.7431V27.4831C20.963 28.0002 20.7576 28.4962 20.3919 28.8619C20.0262 29.2276 19.5302 29.4331 19.013 29.4331H11.373V29.4322L11.3637 29.4339C11.2438 29.4566 11.122 29.468 11 29.4681H9C8.87798 29.468 8.75621 29.4566 8.63629 29.4339L8.63646 29.4331H8.627H5.011C4.49383 29.4331 3.99784 29.2276 3.63214 28.8619C3.26645 28.4962 3.061 28.0002 3.061 27.4831V16.7631V16.6424L3.00817 16.6952ZM11.05 22.5181V22.4681H11H9H8.95V22.5181V27.4831V27.5331H9H11V27.4841H11.05V27.4831V27.4331V22.5181ZM14.05 11.5181V11.4681H14H10H9.95V11.5181V14.5181C9.95 14.7965 10.0606 15.0636 10.2575 15.2605C10.4545 15.4574 10.7215 15.5681 11 15.5681H13C13.2785 15.5681 13.5456 15.4574 13.7425 15.2605C13.9394 15.0636 14.05 14.7965 14.05 14.5181V11.5181ZM16 11.4681H15.95V11.5181V14.5181C15.95 14.7965 16.0606 15.0636 16.2575 15.2605C16.4545 15.4574 16.7215 15.5681 17 15.5681H19C19.2785 15.5681 19.5456 15.4574 19.7425 15.2605C19.9394 15.0636 20.05 14.7965 20.05 14.5181V12.5181C20.05 12.2396 19.9394 11.9725 19.7425 11.7756C19.5456 11.5787 19.2785 11.4681 19 11.4681H16ZM16 20.5681H17C17.252 20.5681 17.4936 20.6682 17.6718 20.8463C17.8499 21.0245 17.95 21.2661 17.95 21.5181V24.5181C17.95 24.77 17.8499 25.0117 17.6718 25.1898C17.4936 25.368 17.252 25.4681 17 25.4681H16C15.748 25.4681 15.5064 25.368 15.3283 25.1898C15.1501 25.0117 15.05 24.77 15.05 24.5181V21.5181C15.05 21.2661 15.1501 21.0245 15.3283 20.8463C15.5064 20.6682 15.748 20.5681 16 20.5681Z" fill="#3E64FF" stroke="white" stroke-width="0.1"/>
<path d="M8.5626 7.21579H9.81379V8.46973C9.81379 9.37137 10.547 10.1263 11.4672 10.1263C12.3675 10.1263 13.1206 9.39133 13.1206 8.46973V7.21579H14.4729C15.3732 7.21579 16.1263 6.4808 16.1263 5.55921L16.1263 5.55706C16.1068 4.6487 15.3755 3.90263 14.4729 3.90263H13.1022V2.55658C13.1022 1.65495 12.369 0.9 11.4488 0.9C10.5485 0.9 9.79541 1.63498 9.79541 2.55658V3.91184H8.55341C7.65312 3.91184 6.9 4.64683 6.89998 5.56842L6.90002 5.57059C6.91955 6.47049 7.65156 7.21579 8.5626 7.21579ZM8.5626 4.75658H10.2447C10.3622 4.75658 10.4724 4.7097 10.5479 4.62321C10.6157 4.55418 10.6756 4.44835 10.6756 4.325V2.53816C10.6756 2.10436 11.0269 1.74474 11.4672 1.74474C11.8996 1.74474 12.2588 2.0965 12.2588 2.53816V4.325C12.2588 4.56425 12.4504 4.75658 12.6897 4.75658H14.4729C14.9047 4.75658 15.2635 5.10738 15.2645 5.54819C15.2471 6.00368 14.893 6.35263 14.4637 6.35263H12.6805C12.563 6.35263 12.4528 6.39951 12.3773 6.486C12.3095 6.55503 12.2496 6.66085 12.2496 6.78421V8.46973C12.2496 8.90353 11.8983 9.26316 11.458 9.26316C11.0256 9.26316 10.6664 8.9114 10.6664 8.46973V6.82105V6.821V6.82094V6.82089V6.82083V6.82078V6.82073V6.82067V6.82062V6.82056V6.82051V6.82046V6.8204V6.82035V6.8203V6.82024V6.82019V6.82013V6.82008V6.82003V6.81997V6.81992V6.81986V6.81981V6.81976V6.8197V6.81965V6.81959V6.81954V6.81949V6.81943V6.81938V6.81932V6.81927V6.81922V6.81916V6.81911V6.81905V6.819V6.81895V6.81889V6.81884V6.81878V6.81873V6.81868V6.81862V6.81857V6.81851V6.81846V6.81841V6.81835V6.8183V6.81824V6.81819V6.81814V6.81808V6.81803V6.81797V6.81792V6.81787V6.81781V6.81776V6.8177V6.81765V6.8176V6.81754V6.81749V6.81743V6.81738V6.81733V6.81727V6.81722V6.81716V6.81711V6.81706V6.817V6.81695V6.8169V6.81684V6.81679V6.81673V6.81668V6.81663V6.81657V6.81652V6.81646V6.81641V6.81636V6.8163V6.81625V6.81619V6.81614V6.81609V6.81603V6.81598V6.81592V6.81587V6.81582V6.81576V6.81571V6.81565V6.8156V6.81555V6.81549V6.81544V6.81538V6.81533V6.81528V6.81522V6.81517V6.81511V6.81506V6.81501V6.81495V6.8149V6.81484V6.81479V6.81474V6.81468V6.81463V6.81457V6.81452V6.81447V6.81441V6.81436V6.8143V6.81425V6.8142V6.81414V6.81409V6.81403V6.81398V6.81393V6.81387V6.81382V6.81377V6.81371V6.81366V6.8136V6.81355V6.8135V6.81344V6.81339V6.81333V6.81328V6.81323V6.81317V6.81312V6.81306V6.81301V6.81296V6.8129V6.81285V6.81279V6.81274V6.81269V6.81263V6.81258V6.81252V6.81247V6.81242V6.81236V6.81231V6.81225V6.8122V6.81215V6.81209V6.81204V6.81198V6.81193V6.81188V6.81182V6.81177V6.81171V6.81166V6.81161V6.81155V6.8115V6.81144V6.81139V6.81134V6.81128V6.81123V6.81117V6.81112V6.81107V6.81101V6.81096V6.8109V6.81085V6.8108V6.81074V6.81069V6.81064V6.81058V6.81053V6.81047V6.81042V6.81037V6.81031V6.81026V6.8102V6.81015V6.8101V6.81004V6.80999V6.80993V6.80988V6.80983V6.80977V6.80972V6.80966V6.80961V6.80956V6.8095V6.80945V6.80939V6.80934V6.80929V6.80923V6.80918V6.80912V6.80907V6.80902V6.80896V6.80891V6.80885V6.8088V6.80875V6.80869V6.80864V6.80858V6.80853V6.80848V6.80842V6.80837V6.80831V6.80826V6.80821V6.80815V6.8081V6.80804V6.80799V6.80794V6.80788V6.80783V6.80778V6.80772V6.80767V6.80761V6.80756V6.80751V6.80745V6.8074V6.80734V6.80729V6.80724V6.80718V6.80713V6.80707V6.80702V6.80697V6.80691V6.80686V6.8068V6.80675V6.8067V6.80664V6.80659V6.80653V6.80648V6.80643V6.80637V6.80632V6.80626V6.80621V6.80616V6.8061V6.80605V6.80599V6.80594V6.80589V6.80583V6.80578V6.80572V6.80567V6.80562V6.80556V6.80551V6.80545V6.8054V6.80535V6.80529V6.80524V6.80518V6.80513V6.80508V6.80502V6.80497V6.80491V6.80486V6.80481V6.80475V6.8047V6.80465V6.80459V6.80454V6.80448V6.80443V6.80438V6.80432V6.80427V6.80421V6.80416V6.80411V6.80405V6.804V6.80394V6.80389V6.80384V6.80378V6.80373V6.80367V6.80362V6.80357V6.80351V6.80346V6.8034V6.80335V6.8033V6.80324V6.80319V6.80313V6.80308V6.80303V6.80297V6.80292V6.80286V6.80281V6.80276V6.8027V6.80265V6.80259V6.80254V6.80249V6.80243V6.80238V6.80232V6.80227V6.80222V6.80216V6.80211V6.80205V6.802V6.80195V6.80189V6.80184V6.80178V6.80173V6.80168V6.80162V6.80157V6.80152V6.80146V6.80141V6.80135V6.8013V6.80125V6.80119V6.80114V6.80108V6.80103V6.80098V6.80092V6.80087V6.80081V6.80076V6.80071V6.80065V6.8006V6.80054V6.80049V6.80044V6.80038V6.80033V6.80027V6.80022V6.80017V6.80011V6.80006V6.8V6.79995V6.7999V6.79984V6.79979V6.79973V6.79968V6.79963V6.79957V6.79952V6.79946V6.79941V6.79936V6.7993V6.79925V6.79919V6.79914V6.79909V6.79903V6.79898V6.79892V6.79887V6.79882V6.79876V6.79871V6.79865V6.7986V6.79855V6.79849V6.79844V6.79838V6.79833V6.79828V6.79822V6.79817V6.79812V6.79806V6.79801V6.79795V6.7979V6.79785V6.79779V6.79774V6.79768V6.79763V6.79758V6.79752V6.79747V6.79741V6.79736V6.79731V6.79725V6.7972V6.79714V6.79709V6.79704V6.79698V6.79693V6.79687V6.79682V6.79677V6.79671V6.79666V6.7966V6.79655V6.7965V6.79644V6.79639V6.79633V6.79628V6.79623V6.79617V6.79612V6.79606V6.79601V6.79596V6.7959V6.79585V6.79579V6.79574V6.79569V6.79563V6.79558V6.79552V6.79547V6.79542V6.79536V6.79531V6.79525V6.7952V6.79515V6.79509V6.79504V6.79498V6.79493V6.79488V6.79482V6.79477V6.79471V6.79466V6.79461V6.79455V6.7945V6.79445V6.79439V6.79434V6.79428V6.79423V6.79418V6.79412V6.79407V6.79401V6.79396V6.79391V6.79385V6.7938V6.79374V6.79369V6.79364V6.79358V6.79353V6.79347V6.79342V6.79337V6.79331V6.79326V6.7932V6.79315V6.7931V6.79304V6.79299V6.79293V6.79288V6.79283V6.79277V6.79272V6.79266V6.79261V6.79256V6.7925V6.79245V6.79239V6.79234V6.79229V6.79223V6.79218V6.79212V6.79207V6.79202V6.79196V6.79191V6.79185V6.7918V6.79175V6.79169V6.79164V6.79158V6.79153V6.79148V6.79142V6.79137V6.79132V6.79126V6.79121V6.79115V6.7911V6.79105V6.79099V6.79094V6.79088V6.79083V6.79078V6.79072V6.79067V6.79061V6.79056V6.79051V6.79045V6.7904V6.79034V6.79029V6.79024V6.79018V6.79013V6.79007V6.79002V6.78997V6.78991V6.78986V6.7898V6.78975V6.7897V6.78964V6.78959V6.78953V6.78948V6.78943V6.78937V6.78932V6.78926V6.78921V6.78916V6.7891V6.78905V6.78899V6.78894V6.78889V6.78883V6.78878V6.78872V6.78867V6.78862V6.78856V6.78851V6.78845V6.7884V6.78835V6.78829V6.78824V6.78818V6.78813V6.78808V6.78802V6.78797V6.78792V6.78786V6.78781V6.78775V6.7877V6.78765V6.78759V6.78754V6.78748V6.78743V6.78738V6.78732V6.78727V6.78721V6.78716V6.78711V6.78705V6.787V6.78694V6.78689V6.78684V6.78678V6.78673V6.78667V6.78662V6.78657V6.78651V6.78646V6.7864V6.78635V6.7863V6.78624V6.78619V6.78613V6.78608V6.78603V6.78597V6.78592V6.78586V6.78581V6.78576V6.7857V6.78565V6.78559V6.78554V6.78549V6.78543V6.78538V6.78532V6.78527V6.78522V6.78516V6.78511V6.78505V6.785V6.78495V6.78489V6.78484V6.78478V6.78473V6.78468V6.78462V6.78457V6.78451V6.78446V6.78441V6.78435V6.7843V6.78425V6.78419V6.78414V6.78408V6.78403V6.78398V6.78392V6.78387V6.78381V6.78376V6.78371V6.78365V6.7836V6.78354V6.78349V6.78344V6.78338V6.78333V6.78327V6.78322V6.78317V6.78311V6.78306V6.783V6.78295V6.7829V6.78284V6.78279V6.78273V6.78268V6.78263V6.78257V6.78252V6.78246V6.78241V6.78236V6.7823V6.78225V6.78219V6.78214V6.78209V6.78203V6.78198V6.78192V6.78187V6.78182V6.78176V6.78171V6.78165V6.7816V6.78155V6.78149V6.78144V6.78138V6.78133V6.78128V6.78122V6.78117V6.78112V6.78106V6.78101V6.78095V6.7809V6.78085V6.78079V6.78074V6.78068V6.78063V6.78058V6.78052V6.78047V6.78041V6.78036V6.78031V6.78025V6.7802V6.78014V6.78009V6.78004V6.77998V6.77993V6.77987V6.77982V6.77977V6.77971V6.77966V6.7796V6.77955V6.7795V6.77944V6.77939V6.77933V6.77928V6.77923V6.77917V6.77912V6.77906V6.77901V6.77896V6.7789V6.77885V6.77879V6.77874V6.77869V6.77863V6.77858V6.77852V6.77847V6.77842V6.77836V6.77831V6.77825V6.7782V6.77815V6.77809V6.77804V6.77798V6.77793V6.77788V6.77782V6.77777V6.77771V6.77766V6.77761V6.77755V6.7775V6.77744V6.77739V6.77734V6.77728V6.77723V6.77717V6.77712V6.77707V6.77701V6.77696V6.77691V6.77685V6.7768V6.77674V6.77669V6.77664V6.77658V6.77653V6.77647V6.77642V6.77637V6.77631V6.77626V6.7762V6.77615V6.7761V6.77604V6.77599V6.77593V6.77588V6.77583V6.77577V6.77572V6.77566V6.77561V6.77556V6.7755V6.77545V6.77539V6.77534V6.77529V6.77523V6.77518V6.77512V6.77507V6.77502V6.77496V6.77491V6.77485V6.7748V6.77475V6.77469V6.77464V6.77458V6.77453V6.77448V6.77442V6.77437V6.77431V6.77426V6.77421V6.77415V6.7741V6.77404V6.77399V6.77394V6.77388V6.77383V6.77378V6.77372V6.77367V6.77361V6.77356V6.77351V6.77345V6.7734V6.77334V6.77329V6.77324V6.77318V6.77313V6.77307V6.77302V6.77297V6.77291V6.77286V6.7728V6.77275V6.7727V6.77264V6.77259V6.77253V6.77248V6.77243V6.77237V6.77232V6.77226V6.77221V6.77216V6.7721V6.77205V6.77199V6.77194V6.77189V6.77183V6.77178V6.77172V6.77167V6.77162V6.77156V6.77151V6.77145V6.7714V6.77135V6.77129V6.77124V6.77118V6.77113V6.77108V6.77102V6.77097V6.77092V6.77086V6.77081V6.77075V6.7707V6.77065V6.77059V6.77054V6.77048V6.77043V6.77038V6.77032V6.77027V6.77021V6.77016V6.77011V6.77005V6.77V6.76994V6.76989V6.76984V6.76978V6.76973V6.76967V6.76962V6.76957V6.76951V6.76946V6.7694V6.76935V6.7693V6.76924V6.76919V6.76913V6.76908V6.76903V6.76897V6.76892V6.76886V6.76881V6.76876V6.7687V6.76865V6.76859V6.76854V6.76849V6.76843V6.76838V6.76832V6.76827V6.76822V6.76816V6.76811V6.76805V6.768V6.76795V6.76789V6.76784V6.76778V6.76773V6.76768V6.76762V6.76757V6.76752V6.76746V6.76741V6.76735V6.7673V6.76725V6.76719V6.76714V6.76708V6.76703V6.76698V6.76692V6.76687V6.76681V6.76676V6.76671V6.76665V6.7666V6.76654V6.76649V6.76644V6.76638V6.76633V6.76627V6.76622V6.76617V6.76611V6.76606V6.766V6.76595V6.7659V6.76584V6.76579C10.6664 6.52654 10.4748 6.33421 10.2355 6.33421H8.5626C8.13019 6.33421 7.771 5.98245 7.771 5.54079C7.771 5.11688 8.12167 4.75658 8.5626 4.75658Z" fill="#3E64FF" stroke="#3E64FF" stroke-width="0.2"/>
</svg>
