<svg width="19" height="14" viewBox="0 0 19 14" fill="none" xmlns="http://www.w3.org/2000/svg">
<path fill-rule="evenodd" clip-rule="evenodd" d="M1.96311 5.99991H14.707L10.8049 1.63991C10.4247 1.21591 10.487 0.584909 10.9424 0.231909C11.3988 -0.122091 12.0755 -0.0640909 12.4547 0.359909L17.825 6.35991C17.8669 6.40691 17.8884 6.46191 17.9196 6.51391C17.9453 6.55591 17.9765 6.59191 17.9958 6.63791C18.0441 6.75291 18.0731 6.87391 18.0731 6.99591C18.0731 6.99691 18.0742 6.99891 18.0742 6.99991C18.0742 7.00091 18.0731 7.00291 18.0731 7.00391C18.0731 7.12591 18.0441 7.24691 17.9958 7.36191C17.9765 7.40791 17.9453 7.44391 17.9196 7.48591C17.8884 7.53791 17.8669 7.59291 17.825 7.63991L12.4547 13.6399C12.242 13.8769 11.937 13.9999 11.6298 13.9999C11.387 13.9999 11.1432 13.9239 10.9424 13.7679C10.487 13.4149 10.4247 12.7839 10.8049 12.3599L14.707 7.99991H1.96311C1.37022 7.99991 0.889034 7.55191 0.889034 6.99991C0.889034 6.44791 1.37022 5.99991 1.96311 5.99991Z" fill="#0338B9"/>
</svg>
