<svg width="20" height="20" viewBox="0 0 20 20" fill="none" xmlns="http://www.w3.org/2000/svg">
<path fill-rule="evenodd" clip-rule="evenodd" d="M10 14.8245C10.159 14.8245 10.318 14.8646 10.463 14.9437L14.2322 17.0223L13.5152 12.6362C13.4582 12.2922 13.5672 11.9419 13.8052 11.6982L16.8413 8.60038L12.6381 7.95465C12.3131 7.90506 12.0321 7.69087 11.8861 7.38067L10 3.37757L8.11392 7.38067C7.96791 7.69087 7.6869 7.90506 7.36188 7.95465L3.15869 8.60038L6.19483 11.6982C6.43284 11.9419 6.54184 12.2922 6.48484 12.6362L5.76781 17.0223L9.53698 14.9437C9.68199 14.8646 9.84099 14.8245 10 14.8245ZM15.5623 19.9997C15.4032 19.9997 15.2442 19.9606 15.0992 19.8804L10 17.0696L4.90077 19.8804C4.56275 20.0661 4.15474 20.0334 3.84972 19.7971C3.54171 19.5607 3.3887 19.1608 3.4527 18.7652L4.42475 12.827L0.304561 8.62238C0.0295482 8.34277 -0.0684563 7.92284 0.048549 7.53983C0.164554 7.15683 0.478569 6.87828 0.855586 6.82024L6.55684 5.94661L9.10396 0.538107C9.44198 -0.179369 10.558 -0.179369 10.896 0.538107L13.4432 5.94661L19.1444 6.82024C19.5214 6.87828 19.8354 7.15683 19.9515 7.53983C20.0685 7.92284 19.9705 8.34277 19.6954 8.62238L15.5753 12.827L16.5473 18.7652C16.6113 19.1608 16.4583 19.5607 16.1503 19.7971C15.9773 19.9321 15.7703 19.9997 15.5623 19.9997Z" fill="#F7C480"/>
</svg>
