<svg width="107" height="107" viewBox="0 0 107 107" fill="none" xmlns="http://www.w3.org/2000/svg">
<circle cx="53.5" cy="53.5" r="53.5" fill="#F0F0F0"/>
<path d="M72.2916 65.4583C72.2916 66.3645 71.9316 67.2335 71.2909 67.8743C70.6501 68.515 69.7811 68.875 68.8749 68.875H38.1249C37.2188 68.875 36.3497 68.515 35.709 67.8743C35.0682 67.2335 34.7083 66.3645 34.7083 65.4583V46.6667C34.7083 45.7605 35.0682 44.8915 35.709 44.2507C36.3497 43.61 37.2188 43.25 38.1249 43.25H44.9583L48.3749 38.125H58.6249L62.0416 43.25H68.8749C69.7811 43.25 70.6501 43.61 71.2909 44.2507C71.9316 44.8915 72.2916 45.7605 72.2916 46.6667V65.4583Z" stroke="#606267" stroke-width="2" stroke-linecap="round" stroke-linejoin="round"/>
<path d="M53.5001 62.0417C57.274 62.0417 60.3334 58.9823 60.3334 55.2083C60.3334 51.4344 57.274 48.375 53.5001 48.375C49.7261 48.375 46.6667 51.4344 46.6667 55.2083C46.6667 58.9823 49.7261 62.0417 53.5001 62.0417Z" stroke="#606267" stroke-width="2" stroke-linecap="round" stroke-linejoin="round"/>
</svg>
