<svg width="27" height="43" viewBox="0 0 27 43" fill="none" xmlns="http://www.w3.org/2000/svg">
<path d="M5.16075 38.7945C4.34475 38.7945 3.62875 38.6185 3.01275 38.2665C2.40475 37.9145 1.93675 37.4105 1.60875 36.7545C1.28075 36.0985 1.11675 35.3305 1.11675 34.4505C1.11675 33.5705 1.28075 32.8065 1.60875 32.1585C1.93675 31.5025 2.40475 30.9985 3.01275 30.6465C3.62875 30.2945 4.34475 30.1185 5.16075 30.1185C5.68875 30.1185 6.18475 30.1985 6.64875 30.3585C7.11275 30.5105 7.52475 30.7345 7.88475 31.0305C7.98875 31.1105 8.06075 31.1945 8.10075 31.2825C8.14075 31.3705 8.16075 31.4785 8.16075 31.6065C8.16075 31.7825 8.11275 31.9305 8.01675 32.0505C7.92075 32.1705 7.80475 32.2305 7.66875 32.2305C7.50875 32.2305 7.34475 32.1745 7.17675 32.0625C6.83275 31.8065 6.51275 31.6305 6.21675 31.5345C5.92075 31.4305 5.59275 31.3785 5.23275 31.3785C4.40075 31.3785 3.76875 31.6385 3.33675 32.1585C2.91275 32.6785 2.70075 33.4425 2.70075 34.4505C2.70075 35.4665 2.91275 36.2345 3.33675 36.7545C3.76875 37.2745 4.40075 37.5345 5.23275 37.5345C5.57675 37.5345 5.89275 37.4825 6.18075 37.3785C6.47675 37.2745 6.80875 37.0985 7.17675 36.8505C7.25675 36.8025 7.33675 36.7625 7.41675 36.7305C7.49675 36.6985 7.58075 36.6825 7.66875 36.6825C7.80475 36.6825 7.92075 36.7425 8.01675 36.8625C8.11275 36.9825 8.16075 37.1305 8.16075 37.3065C8.16075 37.4265 8.14075 37.5345 8.10075 37.6305C8.06075 37.7185 7.98875 37.8025 7.88475 37.8825C7.52475 38.1785 7.11275 38.4065 6.64875 38.5665C6.18475 38.7185 5.68875 38.7945 5.16075 38.7945ZM12.8136 32.6745C14.1896 32.6745 14.8776 33.4785 14.8776 35.0865V38.0385C14.8776 38.2625 14.8096 38.4385 14.6736 38.5665C14.5456 38.6945 14.3656 38.7585 14.1336 38.7585C13.9016 38.7585 13.7176 38.6945 13.5816 38.5665C13.4456 38.4385 13.3776 38.2625 13.3776 38.0385V35.0865C13.3776 34.6625 13.2896 34.3545 13.1136 34.1625C12.9456 33.9625 12.6776 33.8625 12.3096 33.8625C11.8776 33.8625 11.5296 33.9985 11.2656 34.2705C11.0096 34.5425 10.8816 34.9065 10.8816 35.3625V38.0385C10.8816 38.2625 10.8136 38.4385 10.6776 38.5665C10.5416 38.6945 10.3576 38.7585 10.1256 38.7585C9.89356 38.7585 9.70956 38.6945 9.57356 38.5665C9.44556 38.4385 9.38156 38.2625 9.38156 38.0385V30.8625C9.38156 30.6545 9.44956 30.4865 9.58556 30.3585C9.72956 30.2305 9.91356 30.1665 10.1376 30.1665C10.3616 30.1665 10.5416 30.2265 10.6776 30.3465C10.8136 30.4665 10.8816 30.6305 10.8816 30.8385V33.6345C11.0816 33.3225 11.3456 33.0865 11.6736 32.9265C12.0096 32.7585 12.3896 32.6745 12.8136 32.6745ZM18.9451 32.6745C19.7611 32.6745 20.3651 32.8785 20.7571 33.2865C21.1571 33.6865 21.3571 34.2985 21.3571 35.1225V38.0505C21.3571 38.2665 21.2931 38.4385 21.1651 38.5665C21.0371 38.6865 20.8611 38.7465 20.6371 38.7465C20.4291 38.7465 20.2571 38.6825 20.1211 38.5545C19.9931 38.4265 19.9291 38.2585 19.9291 38.0505V37.7865C19.7931 38.0985 19.5771 38.3425 19.2811 38.5185C18.9931 38.6945 18.6571 38.7825 18.2731 38.7825C17.8811 38.7825 17.5251 38.7025 17.2051 38.5425C16.8851 38.3825 16.6331 38.1625 16.4491 37.8825C16.2651 37.6025 16.1731 37.2905 16.1731 36.9465C16.1731 36.5145 16.2811 36.1745 16.4971 35.9265C16.7211 35.6785 17.0811 35.4985 17.5771 35.3865C18.0731 35.2745 18.7571 35.2185 19.6291 35.2185H19.9291V34.9425C19.9291 34.5505 19.8451 34.2665 19.6771 34.0905C19.5091 33.9065 19.2371 33.8145 18.8611 33.8145C18.6291 33.8145 18.3931 33.8505 18.1531 33.9225C17.9131 33.9865 17.6291 34.0825 17.3011 34.2105C17.0931 34.3145 16.9411 34.3665 16.8451 34.3665C16.7011 34.3665 16.5811 34.3145 16.4851 34.2105C16.3971 34.1065 16.3531 33.9705 16.3531 33.8025C16.3531 33.6665 16.3851 33.5505 16.4491 33.4545C16.5211 33.3505 16.6371 33.2545 16.7971 33.1665C17.0771 33.0145 17.4091 32.8945 17.7931 32.8065C18.1851 32.7185 18.5691 32.6745 18.9451 32.6745ZM18.5731 37.7025C18.9731 37.7025 19.2971 37.5705 19.5451 37.3065C19.8011 37.0345 19.9291 36.6865 19.9291 36.2625V36.0105H19.7131C19.1771 36.0105 18.7611 36.0345 18.4651 36.0825C18.1691 36.1305 17.9571 36.2145 17.8291 36.3345C17.7011 36.4545 17.6371 36.6185 17.6371 36.8265C17.6371 37.0825 17.7251 37.2945 17.9011 37.4625C18.0851 37.6225 18.3091 37.7025 18.5731 37.7025ZM25.9296 37.6425C26.3296 37.6665 26.5296 37.8465 26.5296 38.1825C26.5296 38.3745 26.4496 38.5225 26.2896 38.6265C26.1376 38.7225 25.9176 38.7625 25.6296 38.7465L25.3056 38.7225C23.9616 38.6265 23.2896 37.9065 23.2896 36.5625V33.9465H22.6896C22.4736 33.9465 22.3056 33.8985 22.1856 33.8025C22.0736 33.7065 22.0176 33.5665 22.0176 33.3825C22.0176 33.1985 22.0736 33.0585 22.1856 32.9625C22.3056 32.8665 22.4736 32.8185 22.6896 32.8185H23.2896V31.7145C23.2896 31.4985 23.3576 31.3265 23.4936 31.1985C23.6296 31.0705 23.8136 31.0065 24.0456 31.0065C24.2696 31.0065 24.4496 31.0705 24.5856 31.1985C24.7216 31.3265 24.7896 31.4985 24.7896 31.7145V32.8185H25.8096C26.0256 32.8185 26.1896 32.8665 26.3016 32.9625C26.4216 33.0585 26.4816 33.1985 26.4816 33.3825C26.4816 33.5665 26.4216 33.7065 26.3016 33.8025C26.1896 33.8985 26.0256 33.9465 25.8096 33.9465H24.7896V36.6705C24.7896 37.2625 25.0616 37.5785 25.6056 37.6185L25.9296 37.6425Z" fill="#181725"/>
<path d="M10 16.934V16.2918L9.41599 16.0246C6.58703 14.7305 5 12.4332 5 10C5 6.33797 8.81854 3 14 3C19.1815 3 23 6.33797 23 10C23 13.5876 19.3415 16.8611 14.3133 16.9954L13.9949 17.0039L13.74 17.195L10 20V16.934Z" fill="white" stroke="black" stroke-width="2"/>
</svg>
