<svg width="39" height="55" viewBox="0 0 39 55" fill="none" xmlns="http://www.w3.org/2000/svg">
<path d="M25.5938 29.084H13.8633V37.5475H25.5938V29.084Z" fill="#FFE0BF"/>
<path d="M7.55712 14.6038H9.16479C9.82317 14.6038 10.4356 14.2382 10.7265 13.6441L10.7878 13.5375V9.57695C10.7878 9.02857 11.3696 8.51065 11.8596 8.75438C12.3801 8.9981 13.0079 9.42463 13.5438 9.57695C15.5495 10.171 16.8051 9.98824 18.9027 9.88161C20.4644 9.80545 21.3525 9.65312 22.8836 9.34846C24.3688 9.05904 26.6348 8.35832 26.6348 8.35832C26.6348 8.35832 27.3698 9.50079 27.7832 10.2624C28.1812 11.0088 28.2884 11.2526 28.4722 12.0904C28.6559 12.9282 28.2731 13.2328 28.6253 14.025V14.0402C28.7937 14.3905 29.1612 14.619 29.5439 14.619H31.6875V6.92643C31.6875 6.75887 31.6569 6.57608 31.6109 6.40851C31.5038 6.05816 31.3047 5.41838 31.0751 5.00709C30.7229 4.39777 30.4626 4.09312 29.9267 3.63613C29.2836 3.07251 28.8243 2.84402 28.0128 2.56983C27.7066 2.4632 27.3238 2.38703 26.987 2.34133C26.5736 2.2804 26.1755 2.12807 25.808 1.91481L24.5678 1.19887C24.5678 1.19887 23.0979 0.757114 22.118 0.665717C20.74 0.528621 19.9592 0.696183 18.5965 0.89421C16.5754 1.18364 13.5438 2.26517 13.5438 2.26517C13.5438 2.26517 10.7418 3.16391 9.02699 3.94079C8.16957 4.32161 7.14372 4.10835 6.88343 5.00709C6.60783 5.95153 8.46048 6.7741 8.46048 6.7741L8.04708 7.56621C7.72554 8.08413 7.55712 8.67821 7.55712 9.2723V14.6038Z" fill="#F2B983"/>
<path d="M10.6001 14.3233L10.8908 8.46338C10.8908 8.46338 13.6146 9.65058 15.4815 9.90933C17.884 10.2442 21.985 9.60492 21.985 9.60492L26.4227 8.46338C26.4227 8.46338 27.2643 9.17875 27.5704 9.75713C28.06 10.7008 28.1672 11.1422 28.4426 12.162C28.6874 13.06 28.5191 13.5623 29.0394 14.3385C29.1465 14.4907 29.6974 14.7495 29.9575 14.7799C30.539 14.8256 31.549 14.7951 32.0539 15.0539C32.2376 15.1452 32.4059 15.3126 32.7273 15.5714C33.5689 16.2106 33.7831 17.0478 33.6148 18.098C33.523 18.6764 33.3393 19.0265 32.9262 19.4222C32.5436 19.7875 32.2223 19.9092 31.702 20.031C31.1511 20.168 30.2483 20.031 30.2483 20.031C30.2483 20.031 30.0952 21.6901 29.7892 22.6946C29.5291 23.5622 29.3454 24.0188 28.9017 24.8255C28.4273 25.6778 27.8458 26.4541 27.1572 27.139C26.1319 28.1588 25.3974 28.6611 24.0661 29.1938C23.1939 29.5439 22.2757 29.757 21.3423 29.8483C20.9597 29.8787 20.6231 29.9092 20.6231 29.9092C19.5672 30.0157 18.9398 30.0614 17.884 29.9092C16.568 29.7113 15.3132 29.2242 14.1961 28.4936C12.926 27.6717 12.3292 27.276 11.4723 26.2258C10.8755 25.4952 10.4011 24.6581 10.0798 23.7753L9.81963 23.0599C9.39117 21.9184 9.05452 20.0158 9.05452 20.0158C9.05452 20.0158 8.35061 20.1071 7.90684 20.0158C7.38656 19.9092 7.06521 19.7875 6.69795 19.4222C6.49902 19.2243 6.346 18.9808 6.23888 18.722C5.96344 18.0523 5.77981 17.1087 6.14707 16.439C6.71326 15.6475 7.09582 15.2365 7.93744 14.9778C8.02926 14.9473 8.12107 14.9473 8.22819 14.9473C8.87089 14.9626 9.5748 14.9169 10.0492 14.8865C10.3399 14.8865 10.5848 14.6429 10.6001 14.3233Z" fill="#FFE0BF"/>
<path d="M26.5889 1.53595C26.4969 1.45977 26.3895 1.36836 26.2668 1.27694C25.5305 0.743693 24.963 0.591336 24.2267 0.408507L23.9966 0.347565C23.1222 0.119029 22.5853 0.0733218 21.7263 0.0276147C20.5298 -0.0485638 19.8242 0.0428504 18.6891 0.179972C17.0018 0.393272 15.882 0.713221 14.5014 1.20076C13.7958 1.44454 12.9368 1.82543 12.0164 2.20632C11.1114 2.60245 10.1757 2.99858 9.27067 3.33376C8.25826 3.71466 7.46061 3.79083 6.98508 3.83654C6.55558 3.88225 6.24879 3.91272 6.04938 4.21743C5.942 4.38503 5.91132 4.59833 5.97268 4.78116C6.08005 5.11634 6.66295 5.96954 7.78274 6.88368C7.30721 7.41693 7.01576 8.11778 7.01576 8.86433V13.8616V15.0805H8.24292H9.62347C10.6359 15.0805 11.4642 14.2578 11.4642 13.2522V9.18427C11.5409 9.22998 11.6329 9.26045 11.725 9.3214C13.489 10.1898 14.7622 10.4184 16.6336 10.525C17.1245 10.5555 17.5847 10.5707 17.9988 10.5707C19.364 10.5707 20.4378 10.4184 21.849 10.1289C23.4137 9.82417 25.4538 9.26045 26.3128 9.01668C26.681 9.44328 27.3559 10.2812 27.7394 11.2563C27.9388 11.7439 28.0462 12.3533 28.0769 13.0541C28.1075 14.1664 28.9972 15.0653 30.0557 15.0653H31.2215H32.4486V7.76735C32.4946 4.44597 29.8716 1.73401 26.5889 1.53595ZM10.2524 13.2674C10.2524 13.6026 9.97628 13.8769 9.63881 13.8769H8.25826V8.87956C8.25826 8.39202 8.45767 7.95018 8.7798 7.63023C8.8565 7.67594 8.91786 7.72165 8.99456 7.76735L9.62347 8.16348C9.91492 8.34631 10.099 8.4682 10.2524 8.55961V13.2674ZM30.1017 13.8616C29.6722 13.8616 29.3654 13.435 29.35 13.0237C29.3194 12.1857 29.1813 11.4392 28.9205 10.8145C28.4143 9.56517 27.5553 8.52914 27.1565 8.0873C27.0338 7.79783 26.727 7.64547 26.4202 7.73688C26.3895 7.75212 23.5824 8.55961 21.6343 8.9405C19.8856 9.29093 18.7044 9.42805 16.7257 9.30616C14.9309 9.19951 13.8725 9.01668 12.2772 8.22443C11.9244 8.0416 11.6943 7.93495 11.5102 7.85877C11.0654 7.64547 11.0654 7.64547 10.2677 7.14269L9.63881 6.74656C9.34736 6.56373 9.10193 6.3809 8.8565 6.19808L8.82582 6.13713C8.81048 6.13713 8.79514 6.15237 8.79514 6.15237C8.24292 5.72577 7.82876 5.3144 7.55264 4.99446C8.07419 4.91828 8.81048 4.79639 9.66949 4.47644C10.6052 4.12602 11.5562 3.71466 12.4766 3.31853C13.3663 2.93763 14.21 2.57198 14.8849 2.34344C16.2195 1.88637 17.2319 1.58166 18.8272 1.38359C19.9163 1.24647 20.5452 1.17029 21.6189 1.23124C22.4473 1.27694 22.8768 1.30741 23.6438 1.52071L23.8739 1.58166C24.5488 1.76449 24.963 1.87114 25.4998 2.26726C26.006 2.63292 26.2208 2.95287 26.6196 3.50136L26.6656 3.5623C27.0951 4.18696 27.3559 4.91828 27.3559 4.93351C27.4633 5.25346 27.8161 5.42106 28.1382 5.31441C28.4604 5.20776 28.6291 4.85733 28.5217 4.53738C28.5064 4.50691 28.2456 3.71466 27.7547 2.98334C29.7642 3.63848 31.2368 5.52771 31.2368 7.75212V13.8464H30.1017V13.8616Z" fill="#D89B61"/>
<path d="M17.0625 13.3887H14.168C13.8328 13.3887 13.5586 13.6657 13.5586 14.0042C13.5586 14.3427 13.8328 14.6197 14.168 14.6197H17.0625C17.3977 14.6197 17.6719 14.3427 17.6719 14.0042C17.6719 13.6657 17.3977 13.3887 17.0625 13.3887Z" fill="#D89B61"/>
<path d="M25.2891 13.3882H22.3945C22.0594 13.3882 21.7852 13.6652 21.7852 14.0037C21.7852 14.3423 22.0594 14.6192 22.3945 14.6192H25.2891C25.6242 14.6192 25.8984 14.3423 25.8984 14.0037C25.8984 13.6652 25.6242 13.3882 25.2891 13.3882Z" fill="#D89B61"/>
<path d="M23.8418 16.4658C24.2988 16.4658 24.6797 16.8505 24.6797 17.3122C24.6797 17.7738 24.2988 18.1585 23.8418 18.1585C23.3848 18.1585 23.0039 17.7738 23.0039 17.3122C23.0039 16.8505 23.3848 16.4658 23.8418 16.4658Z" fill="#B69169"/>
<path d="M15.6152 16.4658C16.0723 16.4658 16.4531 16.8505 16.4531 17.3122C16.4531 17.7738 16.0723 18.1585 15.6152 18.1585C15.1582 18.1585 14.7773 17.7738 14.7773 17.3122C14.7773 16.8505 15.1582 16.4658 15.6152 16.4658Z" fill="#B69169"/>
<path d="M19.6472 25.2369C17.9858 25.2369 16.4768 24.376 15.6232 22.9462C15.4555 22.6541 15.547 22.2852 15.8214 22.1007C16.111 21.9316 16.4768 22.0238 16.6597 22.3005C17.2999 23.3613 18.4126 23.9916 19.6472 23.9916C20.8818 23.9916 21.9945 23.3613 22.6347 22.3005C22.8023 22.0084 23.1834 21.9162 23.473 22.1007C23.7626 22.2698 23.854 22.6541 23.6711 22.9462C22.8176 24.376 21.3086 25.2369 19.6472 25.2369Z" fill="#DCBC99"/>
<path d="M31.5214 14.9268C31.1844 14.9268 30.9088 15.2007 30.9088 15.5356C30.9088 15.8705 31.1844 16.1445 31.5214 16.1445C32.2872 16.1445 32.8998 16.7534 32.8998 17.5145V17.8189C32.8998 18.7474 32.1493 19.4933 31.2151 19.4933H30.9088V18.7322C30.9088 18.3973 30.6331 18.1233 30.2961 18.1233C29.9592 18.1233 29.6835 18.3973 29.6835 18.7322V19.6455C29.6835 25.0949 25.2114 29.5397 19.7285 29.5397C14.2456 29.5397 9.7735 25.0949 9.7735 19.6455V18.7322C9.7735 18.3973 9.49782 18.1233 9.16088 18.1233C8.82394 18.1233 8.54827 18.3973 8.54827 18.7322V19.4933H8.24196C7.30772 19.4933 6.55726 18.7474 6.55726 17.8189V17.5145C6.55726 16.7534 7.16988 16.1445 7.93565 16.1445C8.27259 16.1445 8.54827 15.8705 8.54827 15.5356C8.54827 15.2007 8.27259 14.9268 7.93565 14.9268C6.496 14.9268 5.33203 16.0836 5.33203 17.5145V17.8189C5.33203 19.4172 6.63384 20.711 8.24196 20.711H8.59421C8.88521 23.8011 10.4627 26.5257 12.7906 28.3524V34.6237H14.0159V29.1896C15.6852 30.179 17.6456 30.7574 19.7285 30.7574C21.8114 30.7574 23.7718 30.179 25.4412 29.1896V34.4258H26.6664V28.3524C28.979 26.5257 30.5565 23.8011 30.8628 20.711H31.2151C32.8232 20.711 34.125 19.4172 34.125 17.8189V17.5145C34.125 16.0836 32.961 14.9268 31.5214 14.9268Z" fill="#F2D0AC"/>
<path d="M18.5731 50.7599L13.7109 36.0368L17.5703 37.8145C18.7707 38.1792 20.7307 38.1032 21.9159 37.7082L25.2891 35.8545L20.7611 50.1673C20.5636 50.7751 20.3053 51.55 19.6823 51.55C19.1657 51.5652 18.7251 51.2461 18.5731 50.7599Z" fill="#FF624E"/>
<path d="M19.4694 38.6242C16.2615 38.6242 13.3424 36.767 11.8828 33.7954L12.9775 33.2383C14.2394 35.7919 16.7328 37.386 19.4846 37.386C22.1453 37.386 24.6083 35.8693 25.8854 33.424L26.9648 34.0121C25.4597 36.8444 22.5862 38.6242 19.4694 38.6242Z" fill="#CF422F"/>
<path d="M10.3409 32.6503L12.3423 32.3759L18.6368 50.8385C18.7743 51.2501 19.1562 51.5245 19.584 51.5245C20.0424 51.5398 20.4396 51.2501 20.5771 50.808L24.3965 38.7791L26.5507 32.3149L28.9646 32.5131C28.9799 32.5131 28.9952 32.5131 29.0105 32.5284C29.1938 32.5741 29.6216 32.9858 29.5146 33.2907L29.0716 34.6475L29.8355 34.7238C29.8355 34.7238 34.5563 35.5165 36.4049 37.6204C37.4286 38.7791 38.2383 41.127 38.2383 41.127V52.5612C37.7799 53.2473 37.0008 53.6742 36.1605 53.6742L23.4493 53.7047H4.35201H3.00756C1.96867 53.7047 1.052 53.0186 0.761719 52.0276V41.813C0.761719 41.813 1.17422 40.4714 1.602 39.6786C2.07561 38.7944 2.427 38.337 3.12979 37.6204C4.38257 36.3551 5.36035 35.8824 7.02564 35.2574C8.30898 34.7695 10.1576 34.4951 10.1576 34.4951L9.8062 33.5041C9.62287 33.1687 9.97426 32.7418 10.3409 32.6503Z" fill="white"/>
<path d="M8.22656 47.2417C7.89141 47.2417 7.61719 46.9648 7.61719 46.6262V43.7024C7.61719 43.3639 7.89141 43.0869 8.22656 43.0869C8.56172 43.0869 8.83594 43.3639 8.83594 43.7024V46.6262C8.83594 46.9648 8.56172 47.2417 8.22656 47.2417Z" fill="#CFD1E2"/>
<path d="M35.0391 45.2418H33.3633V43.5491C33.3633 43.2106 33.0891 42.9336 32.7539 42.9336C32.4188 42.9336 32.1445 43.2106 32.1445 43.5491V45.2418H30.4688C30.1336 45.2418 29.8594 45.5188 29.8594 45.8574C29.8594 46.1959 30.1336 46.4729 30.4688 46.4729H32.1445V48.1656C32.1445 48.5041 32.4188 48.7811 32.7539 48.7811C33.0891 48.7811 33.3633 48.5041 33.3633 48.1656V46.4729H35.0391C35.3742 46.4729 35.6484 46.1959 35.6484 45.8574C35.6484 45.5188 35.3742 45.2418 35.0391 45.2418Z" fill="#CFD1E2"/>
<path d="M4.57031 45.2417H11.7305C12.0656 45.2417 12.3398 45.5187 12.3398 45.8572V50.0121C12.3398 50.3506 12.0656 50.6276 11.7305 50.6276H4.57031C4.23516 50.6276 3.96094 50.3506 3.96094 50.0121V45.8572C3.96094 45.5187 4.23516 45.2417 4.57031 45.2417Z" fill="#E2E4F1"/>
<path d="M11.7305 51.2429H4.57031C3.9 51.2429 3.35156 50.689 3.35156 50.0119V45.857C3.35156 45.18 3.9 44.626 4.57031 44.626H11.7305C12.4008 44.626 12.9492 45.18 12.9492 45.857V50.0119C12.9492 50.689 12.4008 51.2429 11.7305 51.2429ZM4.57031 45.857V50.0119H11.7305V45.857H4.57031Z" fill="#CFD1E2"/>
<path d="M32.8518 34.8428L30.3741 34.1565C30.42 33.8515 30.4047 33.5464 30.2976 33.2414C30.0529 32.5398 29.4565 32.067 28.7224 32.006L26.9788 31.8535V31.8688C26.6729 31.8078 26.3671 31.9755 26.2753 32.2806L20.3106 50.5671C20.1882 50.9484 19.8365 50.9942 19.7294 50.9942C19.6224 50.9942 19.2706 50.9637 19.1482 50.5824L12.8929 32.2806C12.7859 31.9755 12.4647 31.8078 12.1588 31.884L10.7365 32.0518C10.0482 32.128 9.46706 32.5856 9.22235 33.2414C9.13059 33.5007 9.08471 33.7905 9.11529 34.0497L6.16353 34.8581C2.53882 35.8494 0 39.1742 0 42.9414V52.2753C0 53.2819 0.825882 54.1055 1.83529 54.1055H22.5894L22.7271 54.1665L22.7576 54.1055H37.1647C38.1741 54.1055 39 53.2819 39 52.2753V42.9261C39 39.1742 36.4765 35.8494 32.8518 34.8428ZM10.3694 33.6532C10.4459 33.4397 10.6447 33.2872 10.8741 33.2567L11.8835 33.1346L17.9706 50.9637C18.2306 51.7262 18.9035 52.199 19.7141 52.199H19.7294C20.54 52.199 21.2129 51.6957 21.4576 50.9332L27.2694 33.0889L28.6 33.1956C28.9671 33.2262 29.0894 33.5159 29.12 33.6074C29.1506 33.6989 29.2271 34.004 28.9518 34.248L27.8047 35.3004C27.4376 35.6359 27.2235 36.1087 27.2082 36.612C27.1929 37.1153 27.3918 37.5881 27.7435 37.9389L28.5082 38.7014C28.6918 38.8845 28.7376 39.1742 28.6306 39.403L21.9776 52.8396H17.4965L10.5682 39.4793C10.4459 39.2353 10.4918 38.9607 10.6753 38.7625L11.5012 37.9389C12.2047 37.2373 12.22 36.1239 11.5471 35.4071L10.4765 34.248C10.3388 34.1107 10.2929 33.8667 10.3694 33.6532ZM1.22353 52.2753V42.9414C1.22353 39.7233 3.39529 36.8865 6.5 36.0324L9.65059 35.1631L10.6753 36.2765C10.9047 36.5205 10.8894 36.8865 10.66 37.1153L9.83412 37.9389C9.26824 38.5032 9.13059 39.3573 9.49765 40.0741L16.1353 52.8854H1.83529C1.49882 52.8854 1.22353 52.6108 1.22353 52.2753ZM37.7765 52.2753C37.7765 52.6108 37.5012 52.8854 37.1647 52.8854H23.3694L29.7624 39.9826C30.1141 39.281 29.9765 38.4269 29.4106 37.8779L28.6459 37.1153C28.5235 36.9933 28.4624 36.8408 28.4624 36.673C28.4624 36.5052 28.5388 36.3527 28.6612 36.2307L29.7318 35.2546L32.5306 36.0324C35.62 36.8865 37.7918 39.7386 37.7918 42.9414V52.2753H37.7765Z" fill="#F0F0F0"/>
</svg>
