<svg width="43" height="40" viewBox="0 0 43 40" fill="none" xmlns="http://www.w3.org/2000/svg">
<path d="M25.565 14.2373C26.3529 14.2373 27.1331 14.0821 27.8611 13.7806C28.589 13.4791 29.2504 13.0371 29.8076 12.48C30.3647 11.9228 30.8067 11.2614 31.1082 10.5334C31.4098 9.80547 31.565 9.02525 31.565 8.23732C31.565 7.44939 31.4098 6.66917 31.1082 5.94122C30.8067 5.21327 30.3647 4.55183 29.8076 3.99468C29.2504 3.43753 28.589 2.99557 27.8611 2.69404C27.1331 2.39251 26.3529 2.23732 25.565 2.23732C23.9737 2.23732 22.4475 2.86946 21.3223 3.99468C20.1971 5.1199 19.565 6.64602 19.565 8.23732C19.565 9.82862 20.1971 11.3547 21.3223 12.48C22.4475 13.6052 23.9737 14.2373 25.565 14.2373ZM31.885 13.1433L35.465 16.7233C35.5604 16.8156 35.6365 16.926 35.6888 17.0481C35.7411 17.1701 35.7686 17.3014 35.7697 17.4341C35.7708 17.5669 35.7454 17.6986 35.695 17.8214C35.6446 17.9443 35.5703 18.0559 35.4763 18.1497C35.3824 18.2435 35.2707 18.3177 35.1477 18.3679C35.0248 18.4181 34.8931 18.4433 34.7603 18.4421C34.6276 18.4408 34.4964 18.4131 34.3744 18.3606C34.2524 18.3082 34.1421 18.2319 34.05 18.1363L30.47 14.5563C28.8624 15.8042 26.8398 16.3925 24.8137 16.2015C22.7877 16.0105 20.9106 15.0546 19.5645 13.5284C18.2185 12.0021 17.5046 10.0203 17.5684 7.98624C17.6321 5.95222 18.4686 4.01894 19.9076 2.57997C21.3466 1.14099 23.2799 0.304486 25.3139 0.240745C27.3479 0.177004 29.3298 0.890816 30.856 2.23687C32.3823 3.58292 33.3382 5.46003 33.5292 7.48607C33.7201 9.51211 33.1318 11.5348 31.884 13.1423L31.885 13.1433Z" fill="#181725"/>
<rect x="7.42041" y="0.236816" width="8.85499" height="2.39923" rx="1.19961" fill="#181725"/>
<rect x="7.42041" y="7.6748" width="6.46414" height="2.39923" rx="1.19961" fill="#181725"/>
<rect x="7.42041" y="15.1138" width="8.85499" height="2.39923" rx="1.19961" fill="#181725"/>
<path d="M2.02075 35.686C1.78875 35.686 1.60475 35.622 1.46875 35.494C1.34075 35.366 1.27675 35.186 1.27675 34.954V27.958C1.27675 27.726 1.34075 27.546 1.46875 27.418C1.60475 27.29 1.78875 27.226 2.02075 27.226H6.35275C6.58475 27.226 6.76475 27.278 6.89275 27.382C7.02075 27.486 7.08475 27.634 7.08475 27.826C7.08475 28.026 7.02075 28.182 6.89275 28.294C6.76475 28.398 6.58475 28.45 6.35275 28.45H2.78875V30.778H6.11275C6.34475 30.778 6.52475 30.83 6.65275 30.934C6.78075 31.038 6.84475 31.19 6.84475 31.39C6.84475 31.582 6.78075 31.73 6.65275 31.834C6.52475 31.938 6.34475 31.99 6.11275 31.99H2.78875V34.462H6.35275C6.58475 34.462 6.76475 34.518 6.89275 34.63C7.02075 34.734 7.08475 34.886 7.08475 35.086C7.08475 35.278 7.02075 35.426 6.89275 35.53C6.76475 35.634 6.58475 35.686 6.35275 35.686H2.02075ZM13.2992 34.582C13.4432 34.726 13.5152 34.89 13.5152 35.074C13.5152 35.25 13.4472 35.41 13.3112 35.554C13.1752 35.69 13.0152 35.758 12.8312 35.758C12.6312 35.758 12.4592 35.674 12.3152 35.506L10.6232 33.634L8.93115 35.506C8.77915 35.666 8.60715 35.746 8.41515 35.746C8.23915 35.746 8.08315 35.678 7.94715 35.542C7.81115 35.406 7.74315 35.25 7.74315 35.074C7.74315 34.89 7.81515 34.726 7.95915 34.582L9.71115 32.674L8.05515 30.874C7.91115 30.73 7.83915 30.566 7.83915 30.382C7.83915 30.198 7.90715 30.042 8.04315 29.914C8.17915 29.778 8.33515 29.71 8.51115 29.71C8.70315 29.71 8.87515 29.79 9.02715 29.95L10.6232 31.702L12.2192 29.95C12.3712 29.79 12.5432 29.71 12.7352 29.71C12.9192 29.71 13.0752 29.778 13.2032 29.914C13.3392 30.042 13.4072 30.198 13.4072 30.382C13.4072 30.566 13.3352 30.73 13.1912 30.874L11.5352 32.674L13.2992 34.582ZM17.9699 29.674C18.4739 29.674 18.9219 29.802 19.3139 30.058C19.7139 30.314 20.0219 30.678 20.2379 31.15C20.4619 31.614 20.5739 32.15 20.5739 32.758C20.5739 33.366 20.4619 33.898 20.2379 34.354C20.0219 34.81 19.7179 35.162 19.3259 35.41C18.9339 35.658 18.4819 35.782 17.9699 35.782C17.5539 35.782 17.1819 35.694 16.8539 35.518C16.5259 35.342 16.2739 35.098 16.0979 34.786V37.234C16.0979 37.442 16.0299 37.606 15.8939 37.726C15.7579 37.846 15.5779 37.906 15.3539 37.906C15.1299 37.906 14.9459 37.842 14.8019 37.714C14.6659 37.586 14.5979 37.418 14.5979 37.21V30.406C14.5979 30.19 14.6619 30.018 14.7899 29.89C14.9259 29.762 15.1059 29.698 15.3299 29.698C15.5539 29.698 15.7339 29.762 15.8699 29.89C16.0059 30.018 16.0739 30.19 16.0739 30.406V30.706C16.2499 30.378 16.5019 30.126 16.8299 29.95C17.1659 29.766 17.5459 29.674 17.9699 29.674ZM17.5739 34.618C18.0459 34.618 18.4139 34.458 18.6779 34.138C18.9419 33.81 19.0739 33.35 19.0739 32.758C19.0739 32.15 18.9419 31.678 18.6779 31.342C18.4139 31.006 18.0459 30.838 17.5739 30.838C17.0939 30.838 16.7219 31.002 16.4579 31.33C16.2019 31.658 16.0739 32.126 16.0739 32.734C16.0739 33.334 16.2019 33.798 16.4579 34.126C16.7219 34.454 17.0939 34.618 17.5739 34.618ZM22.5489 35.758C22.3329 35.758 22.1529 35.698 22.0089 35.578C21.8729 35.45 21.8049 35.27 21.8049 35.038V27.874C21.8049 27.642 21.8729 27.466 22.0089 27.346C22.1529 27.226 22.3329 27.166 22.5489 27.166C22.7649 27.166 22.9449 27.226 23.0889 27.346C23.2329 27.466 23.3049 27.642 23.3049 27.874V35.038C23.3049 35.27 23.2329 35.45 23.0889 35.578C22.9449 35.698 22.7649 35.758 22.5489 35.758ZM27.5278 35.782C26.9278 35.782 26.3998 35.658 25.9438 35.41C25.4958 35.162 25.1478 34.806 24.8998 34.342C24.6518 33.878 24.5278 33.338 24.5278 32.722C24.5278 32.106 24.6518 31.57 24.8998 31.114C25.1478 30.65 25.4958 30.294 25.9438 30.046C26.3998 29.798 26.9278 29.674 27.5278 29.674C28.1278 29.674 28.6518 29.798 29.0998 30.046C29.5558 30.294 29.9038 30.65 30.1438 31.114C30.3918 31.57 30.5158 32.106 30.5158 32.722C30.5158 33.338 30.3918 33.878 30.1438 34.342C29.9038 34.806 29.5558 35.162 29.0998 35.41C28.6518 35.658 28.1278 35.782 27.5278 35.782ZM27.5158 34.618C28.0038 34.618 28.3758 34.458 28.6318 34.138C28.8878 33.818 29.0158 33.346 29.0158 32.722C29.0158 32.106 28.8878 31.638 28.6318 31.318C28.3758 30.99 28.0078 30.826 27.5278 30.826C27.0478 30.826 26.6758 30.99 26.4118 31.318C26.1558 31.638 26.0278 32.106 26.0278 32.722C26.0278 33.346 26.1558 33.818 26.4118 34.138C26.6678 34.458 27.0358 34.618 27.5158 34.618ZM35.0301 29.698C35.2381 29.682 35.4021 29.726 35.5221 29.83C35.6421 29.934 35.7021 30.09 35.7021 30.298C35.7021 30.514 35.6501 30.674 35.5461 30.778C35.4421 30.882 35.2541 30.95 34.9821 30.982L34.6221 31.018C34.1501 31.066 33.8021 31.226 33.5781 31.498C33.3621 31.77 33.2541 32.11 33.2541 32.518V35.038C33.2541 35.27 33.1821 35.45 33.0381 35.578C32.8941 35.698 32.7141 35.758 32.4981 35.758C32.2821 35.758 32.1021 35.698 31.9581 35.578C31.8221 35.45 31.7541 35.27 31.7541 35.038V30.394C31.7541 30.17 31.8221 29.998 31.9581 29.878C32.1021 29.758 32.2781 29.698 32.4861 29.698C32.6941 29.698 32.8621 29.758 32.9901 29.878C33.1181 29.99 33.1821 30.154 33.1821 30.37V30.85C33.3341 30.498 33.5581 30.226 33.8541 30.034C34.1581 29.842 34.4941 29.734 34.8621 29.71L35.0301 29.698ZM40.8747 34.078C41.0107 34.078 41.1187 34.13 41.1987 34.234C41.2867 34.338 41.3307 34.478 41.3307 34.654C41.3307 34.902 41.1827 35.11 40.8867 35.278C40.6147 35.43 40.3067 35.554 39.9627 35.65C39.6187 35.738 39.2907 35.782 38.9787 35.782C38.0347 35.782 37.2867 35.51 36.7347 34.966C36.1827 34.422 35.9067 33.678 35.9067 32.734C35.9067 32.134 36.0267 31.602 36.2667 31.138C36.5067 30.674 36.8427 30.314 37.2747 30.058C37.7147 29.802 38.2107 29.674 38.7627 29.674C39.2907 29.674 39.7507 29.79 40.1427 30.022C40.5347 30.254 40.8387 30.582 41.0547 31.006C41.2707 31.43 41.3787 31.93 41.3787 32.506C41.3787 32.85 41.2267 33.022 40.9227 33.022H37.3827C37.4307 33.574 37.5867 33.982 37.8507 34.246C38.1147 34.502 38.4987 34.63 39.0027 34.63C39.2587 34.63 39.4827 34.598 39.6747 34.534C39.8747 34.47 40.0987 34.382 40.3467 34.27C40.5867 34.142 40.7627 34.078 40.8747 34.078ZM38.7987 30.73C38.3907 30.73 38.0627 30.858 37.8147 31.114C37.5747 31.37 37.4307 31.738 37.3827 32.218H40.0947C40.0787 31.73 39.9587 31.362 39.7347 31.114C39.5107 30.858 39.1987 30.73 38.7987 30.73Z" fill="#181725"/>
</svg>
