<svg width="40" height="40" viewBox="0 0 40 40" fill="none" xmlns="http://www.w3.org/2000/svg">
<rect x="0.5" y="0.5" width="39" height="39" rx="9.5" fill="white" stroke="#F1F4F7"/>
<path fill-rule="evenodd" clip-rule="evenodd" d="M26.5004 20.0001C26.5004 19.3929 26.9932 18.9001 27.6004 18.9001C28.2076 18.9001 28.7004 19.3929 28.7004 20.0001C28.7004 20.6073 28.2076 21.1001 27.6004 21.1001C26.9932 21.1001 26.5004 20.6073 26.5004 20.0001ZM27.6004 23.3001C29.4198 23.3001 30.9004 21.8195 30.9004 20.0001C30.9004 18.1807 29.4198 16.7001 27.6004 16.7001C26.1682 16.7001 24.9593 17.623 24.5039 18.9001H10.0004C9.39209 18.9001 8.90039 19.3918 8.90039 20.0001C8.90039 20.6084 9.39209 21.1001 10.0004 21.1001H24.5039C24.9593 22.3772 26.1682 23.3001 27.6004 23.3001ZM13.3004 13.4001C13.3004 12.7929 13.7932 12.3001 14.4004 12.3001C15.0076 12.3001 15.5004 12.7929 15.5004 13.4001C15.5004 14.0073 15.0076 14.5001 14.4004 14.5001C13.7932 14.5001 13.3004 14.0073 13.3004 13.4001ZM17.4969 14.5001H29.8004C30.4087 14.5001 30.9004 14.0084 30.9004 13.4001C30.9004 12.7918 30.4087 12.3001 29.8004 12.3001H17.4969C17.0415 11.023 15.8326 10.1001 14.4004 10.1001C12.9682 10.1001 11.7593 11.023 11.3039 12.3001H10.0004C9.39209 12.3001 8.90039 12.7918 8.90039 13.4001C8.90039 14.0084 9.39209 14.5001 10.0004 14.5001H11.3039C11.7593 15.7772 12.9682 16.7001 14.4004 16.7001C15.8326 16.7001 17.0415 15.7772 17.4969 14.5001ZM17.7004 26.6001C17.7004 25.9929 18.1932 25.5001 18.8004 25.5001C19.4076 25.5001 19.9004 25.9929 19.9004 26.6001C19.9004 27.2073 19.4076 27.7001 18.8004 27.7001C18.1932 27.7001 17.7004 27.2073 17.7004 26.6001ZM18.8004 29.9001C20.2326 29.9001 21.4415 28.9772 21.8969 27.7001H29.8004C30.4087 27.7001 30.9004 27.2084 30.9004 26.6001C30.9004 25.9918 30.4087 25.5001 29.8004 25.5001H21.8969C21.4415 24.223 20.2326 23.3001 18.8004 23.3001C17.3682 23.3001 16.1593 24.223 15.7039 25.5001H10.0004C9.39209 25.5001 8.90039 25.9918 8.90039 26.6001C8.90039 27.2084 9.39209 27.7001 10.0004 27.7001H15.7039C16.1593 28.9772 17.3682 29.9001 18.8004 29.9001Z" fill="#222B45"/>
</svg>
