<svg width="56" height="56" viewBox="0 0 56 56" fill="none" xmlns="http://www.w3.org/2000/svg">
<path d="M17.6802 35.9209C15.4525 35.9209 12.1569 37.2239 11.1627 37.6276C10.9786 37.701 10.8682 37.8846 10.8682 38.0681V49.7949C10.8682 50.0335 11.0523 50.2354 11.2916 50.2721C12.8565 50.474 18.6191 51.3732 24.4922 54.3462C26.8487 55.5391 30.6598 55.0803 33.6055 54.3462C36.3855 53.6488 52.1452 47.556 53.8758 46.877C53.9863 46.8403 54.0599 46.7669 54.1152 46.6568C54.4097 46.1246 55.3119 44.271 54.6675 42.8579C53.8758 41.1145 51.8875 40.7291 51.3904 40.674C51.3167 40.6557 51.2431 40.674 51.1694 40.6924L40.1966 44.7115C39.7547 44.8766 39.3497 44.3628 39.6443 43.9774C40.1782 43.2617 40.6937 42.4358 40.6937 41.8486C40.6937 40.4538 40.2334 39.3344 39.2208 38.8205C37.8032 38.1048 36.8458 38.1782 35.2625 38.1782H30.402C29.9602 38.1782 29.5367 38.1231 29.1133 38.013C27.0697 37.5359 20.6075 35.9209 17.6802 35.9209Z" fill="#FFE0BF"/>
<path d="M0 36.4737C0 35.6632 0.663158 35 1.47368 35H9.76316C10.5737 35 11.2368 35.6632 11.2368 36.4737V51.3947C11.2368 52.2053 10.5737 52.8684 9.76316 52.8684H1.47368C0.663158 52.8684 0 52.2053 0 51.3947V36.4737Z" fill="#E2E4F1"/>
<path d="M55.735 42.634C55.3301 41.531 54.5205 40.6486 53.4532 40.1522C52.3859 39.6558 51.1899 39.6007 50.0674 40.0051L41.4741 43.1488C41.6765 42.6524 41.7869 42.1009 41.7869 41.5126C41.7869 39.0859 39.7996 37.1004 37.3706 37.1004H29.8629C29.8261 37.1004 29.7893 37.1004 29.7341 37.082C29.1453 36.9717 23.9194 36.0341 21.4904 35.2804C16.4853 33.7177 10.6153 36.5857 10.3577 36.696C9.98968 36.8798 9.84247 37.321 10.0265 37.6887C10.2105 38.0564 10.6521 38.2035 11.0201 38.0196C11.0754 38.0012 16.5957 35.2988 21.0488 36.6776C23.5145 37.4497 28.5012 38.3505 29.4765 38.516C29.6053 38.5344 29.7341 38.5528 29.8629 38.5528H37.3706C38.9899 38.5528 40.3148 39.8764 40.3148 41.4942C40.3148 43.112 38.9899 44.4357 37.3706 44.4357H25.4099C25.005 44.4357 24.6738 44.7666 24.6738 45.171C24.6738 45.5755 25.005 45.9064 25.4099 45.9064H37.3706C37.941 45.9064 38.4931 45.7961 38.9899 45.5939L50.5642 41.3471C51.3003 41.0714 52.1099 41.1082 52.8092 41.4391C53.5268 41.77 54.0605 42.3583 54.3365 43.0936C54.8885 44.6195 54.1157 46.3109 52.5884 46.8624L36.7266 52.6901L36.6714 52.7085C36.3401 52.8372 28.2804 55.9625 23.3673 53.26C17.9574 50.2818 11.5722 49.6935 11.2962 49.6751C10.8913 49.6384 10.5417 49.9325 10.5049 50.337C10.4681 50.7414 10.7625 51.0907 11.1674 51.1275C11.2226 51.1275 17.5158 51.6974 22.6497 54.5285C24.1954 55.3742 26.1091 55.8154 28.3356 55.8154C29.4397 55.8154 30.6174 55.7051 31.8871 55.5029C34.7392 55.0249 36.9658 54.1609 37.205 54.0689L53.1036 48.2412C55.3853 47.4507 56.563 44.9137 55.735 42.634Z" fill="#F2D0AC"/>
<path d="M9.76316 52.8684H1.47368C0.663158 52.8684 0 52.2053 0 51.3947V36.4737C0 35.6632 0.663158 35 1.47368 35H9.76316C10.5737 35 11.2368 35.6632 11.2368 36.4737V51.3947C11.2368 52.2053 10.5737 52.8684 9.76316 52.8684ZM1.47368 36.4737V51.3947H9.76316V36.4737H1.47368Z" fill="#CFD1E2"/>
<path d="M27.9075 28C35.6904 28 41.9996 21.732 41.9996 14C41.9996 6.26801 35.6904 0 27.9075 0C20.1247 0 13.8154 6.26801 13.8154 14C13.8154 21.732 20.1247 28 27.9075 28Z" fill="white"/>
<path d="M27.9075 28C20.1339 28 13.8154 21.7229 13.8154 14C13.8154 6.27712 20.1339 0 27.9075 0C35.6812 0 41.9996 6.27712 41.9996 14C41.9996 21.7229 35.6812 28 27.9075 28ZM27.9075 1.46405C20.9444 1.46405 15.2891 7.08235 15.2891 14C15.2891 20.9176 20.9444 26.5359 27.9075 26.5359C34.8707 26.5359 40.526 20.9176 40.526 14C40.526 7.08235 34.8707 1.46405 27.9075 1.46405Z" fill="#F0F0F0"/>
<path fill-rule="evenodd" clip-rule="evenodd" d="M27.9082 6.63184C26.858 6.63184 26.0078 7.48199 26.0078 8.53218V12.0078H22.5322C21.482 12.0078 20.6318 12.858 20.6318 13.9082C20.6318 14.9583 21.482 15.8085 22.5322 15.8085H26.0078V19.2841C26.0078 20.3343 26.858 21.1845 27.9082 21.1845C28.9583 21.1845 29.8085 20.3343 29.8085 19.2841V15.8085H33.2841C34.3343 15.8085 35.1845 14.9583 35.1845 13.9082C35.1845 12.858 34.3343 12.0078 33.2841 12.0078H29.8085V8.53218C29.8085 7.48199 28.9583 6.63184 27.9082 6.63184Z" fill="#FF624E"/>
<path d="M33.2659 10.7871H31.0281V8.5493C31.0281 6.78393 29.5859 5.3418 27.8206 5.3418C26.0552 5.3418 24.6131 6.78393 24.6131 8.5493V10.7871H22.5493C20.7839 10.7871 19.3418 12.2292 19.3418 13.9946C19.3418 15.76 20.7839 17.2021 22.5493 17.2021H24.6131V19.2659C24.6131 21.0312 26.0552 22.4734 27.8206 22.4734C29.5859 22.4734 31.0281 21.0312 31.0281 19.2659V17.2021H33.2659C35.0312 17.2021 36.4734 15.76 36.4734 13.9946C36.4734 12.2044 35.0312 10.7871 33.2659 10.7871ZM33.2659 15.213H30.0335C29.4865 15.213 29.0389 15.6605 29.0389 16.2075V19.2659C29.0389 19.9372 28.4919 20.4842 27.8206 20.4842C27.1492 20.4842 26.6022 19.9372 26.6022 19.2659V16.2821C26.6022 16.2573 26.6022 16.2573 26.6022 16.2324C26.6022 16.2075 26.6022 16.2075 26.6022 16.1827C26.6022 15.6357 26.1546 15.1881 25.6076 15.1881H22.5493C21.878 15.1881 21.3309 14.6411 21.3309 13.9697C21.3309 13.2984 21.878 12.7514 22.5493 12.7514H25.6076C26.1546 12.7514 26.6022 12.3038 26.6022 11.7568V8.52444C26.6022 7.8531 27.1492 7.30608 27.8206 7.30608C28.4919 7.30608 29.0389 7.8531 29.0389 8.52444V11.7568C29.0389 12.3038 29.4865 12.7514 30.0335 12.7514H33.2659C33.9372 12.7514 34.4842 13.2984 34.4842 13.9697C34.4842 14.666 33.9372 15.213 33.2659 15.213Z" fill="#CF422F"/>
</svg>
