<svg width="27" height="43" viewBox="0 0 27 43" fill="none" xmlns="http://www.w3.org/2000/svg">
<path d="M8.30574 30.1665C8.53774 30.1665 8.72174 30.2385 8.85774 30.3825C8.99374 30.5185 9.06174 30.7025 9.06174 30.9345V37.9785C9.06174 38.2105 8.98974 38.3985 8.84574 38.5425C8.70974 38.6865 8.52974 38.7585 8.30574 38.7585C8.07374 38.7585 7.88974 38.6865 7.75374 38.5425C7.61774 38.3985 7.54974 38.2105 7.54974 37.9785V35.0145H3.21774V37.9785C3.21774 38.2105 3.14574 38.3985 3.00174 38.5425C2.86574 38.6865 2.68174 38.7585 2.44974 38.7585C2.22574 38.7585 2.04174 38.6865 1.89774 38.5425C1.76174 38.3985 1.69374 38.2105 1.69374 37.9785V30.9345C1.69374 30.7025 1.76174 30.5185 1.89774 30.3825C2.03374 30.2385 2.21774 30.1665 2.44974 30.1665C2.68174 30.1665 2.86574 30.2385 3.00174 30.3825C3.14574 30.5185 3.21774 30.7025 3.21774 30.9345V33.7665H7.54974V30.9345C7.54974 30.7025 7.61774 30.5185 7.75374 30.3825C7.88974 30.2385 8.07374 30.1665 8.30574 30.1665ZM15.3932 37.0785C15.5292 37.0785 15.6372 37.1305 15.7172 37.2345C15.8052 37.3385 15.8492 37.4785 15.8492 37.6545C15.8492 37.9025 15.7012 38.1105 15.4052 38.2785C15.1332 38.4305 14.8252 38.5545 14.4812 38.6505C14.1372 38.7385 13.8092 38.7825 13.4972 38.7825C12.5532 38.7825 11.8052 38.5105 11.2532 37.9665C10.7012 37.4225 10.4252 36.6785 10.4252 35.7345C10.4252 35.1345 10.5452 34.6025 10.7852 34.1385C11.0252 33.6745 11.3612 33.3145 11.7932 33.0585C12.2332 32.8025 12.7292 32.6745 13.2812 32.6745C13.8092 32.6745 14.2692 32.7905 14.6612 33.0225C15.0532 33.2545 15.3572 33.5825 15.5732 34.0065C15.7892 34.4305 15.8972 34.9305 15.8972 35.5065C15.8972 35.8505 15.7452 36.0225 15.4412 36.0225H11.9012C11.9492 36.5745 12.1052 36.9825 12.3692 37.2465C12.6332 37.5025 13.0172 37.6305 13.5212 37.6305C13.7772 37.6305 14.0012 37.5985 14.1932 37.5345C14.3932 37.4705 14.6172 37.3825 14.8652 37.2705C15.1052 37.1425 15.2812 37.0785 15.3932 37.0785ZM13.3172 33.7305C12.9092 33.7305 12.5812 33.8585 12.3332 34.1145C12.0932 34.3705 11.9492 34.7385 11.9012 35.2185H14.6132C14.5972 34.7305 14.4772 34.3625 14.2532 34.1145C14.0292 33.8585 13.7172 33.7305 13.3172 33.7305ZM17.8682 38.7585C17.6522 38.7585 17.4722 38.6985 17.3282 38.5785C17.1922 38.4505 17.1242 38.2705 17.1242 38.0385V30.8745C17.1242 30.6425 17.1922 30.4665 17.3282 30.3465C17.4722 30.2265 17.6522 30.1665 17.8682 30.1665C18.0842 30.1665 18.2642 30.2265 18.4082 30.3465C18.5522 30.4665 18.6242 30.6425 18.6242 30.8745V38.0385C18.6242 38.2705 18.5522 38.4505 18.4082 38.5785C18.2642 38.6985 18.0842 38.7585 17.8682 38.7585ZM23.5431 32.6745C24.0471 32.6745 24.4951 32.8025 24.8871 33.0585C25.2871 33.3145 25.5951 33.6785 25.8111 34.1505C26.0351 34.6145 26.1471 35.1505 26.1471 35.7585C26.1471 36.3665 26.0351 36.8985 25.8111 37.3545C25.5951 37.8105 25.2911 38.1625 24.8991 38.4105C24.5071 38.6585 24.0551 38.7825 23.5431 38.7825C23.1271 38.7825 22.7551 38.6945 22.4271 38.5185C22.0991 38.3425 21.8471 38.0985 21.6711 37.7865V40.2345C21.6711 40.4425 21.6031 40.6065 21.4671 40.7265C21.3311 40.8465 21.1511 40.9065 20.9271 40.9065C20.7031 40.9065 20.5191 40.8425 20.3751 40.7145C20.2391 40.5865 20.1711 40.4185 20.1711 40.2105V33.4065C20.1711 33.1905 20.2351 33.0185 20.3631 32.8905C20.4991 32.7625 20.6791 32.6985 20.9031 32.6985C21.1271 32.6985 21.3071 32.7625 21.4431 32.8905C21.5791 33.0185 21.6471 33.1905 21.6471 33.4065V33.7065C21.8231 33.3785 22.0751 33.1265 22.4031 32.9505C22.7391 32.7665 23.1191 32.6745 23.5431 32.6745ZM23.1471 37.6185C23.6191 37.6185 23.9871 37.4585 24.2511 37.1385C24.5151 36.8105 24.6471 36.3505 24.6471 35.7585C24.6471 35.1505 24.5151 34.6785 24.2511 34.3425C23.9871 34.0065 23.6191 33.8385 23.1471 33.8385C22.6671 33.8385 22.2951 34.0025 22.0311 34.3305C21.7751 34.6585 21.6471 35.1265 21.6471 35.7345C21.6471 36.3345 21.7751 36.7985 22.0311 37.1265C22.2951 37.4545 22.6671 37.6185 23.1471 37.6185Z" fill="#181725"/>
<path d="M14 22C19.5228 22 24 17.5228 24 12C24 6.47715 19.5228 2 14 2C8.47715 2 4 6.47715 4 12C4 17.5228 8.47715 22 14 22Z" stroke="black" stroke-width="2" stroke-linecap="round" stroke-linejoin="round"/>
<path d="M11.0898 9.00008C11.3249 8.33175 11.789 7.76819 12.3998 7.40921C13.0106 7.05024 13.7287 6.91902 14.427 7.03879C15.1253 7.15857 15.7587 7.52161 16.2149 8.06361C16.6712 8.60561 16.9209 9.2916 16.9198 10.0001C16.9198 12.0001 13.9198 13.0001 13.9198 13.0001" stroke="black" stroke-width="2" stroke-linecap="round" stroke-linejoin="round"/>
<path d="M14 17H14.01" stroke="black" stroke-width="2" stroke-linecap="round" stroke-linejoin="round"/>
</svg>
