<svg width="33" height="42" viewBox="0 0 33 42" fill="none" xmlns="http://www.w3.org/2000/svg">
<path d="M7.5533 29.1665C7.7853 29.1665 7.9693 29.2385 8.1053 29.3825C8.2413 29.5185 8.3093 29.7025 8.3093 29.9345V36.9785C8.3093 37.2105 8.2373 37.3985 8.0933 37.5425C7.9573 37.6865 7.7773 37.7585 7.5533 37.7585C7.3213 37.7585 7.1373 37.6865 7.0013 37.5425C6.8653 37.3985 6.7973 37.2105 6.7973 36.9785V34.0145H2.4653V36.9785C2.4653 37.2105 2.3933 37.3985 2.2493 37.5425C2.1133 37.6865 1.9293 37.7585 1.6973 37.7585C1.4733 37.7585 1.2893 37.6865 1.1453 37.5425C1.0093 37.3985 0.941297 37.2105 0.941297 36.9785V29.9345C0.941297 29.7025 1.0093 29.5185 1.1453 29.3825C1.2813 29.2385 1.4653 29.1665 1.6973 29.1665C1.9293 29.1665 2.1133 29.2385 2.2493 29.3825C2.3933 29.5185 2.4653 29.7025 2.4653 29.9345V32.7665H6.7973V29.9345C6.7973 29.7025 6.8653 29.5185 7.0013 29.3825C7.1373 29.2385 7.3213 29.1665 7.5533 29.1665ZM12.6728 37.7825C12.0728 37.7825 11.5448 37.6585 11.0888 37.4105C10.6408 37.1625 10.2928 36.8065 10.0448 36.3425C9.7968 35.8785 9.6728 35.3385 9.6728 34.7225C9.6728 34.1065 9.7968 33.5705 10.0448 33.1145C10.2928 32.6505 10.6408 32.2945 11.0888 32.0465C11.5448 31.7985 12.0728 31.6745 12.6728 31.6745C13.2728 31.6745 13.7968 31.7985 14.2448 32.0465C14.7008 32.2945 15.0488 32.6505 15.2888 33.1145C15.5368 33.5705 15.6608 34.1065 15.6608 34.7225C15.6608 35.3385 15.5368 35.8785 15.2888 36.3425C15.0488 36.8065 14.7008 37.1625 14.2448 37.4105C13.7968 37.6585 13.2728 37.7825 12.6728 37.7825ZM12.6608 36.6185C13.1488 36.6185 13.5208 36.4585 13.7768 36.1385C14.0328 35.8185 14.1608 35.3465 14.1608 34.7225C14.1608 34.1065 14.0328 33.6385 13.7768 33.3185C13.5208 32.9905 13.1528 32.8265 12.6728 32.8265C12.1928 32.8265 11.8208 32.9905 11.5568 33.3185C11.3008 33.6385 11.1728 34.1065 11.1728 34.7225C11.1728 35.3465 11.3008 35.8185 11.5568 36.1385C11.8128 36.4585 12.1808 36.6185 12.6608 36.6185ZM23.8711 31.6745C24.5111 31.6745 24.9991 31.8665 25.3351 32.2505C25.6791 32.6265 25.8511 33.2385 25.8511 34.0865V37.0385C25.8511 37.2705 25.7791 37.4505 25.6351 37.5785C25.4991 37.6985 25.3191 37.7585 25.0951 37.7585C24.8791 37.7585 24.6991 37.6985 24.5551 37.5785C24.4191 37.4505 24.3511 37.2705 24.3511 37.0385V34.0865C24.3511 33.6465 24.2711 33.3345 24.1111 33.1505C23.9591 32.9585 23.7231 32.8625 23.4031 32.8625C23.0111 32.8625 22.6991 32.9985 22.4671 33.2705C22.2351 33.5345 22.1191 33.8985 22.1191 34.3625V37.0385C22.1191 37.2705 22.0471 37.4505 21.9031 37.5785C21.7671 37.6985 21.5911 37.7585 21.3751 37.7585C21.1591 37.7585 20.9791 37.6985 20.8351 37.5785C20.6911 37.4505 20.6191 37.2705 20.6191 37.0385V34.0865C20.6191 33.6465 20.5391 33.3345 20.3791 33.1505C20.2271 32.9585 19.9911 32.8625 19.6711 32.8625C19.2791 32.8625 18.9671 32.9985 18.7351 33.2705C18.5111 33.5345 18.3991 33.8985 18.3991 34.3625V37.0385C18.3991 37.2705 18.3271 37.4505 18.1831 37.5785C18.0391 37.6985 17.8591 37.7585 17.6431 37.7585C17.4271 37.7585 17.2471 37.6985 17.1031 37.5785C16.9671 37.4505 16.8991 37.2705 16.8991 37.0385V32.3945C16.8991 32.1705 16.9711 31.9985 17.1151 31.8785C17.2591 31.7585 17.4391 31.6985 17.6551 31.6985C17.8631 31.6985 18.0311 31.7585 18.1591 31.8785C18.2951 31.9905 18.3631 32.1545 18.3631 32.3705V32.6585C18.5471 32.3385 18.7911 32.0945 19.0951 31.9265C19.4071 31.7585 19.7631 31.6745 20.1631 31.6745C21.0431 31.6745 21.6311 32.0425 21.9271 32.7785C22.1031 32.4425 22.3631 32.1745 22.7071 31.9745C23.0511 31.7745 23.4391 31.6745 23.8711 31.6745ZM32.0197 36.0785C32.1557 36.0785 32.2637 36.1305 32.3437 36.2345C32.4317 36.3385 32.4757 36.4785 32.4757 36.6545C32.4757 36.9025 32.3277 37.1105 32.0317 37.2785C31.7597 37.4305 31.4517 37.5545 31.1077 37.6505C30.7637 37.7385 30.4357 37.7825 30.1237 37.7825C29.1797 37.7825 28.4317 37.5105 27.8797 36.9665C27.3277 36.4225 27.0517 35.6785 27.0517 34.7345C27.0517 34.1345 27.1717 33.6025 27.4117 33.1385C27.6517 32.6745 27.9877 32.3145 28.4197 32.0585C28.8597 31.8025 29.3557 31.6745 29.9077 31.6745C30.4357 31.6745 30.8957 31.7905 31.2877 32.0225C31.6797 32.2545 31.9837 32.5825 32.1997 33.0065C32.4157 33.4305 32.5237 33.9305 32.5237 34.5065C32.5237 34.8505 32.3717 35.0225 32.0677 35.0225H28.5277C28.5757 35.5745 28.7317 35.9825 28.9957 36.2465C29.2597 36.5025 29.6437 36.6305 30.1477 36.6305C30.4037 36.6305 30.6277 36.5985 30.8197 36.5345C31.0197 36.4705 31.2437 36.3825 31.4917 36.2705C31.7317 36.1425 31.9077 36.0785 32.0197 36.0785ZM29.9437 32.7305C29.5357 32.7305 29.2077 32.8585 28.9597 33.1145C28.7197 33.3705 28.5757 33.7385 28.5277 34.2185H31.2397C31.2237 33.7305 31.1037 33.3625 30.8797 33.1145C30.6557 32.8585 30.3437 32.7305 29.9437 32.7305Z" fill="#181725"/>
<path d="M7 9L16 2L25 9V20C25 20.5304 24.7893 21.0391 24.4142 21.4142C24.0391 21.7893 23.5304 22 23 22H9C8.46957 22 7.96086 21.7893 7.58579 21.4142C7.21071 21.0391 7 20.5304 7 20V9Z" stroke="black" stroke-width="2" stroke-linecap="round" stroke-linejoin="round"/>
<path d="M13 22V12H19V22" stroke="black" stroke-width="2" stroke-linecap="round" stroke-linejoin="round"/>
</svg>
