<svg width="13" height="19" viewBox="0 0 13 19" fill="none" xmlns="http://www.w3.org/2000/svg">
<path d="M4.29996 10.6773C4.62553 10.9691 5.05675 11.1467 5.52852 11.1467H6.75708C7.2105 11.1473 7.64811 10.9801 7.98564 10.6773H4.29996ZM4.29996 10.6773C3.96244 10.9801 3.52482 11.1473 3.0714 11.1467L4.29996 10.6773ZM3.73568 7.46098V7.41098H3.68568H1.84284C1.66666 7.41098 1.4977 7.48097 1.37312 7.60554C1.24855 7.73012 1.17856 7.89908 1.17856 8.07526V9.30382C1.17856 9.48 1.24855 9.64896 1.37312 9.77354C1.4977 9.89811 1.66666 9.9681 1.84284 9.9681H3.0714C3.24758 9.9681 3.41654 9.89811 3.54112 9.77354C3.66569 9.64896 3.73568 9.48 3.73568 9.30382V7.46098ZM1.84898 11.0967H1.79898V11.1467V17.268V17.318H1.84898H3.0714H3.1214V17.268V14.2181C3.1214 13.9055 3.24557 13.6057 3.46659 13.3847C3.68761 13.1637 3.98739 13.0395 4.29996 13.0395H5.52852C5.84109 13.0395 6.14086 13.1637 6.36189 13.3847C6.58291 13.6057 6.70708 13.9055 6.70708 14.2181V17.268V17.318H6.75708H10.4507H10.5007V17.268V11.1467V11.0967H10.4507H9.2142C8.75519 11.0967 8.33574 10.924 8.01901 10.6401L7.98562 10.6102L7.95225 10.6401C7.62392 10.9347 7.19822 11.0973 6.75715 11.0967H6.75708H5.52852C5.06951 11.0967 4.65006 10.924 4.33333 10.6401L4.29994 10.6102L4.26657 10.6401C3.93824 10.9347 3.51254 11.0973 3.07147 11.0967H3.0714H1.84898ZM0.618767 10.6144C0.444896 10.4523 0.304973 10.257 0.207342 10.0399C0.103282 9.80851 0.0496477 9.55761 0.0500018 9.30389V9.30382V8.07526C0.0500018 7.59977 0.23889 7.14375 0.575112 6.80753C0.911335 6.47131 1.36735 6.28242 1.84284 6.28242H10.4428C10.9182 6.28242 11.3743 6.47131 11.7105 6.80753C12.0467 7.14375 12.2356 7.59977 12.2356 8.07526V9.30382C12.2356 9.83095 12.0086 10.3054 11.6458 10.6335L11.6293 10.6484V10.6706V17.268C11.6293 17.5805 11.5051 17.8803 11.2841 18.1013C11.0631 18.3223 10.7633 18.4465 10.4507 18.4465H5.75764V18.4456L5.74835 18.4474C5.67587 18.4611 5.60227 18.468 5.52851 18.468H4.29996C4.22621 18.468 4.1526 18.4611 4.08012 18.4474L4.08029 18.4465H4.07083H1.8496C1.53702 18.4465 1.23725 18.3223 1.01623 18.1013C0.795208 17.8803 0.671039 17.5805 0.671039 17.268V10.6829V10.5622L0.618767 10.6144ZM5.57852 14.2181V14.1681H5.52852H4.29996H4.24996V14.2181V17.268V17.318H4.29996H5.52852V17.2686H5.57852V17.268V17.218V14.2181ZM7.42136 7.46098V7.41098H7.37136H4.91424H4.86424V7.46098V9.30382C4.86424 9.48 4.93423 9.64896 5.0588 9.77354C5.18338 9.89811 5.35234 9.9681 5.52852 9.9681H6.75708C6.93326 9.9681 7.10222 9.89811 7.22679 9.77354C7.35137 9.64896 7.42136 9.48 7.42136 9.30382V7.46098ZM8.59992 7.41098H8.54992V7.46098V9.30382C8.54992 9.48 8.6199 9.64896 8.74448 9.77354C8.86906 9.89811 9.03802 9.9681 9.2142 9.9681H10.4428C10.6189 9.9681 10.7879 9.89811 10.9125 9.77354C11.037 9.64896 11.107 9.48 11.107 9.30382V8.07526C11.107 7.89908 11.037 7.73012 10.9125 7.60554C10.7879 7.48097 10.6189 7.41098 10.4428 7.41098H8.59992ZM8.59992 13.0395H9.2142C9.36385 13.0395 9.50738 13.0989 9.6132 13.2048C9.71902 13.3106 9.77848 13.4541 9.77848 13.6038V15.4466C9.77848 15.5963 9.71902 15.7398 9.6132 15.8456C9.50738 15.9514 9.36385 16.0109 9.2142 16.0109H8.59992C8.45026 16.0109 8.30673 15.9514 8.20091 15.8456C8.09509 15.7398 8.03564 15.5963 8.03564 15.4466V13.6038C8.03564 13.4541 8.09509 13.3106 8.20091 13.2048C8.30673 13.0989 8.45026 13.0395 8.59992 13.0395Z" fill="#6B779A" stroke="white" stroke-width="0.1"/>
<path d="M4.03165 4.8568H4.76166V5.58851C4.76166 6.16329 5.22895 6.64468 5.81589 6.64468C6.39 6.64468 6.87011 6.17615 6.87011 5.58851V4.8568H7.66223C8.23634 4.8568 8.71646 4.38827 8.71648 3.80063L8.71644 3.79848C8.70403 3.22052 8.23864 2.74445 7.66223 2.74445H6.85882V1.95617C6.85882 1.38139 6.39154 0.9 5.80459 0.9C5.23048 0.9 4.75037 1.36853 4.75037 1.95617V2.75011H4.026C3.45189 2.75011 2.97178 3.21865 2.97175 3.80629L2.9718 3.80846C2.98423 4.38151 3.45034 4.8568 4.03165 4.8568ZM4.03165 3.34616H5.06493C5.14703 3.34616 5.22528 3.31347 5.27952 3.25188C5.32602 3.20413 5.36819 3.13026 5.36819 3.04248V1.94486C5.36819 1.69936 5.56708 1.49605 5.81589 1.49605C6.06039 1.49605 6.26358 1.69504 6.26358 1.94486V3.04248C6.26358 3.21067 6.3985 3.34616 6.56685 3.34616H7.66223C7.90615 3.34616 8.10895 3.5442 8.10992 3.79317C8.09958 4.05324 7.89795 4.24944 7.65658 4.24944H6.5612C6.4791 4.24944 6.40085 4.28213 6.34661 4.34372C6.30011 4.39147 6.25793 4.46534 6.25793 4.55312V5.58851C6.25793 5.83401 6.05905 6.03732 5.81024 6.03732C5.56573 6.03732 5.36255 5.83832 5.36255 5.58851V4.57575V4.57572V4.57569V4.57565V4.57562V4.57559V4.57555V4.57552V4.57549V4.57545V4.57542V4.57539V4.57536V4.57532V4.57529V4.57526V4.57522V4.57519V4.57516V4.57512V4.57509V4.57506V4.57502V4.57499V4.57496V4.57492V4.57489V4.57486V4.57482V4.57479V4.57476V4.57473V4.57469V4.57466V4.57463V4.57459V4.57456V4.57453V4.57449V4.57446V4.57443V4.57439V4.57436V4.57433V4.57429V4.57426V4.57423V4.57419V4.57416V4.57413V4.5741V4.57406V4.57403V4.574V4.57396V4.57393V4.5739V4.57386V4.57383V4.5738V4.57376V4.57373V4.5737V4.57366V4.57363V4.5736V4.57357V4.57353V4.5735V4.57347V4.57343V4.5734V4.57337V4.57333V4.5733V4.57327V4.57323V4.5732V4.57317V4.57313V4.5731V4.57307V4.57303V4.573V4.57297V4.57294V4.5729V4.57287V4.57284V4.5728V4.57277V4.57274V4.5727V4.57267V4.57264V4.5726V4.57257V4.57254V4.5725V4.57247V4.57244V4.5724V4.57237V4.57234V4.57231V4.57227V4.57224V4.57221V4.57217V4.57214V4.57211V4.57207V4.57204V4.57201V4.57197V4.57194V4.57191V4.57187V4.57184V4.57181V4.57177V4.57174V4.57171V4.57168V4.57164V4.57161V4.57158V4.57154V4.57151V4.57148V4.57144V4.57141V4.57138V4.57134V4.57131V4.57128V4.57124V4.57121V4.57118V4.57114V4.57111V4.57108V4.57105V4.57101V4.57098V4.57095V4.57091V4.57088V4.57085V4.57081V4.57078V4.57075V4.57071V4.57068V4.57065V4.57061V4.57058V4.57055V4.57052V4.57048V4.57045V4.57042V4.57038V4.57035V4.57032V4.57028V4.57025V4.57022V4.57018V4.57015V4.57012V4.57008V4.57005V4.57002V4.56998V4.56995V4.56992V4.56989V4.56985V4.56982V4.56979V4.56975V4.56972V4.56969V4.56965V4.56962V4.56959V4.56955V4.56952V4.56949V4.56945V4.56942V4.56939V4.56935V4.56932V4.56929V4.56926V4.56922V4.56919V4.56916V4.56912V4.56909V4.56906V4.56902V4.56899V4.56896V4.56892V4.56889V4.56886V4.56882V4.56879V4.56876V4.56872V4.56869V4.56866V4.56863V4.56859V4.56856V4.56853V4.56849V4.56846V4.56843V4.56839V4.56836V4.56833V4.56829V4.56826V4.56823V4.56819V4.56816V4.56813V4.56809V4.56806V4.56803V4.568V4.56796V4.56793V4.5679V4.56786V4.56783V4.5678V4.56776V4.56773V4.5677V4.56766V4.56763V4.5676V4.56756V4.56753V4.5675V4.56747V4.56743V4.5674V4.56737V4.56733V4.5673V4.56727V4.56723V4.5672V4.56717V4.56713V4.5671V4.56707V4.56703V4.567V4.56697V4.56693V4.5669V4.56687V4.56684V4.5668V4.56677V4.56674V4.5667V4.56667V4.56664V4.5666V4.56657V4.56654V4.5665V4.56647V4.56644V4.5664V4.56637V4.56634V4.5663V4.56627V4.56624V4.56621V4.56617V4.56614V4.56611V4.56607V4.56604V4.56601V4.56597V4.56594V4.56591V4.56587V4.56584V4.56581V4.56577V4.56574V4.56571V4.56568V4.56564V4.56561V4.56558V4.56554V4.56551V4.56548V4.56544V4.56541V4.56538V4.56534V4.56531V4.56528V4.56524V4.56521V4.56518V4.56514V4.56511V4.56508V4.56505V4.56501V4.56498V4.56495V4.56491V4.56488V4.56485V4.56481V4.56478V4.56475V4.56471V4.56468V4.56465V4.56461V4.56458V4.56455V4.56451V4.56448V4.56445V4.56442V4.56438V4.56435V4.56432V4.56428V4.56425V4.56422V4.56418V4.56415V4.56412V4.56408V4.56405V4.56402V4.56398V4.56395V4.56392V4.56388V4.56385V4.56382V4.56379V4.56375V4.56372V4.56369V4.56365V4.56362V4.56359V4.56355V4.56352V4.56349V4.56345V4.56342V4.56339V4.56335V4.56332V4.56329V4.56326V4.56322V4.56319V4.56316V4.56312V4.56309V4.56306V4.56302V4.56299V4.56296V4.56292V4.56289V4.56286V4.56282V4.56279V4.56276V4.56272V4.56269V4.56266V4.56263V4.56259V4.56256V4.56253V4.56249V4.56246V4.56243V4.56239V4.56236V4.56233V4.56229V4.56226V4.56223V4.56219V4.56216V4.56213V4.56209V4.56206V4.56203V4.562V4.56196V4.56193V4.5619V4.56186V4.56183V4.5618V4.56176V4.56173V4.5617V4.56166V4.56163V4.5616V4.56156V4.56153V4.5615V4.56146V4.56143V4.5614V4.56137V4.56133V4.5613V4.56127V4.56123V4.5612V4.56117V4.56113V4.5611V4.56107V4.56103V4.561V4.56097V4.56093V4.5609V4.56087V4.56084V4.5608V4.56077V4.56074V4.5607V4.56067V4.56064V4.5606V4.56057V4.56054V4.5605V4.56047V4.56044V4.5604V4.56037V4.56034V4.5603V4.56027V4.56024V4.56021V4.56017V4.56014V4.56011V4.56007V4.56004V4.56001V4.55997V4.55994V4.55991V4.55987V4.55984V4.55981V4.55977V4.55974V4.55971V4.55967V4.55964V4.55961V4.55958V4.55954V4.55951V4.55948V4.55944V4.55941V4.55938V4.55934V4.55931V4.55928V4.55924V4.55921V4.55918V4.55914V4.55911V4.55908V4.55904V4.55901V4.55898V4.55895V4.55891V4.55888V4.55885V4.55881V4.55878V4.55875V4.55871V4.55868V4.55865V4.55861V4.55858V4.55855V4.55851V4.55848V4.55845V4.55841V4.55838V4.55835V4.55832V4.55828V4.55825V4.55822V4.55818V4.55815V4.55812V4.55808V4.55805V4.55802V4.55798V4.55795V4.55792V4.55788V4.55785V4.55782V4.55779V4.55775V4.55772V4.55769V4.55765V4.55762V4.55759V4.55755V4.55752V4.55749V4.55745V4.55742V4.55739V4.55735V4.55732V4.55729V4.55725V4.55722V4.55719V4.55716V4.55712V4.55709V4.55706V4.55702V4.55699V4.55696V4.55692V4.55689V4.55686V4.55682V4.55679V4.55676V4.55672V4.55669V4.55666V4.55662V4.55659V4.55656V4.55653V4.55649V4.55646V4.55643V4.55639V4.55636V4.55633V4.55629V4.55626V4.55623V4.55619V4.55616V4.55613V4.55609V4.55606V4.55603V4.55599V4.55596V4.55593V4.5559V4.55586V4.55583V4.5558V4.55576V4.55573V4.5557V4.55566V4.55563V4.5556V4.55556V4.55553V4.5555V4.55546V4.55543V4.5554V4.55537V4.55533V4.5553V4.55527V4.55523V4.5552V4.55517V4.55513V4.5551V4.55507V4.55503V4.555V4.55497V4.55493V4.5549V4.55487V4.55483V4.5548V4.55477V4.55474V4.5547V4.55467V4.55464V4.5546V4.55457V4.55454V4.5545V4.55447V4.55444V4.5544V4.55437V4.55434V4.5543V4.55427V4.55424V4.5542V4.55417V4.55414V4.55411V4.55407V4.55404V4.55401V4.55397V4.55394V4.55391V4.55387V4.55384V4.55381V4.55377V4.55374V4.55371V4.55367V4.55364V4.55361V4.55357V4.55354V4.55351V4.55348V4.55344V4.55341V4.55338V4.55334V4.55331V4.55328V4.55324V4.55321V4.55318V4.55314V4.55311V4.55308V4.55304V4.55301V4.55298V4.55294V4.55291V4.55288V4.55285V4.55281V4.55278V4.55275V4.55271V4.55268V4.55265V4.55261V4.55258V4.55255V4.55251V4.55248V4.55245V4.55241V4.55238V4.55235V4.55231V4.55228V4.55225V4.55222V4.55218V4.55215V4.55212V4.55208V4.55205V4.55202V4.55198V4.55195V4.55192V4.55188V4.55185V4.55182V4.55178V4.55175V4.55172V4.55169V4.55165V4.55162V4.55159V4.55155V4.55152V4.55149V4.55145V4.55142V4.55139V4.55135V4.55132V4.55129V4.55125V4.55122V4.55119V4.55115V4.55112V4.55109V4.55106V4.55102V4.55099V4.55096V4.55092V4.55089V4.55086V4.55082V4.55079V4.55076V4.55072V4.55069V4.55066V4.55062V4.55059V4.55056V4.55052V4.55049V4.55046V4.55043V4.55039V4.55036V4.55033V4.55029V4.55026V4.55023V4.55019V4.55016V4.55013V4.55009V4.55006V4.55003V4.54999V4.54996V4.54993V4.5499V4.54986V4.54983V4.5498V4.54976V4.54973V4.5497V4.54966V4.54963V4.5496V4.54956V4.54953V4.5495V4.54946V4.54943V4.5494V4.54936V4.54933V4.5493V4.54927V4.54923V4.5492V4.54917V4.54913V4.5491V4.54907V4.54903V4.549V4.54897V4.54893V4.5489V4.54887V4.54883V4.5488V4.54877V4.54873V4.5487V4.54867V4.54864V4.5486V4.54857V4.54854V4.5485V4.54847V4.54844V4.5484V4.54837V4.54834V4.5483V4.54827V4.54824V4.5482V4.54817V4.54814V4.5481V4.54807V4.54804V4.54801V4.54797V4.54794V4.54791V4.54787V4.54784V4.54781V4.54777V4.54774V4.54771V4.54767V4.54764V4.54761V4.54757V4.54754V4.54751V4.54747V4.54744V4.54741V4.54738V4.54734V4.54731V4.54728V4.54724V4.54721V4.54718V4.54714V4.54711V4.54708V4.54704V4.54701V4.54698V4.54694V4.54691V4.54688V4.54684V4.54681V4.54678V4.54675V4.54671V4.54668V4.54665V4.54661V4.54658V4.54655V4.54651V4.54648V4.54645V4.54641V4.54638V4.54635V4.54631V4.54628V4.54625V4.54622V4.54618V4.54615V4.54612V4.54608V4.54605V4.54602V4.54598V4.54595V4.54592V4.54588V4.54585V4.54582V4.54578V4.54575V4.54572V4.54568V4.54565V4.54562V4.54559V4.54555V4.54552V4.54549V4.54545V4.54542V4.54539V4.54535V4.54532V4.54529V4.54525V4.54522V4.54519V4.54515V4.54512V4.54509V4.54505V4.54502V4.54499V4.54496V4.54492V4.54489V4.54486V4.54482V4.54479V4.54476V4.54472V4.54469V4.54466V4.54462V4.54459V4.54456V4.54452V4.54449V4.54446V4.54443V4.54439V4.54436V4.54433V4.54429V4.54426V4.54423V4.54419V4.54416V4.54413V4.54409V4.54406V4.54403V4.54399V4.54396V4.54393V4.54389V4.54386V4.54383V4.5438V4.54376V4.54373V4.5437V4.54366V4.54363V4.5436V4.54356V4.54353V4.5435V4.54346V4.54343V4.5434V4.54336V4.54333V4.5433V4.54326V4.54323V4.5432V4.54317V4.54313V4.5431V4.54307V4.54303V4.543V4.54297V4.54293V4.5429V4.54287V4.54283V4.5428V4.54277V4.54273V4.5427V4.54267V4.54263V4.5426V4.54257V4.54254V4.5425V4.54247V4.54244V4.5424V4.54237V4.54234V4.5423V4.54227V4.54224V4.5422V4.54217V4.54214V4.5421V4.54207V4.54204V4.542V4.54197V4.54194V4.54191V4.54187V4.54184V4.54181C5.36255 4.37361 5.22763 4.23812 5.05928 4.23812H4.03165C3.78715 4.23812 3.58396 4.03913 3.58396 3.78931C3.58396 3.55014 3.78217 3.34616 4.03165 3.34616Z" fill="#6B779A" stroke="#6B779A" stroke-width="0.2"/>
</svg>
