<svg width="50" height="50" viewBox="0 0 50 50" fill="none" xmlns="http://www.w3.org/2000/svg">
<rect width="50" height="50" rx="15" fill="#CBE8FF" fill-opacity="0.25"/>
<path d="M13.4736 13.5527H36.4473V34.7136H34.3624V36.4475H31.3727V34.7136H18.7057V36.4475H15.6766V34.7136H13.5523L13.4736 13.5527Z" fill="#E2E4F1"/>
<path d="M35.0263 15.0527H14.9736V33.1317H35.0263V15.0527Z" fill="#CBE8FF"/>
<path d="M23.2329 17.3464C23.737 17.3702 24.3434 17.7898 24.6978 18.0827C24.8947 18.2411 25.1625 18.249 25.3673 18.0986C25.509 17.9956 25.6508 17.8927 25.8004 17.7898C26.6747 17.2039 27.856 17.3385 28.5727 18.1065L28.5806 18.1144C28.6357 18.1698 28.6909 18.2411 28.746 18.3202C29.3052 19.1278 29.3209 20.1809 28.8405 21.036C28.3679 21.8752 27.5646 22.3819 26.3517 23.6171C25.9658 24.0208 25.5012 24.4721 25.2176 24.7413C25.0759 24.8759 24.8553 24.8759 24.7215 24.7413C24.1229 24.1554 22.532 22.5878 21.264 21.0676C20.6182 20.2917 20.5473 19.1674 21.1537 18.3519C21.2167 18.2727 21.2797 18.1936 21.3585 18.1144C21.9098 17.5523 22.4375 17.3068 23.2329 17.3464Z" fill="#FF624E"/>
<path d="M36.0557 13H13.9443C13.4249 13 13 13.4263 13 13.9474V34.1579C13 34.6789 13.4249 35.1053 13.9443 35.1053H15.3607V36.0526C15.3607 36.5737 15.7856 37 16.3049 37H18.1148C18.6341 37 19.059 36.5737 19.059 36.0526V35.1053H30.941V36.0526C30.941 36.5737 31.3659 37 31.8852 37H33.6951C34.2144 37 34.6393 36.5737 34.6393 36.0526V35.1053H36.0557C36.5751 35.1053 37 34.6789 37 34.1579V13.9474C37 13.4263 36.5751 13 36.0557 13ZM36.3705 34.1579C36.3705 34.3316 36.2289 34.4737 36.0557 34.4737H34.3246C34.1515 34.4737 34.0098 34.6158 34.0098 34.7895V36.0526C34.0098 36.2263 33.8682 36.3684 33.6951 36.3684H31.8852C31.7121 36.3684 31.5705 36.2263 31.5705 36.0526V34.7895C31.5705 34.6158 31.4289 34.4737 31.2557 34.4737H18.7443C18.5711 34.4737 18.4295 34.6158 18.4295 34.7895V36.0526C18.4295 36.2263 18.2879 36.3684 18.1148 36.3684H16.3049C16.1318 36.3684 15.9902 36.2263 15.9902 36.0526V34.7895C15.9902 34.6158 15.8485 34.4737 15.6754 34.4737H13.9443C13.7711 34.4737 13.6295 34.3316 13.6295 34.1579V13.9474C13.6295 13.7737 13.7711 13.6316 13.9443 13.6316H36.0557C36.2289 13.6316 36.3705 13.7737 36.3705 13.9474V34.1579Z" fill="#CFD1E2"/>
<path d="M28.8812 17.83C28.37 17.3099 27.6857 17.0105 26.9621 17.0026C26.2307 16.9947 25.5464 17.2705 25.0273 17.7748C24.5239 17.2547 23.8397 16.9632 23.1161 16.9474C22.3846 16.9396 21.6925 17.2075 21.1734 17.7197C20.088 18.7677 20.0644 20.5091 21.1104 21.5887L24.7048 25.3001C24.7677 25.3631 24.8464 25.3946 24.925 25.3946C25.0037 25.3946 25.0823 25.3631 25.1453 25.308L28.8419 21.699C29.9116 20.651 29.9351 18.9174 28.8812 17.83ZM28.3936 21.2577L24.925 24.646L21.5588 21.1632C20.7487 20.3279 20.7722 18.9883 21.606 18.1846C22.0071 17.7906 22.5419 17.5778 23.1003 17.5936C23.6588 17.6015 24.1857 17.83 24.579 18.2319L24.7284 18.3894C24.7441 18.4131 24.7599 18.4367 24.7835 18.4604C24.9015 18.5864 25.1059 18.5864 25.2318 18.4682L25.4599 18.2397C25.8531 17.8536 26.3722 17.6409 26.9307 17.6409C26.9385 17.6409 26.9464 17.6409 26.9543 17.6409C27.5127 17.6487 28.0396 17.8773 28.4329 18.2791C29.243 19.1065 29.2273 20.4461 28.3936 21.2577Z" fill="#CF422F"/>
<path d="M34.792 14.5791H15.2083C14.8622 14.5791 14.5791 14.8633 14.5791 15.2107V32.8949C14.5791 33.2423 14.8622 33.5265 15.2083 33.5265H34.792C35.1381 33.5265 35.4212 33.2423 35.4212 32.8949V15.2107C35.4212 14.8633 35.1381 14.5791 34.792 14.5791ZM34.792 15.2107V29.1528H29.9787L28.3113 25.537C28.2326 25.3633 28.0518 25.2528 27.863 25.2607C27.6664 25.2686 27.5012 25.3949 27.4383 25.5765L25.7395 30.4159L25.1181 28.5291C25.0552 28.3317 24.8743 28.2054 24.6698 28.2054H23.0261L21.8778 25.5212C21.807 25.3475 21.634 25.237 21.4452 25.237C21.2564 25.237 21.0913 25.3475 21.0126 25.5212L19.4082 29.1528H15.2083V15.2107H34.792ZM15.2083 32.8949V29.7844H19.5262C19.7149 29.7844 19.8801 29.6738 19.9587 29.5002L21.4531 26.1054L22.4991 28.5528C22.5699 28.7265 22.7429 28.837 22.9317 28.837H24.5597L25.2912 31.0554C25.3541 31.2449 25.535 31.3791 25.7316 31.3791C25.7316 31.3791 25.7316 31.3791 25.7395 31.3791C25.9361 31.3791 26.117 31.2528 26.1878 31.0633L27.9102 26.1528L29.4596 29.508C29.5382 29.6738 29.7034 29.7844 29.8843 29.7844H34.792V32.8949H15.2083Z" fill="#84B6DF"/>
</svg>
