<svg width="320" height="231" viewBox="0 0 320 231" fill="none" xmlns="http://www.w3.org/2000/svg">
<path fill-rule="evenodd" clip-rule="evenodd" d="M27.1465 159.526L32.4467 165.424C32.4467 165.424 29.4402 165.636 26.5254 165.853C25.5091 165.925 24.4999 165.998 23.6389 166.064C21.3452 166.236 15.1205 165.088 11.4435 164.355C11.4294 164.349 11.4223 164.349 11.4153 164.349C9.74968 164.013 8.61342 163.762 8.61342 163.762C8.61342 163.762 6.73612 161.651 5.16935 159.843C4.86588 159.493 4.57652 159.157 4.30833 158.847C3.92017 158.392 3.50377 157.634 3.09444 156.736C1.79585 153.873 0.617248 149.539 0.828973 148.761C1.09716 147.738 12.5021 125.077 20.3713 112.22C21.1546 110.941 21.931 109.746 22.7002 108.626C28.7485 99.7792 34.0346 95.7881 34.0346 95.7881C34.077 96.1245 34.1122 96.4669 34.1405 96.8231C34.8745 106.211 30.767 123.178 27.4076 135.078C25.2268 142.83 23.3636 148.45 23.3636 148.45C23.3636 148.45 23.3495 148.437 23.3354 148.417C23.2931 148.372 23.2154 148.292 23.1096 148.173C23.0743 148.128 23.0249 148.081 22.9755 148.028C22.8837 147.936 22.792 147.824 22.672 147.705C22.5803 147.6 22.4815 147.494 22.3826 147.389L20.9076 152.593L27.1394 159.52L27.1465 159.526Z" fill="#00CCB2"/>
<path fill-rule="evenodd" clip-rule="evenodd" d="M29.4093 108.631L27.4063 135.08C25.2291 142.832 23.361 148.446 23.361 148.446C21.3002 146.054 18.9775 144.201 16.7036 142.768C19.3452 134.861 25.6645 116.273 29.4093 108.631Z" fill="#00A48F"/>
<path fill-rule="evenodd" clip-rule="evenodd" d="M34.0346 95.7847C34.0346 95.7847 26.361 100.387 20.3713 112.219C20.3691 112.223 20.367 112.227 20.3649 112.231C17.1177 117.538 13.2714 124.509 9.85202 130.941C7.69453 134.524 6.04025 137.16 5.53634 137.957C5.94427 137.34 7.10029 135.585 8.63953 133.233C4.33797 141.405 0.972947 148.211 0.828973 148.761C0.617248 149.539 1.79585 153.873 3.09444 156.736C3.27088 156.848 3.37674 156.907 3.37674 156.907C3.37674 156.907 1.91583 150.013 2.09933 148.655C2.28282 147.289 10.2084 132.222 10.7519 131.371C10.965 131.038 12.8705 127.475 15.1085 123.269C18.6542 117.755 22.0467 112.366 23.0616 110.393C24.7935 107.014 28.9546 101.71 32.796 98.0579C32.8059 98.0494 32.8059 98.0401 32.8059 98.0401C33.2604 97.6113 33.7057 97.2004 34.1412 96.8257C34.1123 96.4694 34.0734 96.1231 34.0346 95.7847Z" fill="#00DABE"/>
<path fill-rule="evenodd" clip-rule="evenodd" d="M32.4468 165.424C32.4468 165.424 29.4403 165.635 26.5255 165.853C23.7448 165.523 20.1596 165.121 19.0375 165.081C17.7459 165.028 14.1537 164.652 11.4436 164.355C11.4295 164.349 11.4224 164.349 11.4153 164.349C9.74977 164.012 8.61351 163.762 8.61351 163.762C8.61351 163.762 6.7362 161.651 5.16943 159.843C5.69875 159.988 7.50547 160.463 9.11459 160.826C11.0272 161.248 13.0315 161.591 13.0315 161.591C13.0315 161.591 10.2085 159.546 9.65802 158.609C9.11459 157.679 8.65585 155.377 8.65585 155.377L15.4875 156.485C15.4875 156.485 12.3893 152.481 11.2954 151.63C10.2085 150.779 7.29375 149.42 7.29375 149.42L5.64935 148.912C5.64935 148.912 8.20417 148.655 9.20634 148.991C10.2085 149.334 11.7541 149.763 11.7541 149.763L13.8502 143.885C13.8502 143.885 15.671 150.779 18.0353 153.167C20.1808 155.318 26.0315 158.86 27.1395 159.52L27.1466 159.526L32.4468 165.424Z" fill="#00A48F"/>
<path fill-rule="evenodd" clip-rule="evenodd" d="M88.2258 247.526L46.0246 250.055L42.2898 250.275L13.5586 252L15.1261 226.208L15.1846 225.121L15.3103 223.094L34.2378 222.692L85.1677 221.606L86.5517 233.366L88.2258 247.526Z" fill="#00CCB2"/>
<path fill-rule="evenodd" clip-rule="evenodd" d="M86.5517 233.366C76.458 233.165 46.0245 231.504 46.0245 231.504V250.055L42.2897 250.275L43.3632 234.334C42.0088 233.749 22.3451 228.226 15.126 226.208C13.4816 225.742 12.4844 225.468 12.4844 225.468L15.1846 225.121L34.2378 222.692L85.1677 221.606L86.5517 233.366Z" fill="#00A48F"/>
<path fill-rule="evenodd" clip-rule="evenodd" d="M98.0956 92.781C98.0956 92.781 96.6248 103.883 94.8153 117.998C92.7051 134.523 90.1319 155.185 88.9117 166.999C88.3894 172.121 88.0605 179.453 87.8573 187.687C87.5672 199.685 87.5574 213.599 87.6442 225.367C78.6938 225.696 57.6751 226.527 47.8821 227.258C37.5569 228.033 18.9385 226.171 12.4844 225.468C14.4393 206.924 17.1198 184.501 18.3097 169.126C18.3873 168.067 18.484 166.981 18.5905 165.876C18.6583 165.237 18.7162 164.58 18.7839 163.922C19.3746 158.389 20.2357 152.372 21.271 146.274C24.6579 126.133 29.8346 105.152 32.7959 98.0578C32.8058 98.0486 32.8058 98.04 32.8058 98.04C33.2801 96.9173 33.6958 96.1408 34.0345 95.7846C36.4538 93.256 43.8762 90.1146 47.8821 88.5445C47.892 88.5353 47.9018 88.5353 47.9018 88.5353C49.4792 87.9145 50.5244 87.5405 50.5244 87.5405L82.922 85.1841L98.0956 92.781Z" fill="#00CCB2"/>
<path fill-rule="evenodd" clip-rule="evenodd" d="M34.1409 96.826C35.0507 96.0409 35.9117 95.3832 36.7057 94.8898C41.0213 92.2154 47.4853 88.7639 47.8819 88.5449C43.8761 90.115 36.4537 93.2564 34.0344 95.785C33.6963 96.1412 33.2799 96.9177 32.8057 98.0404C33.2602 97.611 33.7055 97.2 34.1409 96.826Z" fill="#00DABE"/>
<path fill-rule="evenodd" clip-rule="evenodd" d="M72.8097 129.831L56.3297 154.985L28.9247 161.509L32.4464 165.424C32.4464 165.424 26.9838 165.807 23.6386 166.064C22.5835 166.143 20.6998 165.943 18.6143 165.633C18.6066 165.713 18.5988 165.797 18.5903 165.877C24.88 168.004 38.4184 172.45 42.8986 172.834C42.8986 172.834 53.8913 176.011 61.3815 179.453C67.0812 182.083 81.3642 185.972 87.8571 187.688C88.0603 179.453 88.3892 172.121 88.9115 167C90.1317 155.185 92.7049 134.524 94.8151 117.998L72.8097 129.831Z" fill="#00A48F"/>
<path fill-rule="evenodd" clip-rule="evenodd" d="M67.592 119.248L57.125 118.218L58.0255 115.611L68.4926 116.64L67.592 119.248Z" fill="white"/>
<path fill-rule="evenodd" clip-rule="evenodd" d="M22.6368 138.601C22.3686 140.026 22.1075 141.464 21.8534 142.896C21.6488 144.024 21.4582 145.152 21.2677 146.273C21.1477 146.992 21.0277 147.712 20.9148 148.424C20.6819 149.822 20.4702 151.214 20.2584 152.593L16.7015 156.571C16.7015 156.571 14.556 154.763 13.6667 153.293C13.3915 152.837 13.1021 152.197 12.848 151.532C12.2764 150.074 11.8247 148.503 11.8247 148.503C11.8247 148.503 13.1162 141.675 13.8714 140.653C14.6195 139.631 19.4045 138.799 20.0891 138.674C20.2302 138.647 20.449 138.627 20.7031 138.621C21.2959 138.588 22.1005 138.594 22.6368 138.601Z" fill="#58BAD3"/>
<path fill-rule="evenodd" clip-rule="evenodd" d="M21.8536 142.896C21.6489 144.024 21.4583 145.152 21.2678 146.273C21.1478 146.992 21.0278 147.712 20.9149 148.424L18.5859 149.017C18.5859 148.694 19.7434 146.464 19.7434 146.464C19.7434 146.464 20.2939 144.229 20.8373 143.78C21.1408 143.529 21.5078 143.186 21.8536 142.896Z" fill="#0099B8"/>
<path fill-rule="evenodd" clip-rule="evenodd" d="M20.7031 138.621C18.7693 139.254 15.4734 140.389 14.7606 140.97C13.7373 141.801 12.9116 145.502 12.848 146.273C12.7845 146.999 12.841 151.083 12.848 151.531C12.2764 150.073 11.8247 148.503 11.8247 148.503C11.8247 148.503 13.1162 141.675 13.8714 140.653C14.6195 139.63 19.4045 138.799 20.0891 138.674C20.2302 138.647 20.449 138.628 20.7031 138.621Z" fill="#85E4E0"/>
<path fill-rule="evenodd" clip-rule="evenodd" d="M107.737 112.042C105.895 120.631 95.302 138.093 89.2036 147.651L89.1965 147.659C86.6494 151.663 84.8851 154.282 84.8851 154.282C84.8851 154.282 76.0836 165.041 72.7391 167.72C69.4009 170.405 54.2413 174.231 52.0535 174.613C49.8656 174.996 40.1686 171.552 35.9341 169.507C31.6996 167.462 19.2713 161.591 17.768 159.803C16.2648 158.015 16.293 155.779 16.293 155.779C16.293 155.779 16.2994 154.862 16.42 153.682C16.5824 152.125 16.9494 150.119 17.7892 149.229C19.2713 147.672 21.4097 147.388 21.4097 147.388C21.4097 147.388 25.1431 147.236 26.7805 147.837C28.4178 148.444 40.5074 151.505 42.9987 152.078C43.3798 152.164 43.895 152.323 44.4949 152.507C47.5571 153.49 52.8079 155.541 53.3732 155.766C53.4085 155.773 53.4226 155.779 53.4226 155.779C57.7207 153.82 58.0665 151.801 57.9959 150.97C58.1794 150.746 58.3629 150.522 58.5464 150.29C59.3086 149.928 60.4943 149.235 60.6636 148.444C60.7413 148.087 60.6566 147.81 60.4943 147.606C60.9099 146.965 61.2706 146.326 61.5529 145.706C61.5529 145.706 61.5599 145.706 61.5599 145.699C61.5952 145.672 61.6298 145.64 61.658 145.614C62.1591 145.151 63.7894 144.208 62.7809 143.08C62.6743 142.948 62.512 142.856 62.308 142.797C62.308 142.797 62.2798 142.737 62.2445 142.612C62.1175 142.17 61.9128 140.91 62.7809 138.905C62.7809 138.905 67.0789 127.419 72.3925 117.181L72.4003 117.168C74.7716 112.603 77.3469 108.275 79.8319 105.333C82.6549 101.982 85.7814 99.4355 88.6538 97.5422C89.8606 96.744 91.0244 96.0645 92.0978 95.484H92.1113C95.7466 93.5307 98.3713 92.7793 98.3713 92.7793C98.3713 92.7793 99.3953 93.3862 100.779 94.5466C102.656 96.1173 105.203 98.7165 106.742 102.219C107.956 104.957 108.555 108.256 107.737 112.042Z" fill="#00CCB2"/>
<path fill-rule="evenodd" clip-rule="evenodd" d="M53.1255 155.773C52.5397 155.634 40.5913 152.732 39.3492 152.567C38.0718 152.402 30.7884 150.014 28.4171 149.268C26.0528 148.523 23.3639 148.444 23.3639 148.444L26.1375 151.458C25.9893 151.379 23.6603 150.086 23.0534 149.691C22.4323 149.281 19.7646 148.991 18.593 149.691C17.4144 150.39 16.144 153.682 16.144 153.682C16.3064 152.125 16.6734 150.119 17.5132 149.229C18.9953 147.672 21.1337 147.388 21.1337 147.388C21.1337 147.388 24.8671 147.236 26.5045 147.837C28.1418 148.444 40.2314 151.505 42.7227 152.078C45.1434 152.639 52.6597 155.588 53.1255 155.773Z" fill="#00DABE"/>
<path fill-rule="evenodd" clip-rule="evenodd" d="M88.6533 97.542C88.6533 97.542 74.7712 113.671 71.1295 123.033C67.4878 132.393 63.1051 143.766 63.1051 143.766C63.1051 143.766 62.7381 143.318 62.2441 142.612C62.117 142.17 61.9124 140.91 62.7804 138.904C62.7804 138.904 67.0785 127.419 72.3921 117.181L72.3998 117.168C74.7712 112.603 77.3465 108.276 79.8314 105.334C82.6544 101.982 85.7809 99.4353 88.6533 97.542Z" fill="#00DABE"/>
<path fill-rule="evenodd" clip-rule="evenodd" d="M106.742 102.22L101.548 122.115L89.2034 147.652L89.1971 147.659C88.8583 148.041 78.0314 160.272 73.1341 165.081C68.1586 169.969 57.6499 171.625 53.3731 171.843C49.0962 172.06 42.9985 169.851 42.9985 169.851C42.9985 169.851 55.6527 168.148 61.1152 166.955C66.5777 165.76 76.5923 155.779 76.5923 155.779L96.1275 118.145C96.1275 118.145 101.519 101.012 100.778 94.5469C102.656 96.1176 105.203 98.7161 106.742 102.22Z" fill="#00A48F"/>
<path fill-rule="evenodd" clip-rule="evenodd" d="M53.1465 155.779C53.1465 155.779 58.0133 154.831 60.1673 152.082C62.3213 149.332 62.5083 146.592 62.5083 146.592C62.5083 146.592 63.6234 144.731 62.8266 143.763C62.0298 142.796 55.3915 146.592 55.3915 146.592L53.1465 155.779Z" fill="#00A48F"/>
<path fill-rule="evenodd" clip-rule="evenodd" d="M61.3826 145.613C61.3544 145.64 61.3191 145.673 61.2838 145.699C61.2838 145.706 61.2768 145.706 61.2768 145.706C60.6769 146.201 59.1595 147.005 59.1595 147.005C59.1595 147.005 59.8723 147.131 60.2182 147.606C60.3805 147.81 60.4652 148.087 60.3875 148.444C60.2182 149.235 59.0325 149.928 58.2703 150.291C57.9033 150.469 57.6351 150.568 57.6351 150.568C57.6351 150.568 57.6986 150.713 57.7198 150.97C57.7904 151.801 57.4445 153.82 53.1465 155.779C53.1465 155.779 53.1324 155.773 53.0971 155.767C52.5819 155.562 48.1851 153.84 45.0868 152.791C44.7834 152.692 44.494 152.593 44.2188 152.507C44.247 152.474 44.2823 152.448 44.3176 152.415L44.5857 152.165C44.6775 152.078 44.7692 151.986 44.8751 151.894L45.1221 151.663C45.6373 151.188 46.2301 150.647 46.8724 150.074C47.07 149.895 47.2676 149.717 47.4723 149.539C47.7546 149.294 48.0369 149.044 48.3192 148.8C48.4533 148.681 48.5874 148.569 48.7214 148.45C48.8908 148.312 49.0532 148.166 49.2225 148.028C49.4978 147.798 49.773 147.566 50.0412 147.342C50.2176 147.197 50.3941 147.058 50.5705 146.914C50.7964 146.735 51.0081 146.563 51.2198 146.405C51.241 146.393 51.2622 146.372 51.2833 146.359C51.4174 146.254 51.5445 146.154 51.6786 146.063C52.4408 145.489 53.1253 145.04 53.6405 144.796C54.5792 144.347 55.8072 143.872 57.0564 143.489C59.0184 142.869 61.0368 142.487 62.0319 142.797C62.2366 142.856 62.3989 142.948 62.5048 143.08C63.514 144.208 61.8837 145.152 61.3826 145.613Z" fill="#58BAD3"/>
<path fill-rule="evenodd" clip-rule="evenodd" d="M57.0564 143.489C55.7507 144.083 54.191 144.848 53.1465 145.561C51.4951 146.689 47.0347 150.924 45.0868 152.791C44.7834 152.692 44.494 152.593 44.2188 152.507C44.247 152.474 44.2823 152.448 44.3176 152.415L44.5857 152.164C44.6775 152.078 44.7692 151.986 44.8751 151.894L45.1221 151.663C45.6373 151.188 46.2301 150.647 46.8724 150.073C47.07 149.895 47.2676 149.717 47.4723 149.539C47.7546 149.294 48.0369 149.044 48.3192 148.8C48.4533 148.681 48.5874 148.569 48.7214 148.45C48.8908 148.312 49.0532 148.166 49.2225 148.028C49.4978 147.797 49.773 147.566 50.0412 147.342C50.2176 147.197 50.3941 147.058 50.5705 146.913C50.7893 146.742 51.0081 146.57 51.2198 146.405C51.241 146.392 51.2622 146.372 51.2833 146.359C51.4174 146.253 51.5445 146.154 51.6785 146.062C52.4408 145.488 53.1253 145.04 53.6405 144.795C54.5792 144.347 55.8072 143.872 57.0564 143.489Z" fill="#85E4E0"/>
<path fill-rule="evenodd" clip-rule="evenodd" d="M77.9872 84.1253C66.007 91.3113 53.8914 90.3706 53.8914 90.3706C54.2788 88.7273 54.511 87.2206 54.6268 85.8603C55.1109 80.1632 53.6401 76.94 53.6401 76.94L74.4937 73.4067C74.4358 75.0137 74.5706 76.4288 74.8127 77.6617C75.6935 82.0988 77.9872 84.1253 77.9872 84.1253Z" fill="#B57E65"/>
<path fill-rule="evenodd" clip-rule="evenodd" d="M74.8127 77.6622C71.6876 82.3275 64.4198 90.6448 54.6268 85.8608C55.1109 80.1637 53.6401 76.9405 53.6401 76.9405L74.4937 73.4072C74.4358 75.0142 74.5706 76.4292 74.8127 77.6622Z" fill="#6F4C3C"/>
<path fill-rule="evenodd" clip-rule="evenodd" d="M82.922 85.1864C82.922 85.1864 54.826 106.745 47.8955 117.167C47.8955 117.167 47.9943 95.3786 50.5068 87.5745C50.5138 87.5613 50.5209 87.5547 50.5209 87.5415L54.0991 86.5981L54.2261 85.7537L54.586 83.3855C54.586 83.3855 54.586 83.3789 54.5931 83.3723L54.699 82.6532V82.6334L54.706 82.607C54.706 82.607 58.0372 85.193 63.7255 84.4739C65.504 84.2497 67.2896 83.6559 68.9128 82.9501C69.0257 82.9039 69.1386 82.8577 69.2445 82.8049C69.4562 82.7126 69.6609 82.6136 69.8656 82.5147C70.0208 82.4421 70.1761 82.3689 70.3243 82.2904C70.4443 82.231 70.5572 82.1716 70.6772 82.1123C70.8536 82.0199 71.023 81.9276 71.1924 81.8352C71.3335 81.7626 71.4747 81.6828 71.6088 81.6109C71.6652 81.5779 71.7217 81.5515 71.7782 81.5179C73.8531 80.3509 75.2293 79.2954 75.2293 79.2954L77.9888 84.1243L82.922 85.1864Z" fill="white"/>
<path fill-rule="evenodd" clip-rule="evenodd" d="M71.7781 81.5181C68.0235 85.5554 61.4671 89.0715 54.2261 85.7539L54.586 83.385C54.586 83.385 54.586 83.3784 54.5931 83.3724C54.6636 83.1409 54.706 82.9041 54.6989 82.6534V82.6329L54.706 82.6066C54.706 82.6066 58.0371 85.1925 63.7255 84.4735C65.504 84.2498 67.2896 83.6555 68.9128 82.9502C69.0257 82.9041 69.1316 82.8572 69.2445 82.8045C69.4562 82.7128 69.6609 82.6131 69.8656 82.5149C70.0208 82.4416 70.1761 82.3691 70.3243 82.2906C70.4443 82.2305 70.5642 82.1712 70.6772 82.1118C70.8536 82.0201 71.023 81.9271 71.1924 81.8347C71.3335 81.7622 71.4747 81.6902 71.6088 81.6111C71.6652 81.5781 71.7217 81.5517 71.7781 81.5181Z" fill="#D0D0D0"/>
<path fill-rule="evenodd" clip-rule="evenodd" d="M83.3864 50.4859C83.1437 46.4809 82.0554 42.3698 79.4215 39.1459C76.5463 35.6265 72.2327 34.0643 67.687 33.4647C62.2209 32.7443 55.8692 33.3149 51.2811 36.4616C49.0819 37.9697 46.537 39.7172 45.3513 42.0973C43.865 45.0844 44.4896 48.9778 44.7253 52.1404C44.726 52.1529 44.7324 52.1615 44.7338 52.174C44.7253 52.8977 44.7296 53.6207 44.7246 54.3345C44.7042 57.2965 44.4205 60.2492 44.6773 63.2099C45.1107 68.2011 47.29 72.7899 50.5245 76.7262C53.2155 80.0016 57.1191 83.2373 61.7805 83.174C66.718 83.106 71.4896 79.5009 74.4629 76.0639C77.7764 72.2357 80.0257 67.55 81.6482 62.8774C83.023 58.918 83.6384 54.6472 83.3864 50.4859Z" fill="#B57E65"/>
<path fill-rule="evenodd" clip-rule="evenodd" d="M64.2318 62.3778C63.8097 62.1166 63.3249 62.1245 62.8669 62.2525C62.8471 61.5183 62.8379 60.7906 62.7186 60.0624C62.701 59.9528 62.5034 59.9535 62.485 60.0624C62.3446 60.9074 62.3185 61.7478 62.3453 62.6048C62.3517 62.8073 62.5627 62.8983 62.7455 62.8205C64.6679 62.0012 64.9742 64.7831 64.0073 65.7739C63.6749 66.1143 63.2571 66.1664 62.7892 66.1974C62.4794 66.2179 62.4243 66.6025 62.7172 66.7021C63.8775 67.0953 64.8112 65.9956 65.0286 65.0403C65.2304 64.1531 65.1126 62.9234 64.2318 62.3778Z" fill="#3A180F"/>
<path fill-rule="evenodd" clip-rule="evenodd" d="M66.9553 71.6997C66.8389 71.864 66.7231 72.0282 66.6166 72.2024C66.0654 74.0555 63.646 75.0503 61.6812 74.9685C59.1561 74.8682 57.0945 73.3799 56.5624 71.0242C56.5236 70.8415 56.688 70.7234 56.8334 70.7504C57.7523 71.2439 59.7263 72.1199 62.3397 72.1378C64.6524 72.1562 66.1613 71.8092 66.9652 71.5447H66.9744C67.0033 71.5902 67.0033 71.645 66.9553 71.6997Z" fill="white"/>
<path fill-rule="evenodd" clip-rule="evenodd" d="M71.3663 54.6793C71.3133 54.5078 71.1327 54.3626 70.9365 54.3699C70.7579 54.3778 70.5335 54.4939 70.506 54.6793C70.4763 54.8818 70.422 55.0764 70.4128 55.2809C70.405 55.4709 70.3853 55.6602 70.3676 55.8496C70.333 56.2223 70.2992 56.5964 70.3048 56.9711C70.3091 57.2211 70.5349 57.4605 70.8116 57.4487C71.091 57.4368 71.3112 57.2389 71.3183 56.9711C71.3275 56.5944 71.3846 56.2236 71.4263 55.8496C71.446 55.6675 71.4623 55.4841 71.4707 55.3001C71.4806 55.087 71.4291 54.8831 71.3663 54.6793Z" fill="#3A180F"/>
<path fill-rule="evenodd" clip-rule="evenodd" d="M74.1827 49.8948C73.8333 49.6349 73.3598 49.4931 72.9384 49.3697C72.4352 49.2226 71.9221 49.1355 71.3964 49.1058C70.4866 49.0544 69.4315 49.1408 68.7286 49.7464C68.5783 49.877 68.7759 50.1244 68.9488 50.0162C69.6673 49.5663 70.5967 49.5518 71.4197 49.6791C71.86 49.7464 72.3025 49.8453 72.7281 49.9713C73.124 50.0888 73.4783 50.2768 73.8637 50.412C74.1615 50.5162 74.4381 50.0848 74.1827 49.8948Z" fill="#3A180F"/>
<path fill-rule="evenodd" clip-rule="evenodd" d="M56.2753 53.423C56.3607 53.264 56.5661 53.1512 56.7581 53.1928C56.9324 53.231 57.13 53.3834 57.1215 53.5708C57.1124 53.7746 57.1279 53.9752 57.0968 54.179C57.0686 54.367 57.051 54.5563 57.0312 54.7457C56.9945 55.1171 56.955 55.4918 56.8773 55.8579C56.8251 56.1033 56.5562 56.2999 56.2873 56.2412C56.0142 56.1818 55.8364 55.9489 55.8808 55.6844C55.9443 55.313 55.9599 54.9383 55.9909 54.5636C56.0064 54.3809 56.0262 54.1981 56.0537 54.0154C56.0841 53.8043 56.1737 53.6123 56.2753 53.423Z" fill="#3A180F"/>
<path fill-rule="evenodd" clip-rule="evenodd" d="M54.4283 48.2352C54.8221 48.0393 55.3155 47.9806 55.753 47.9324C56.276 47.8737 56.7975 47.8757 57.3205 47.937C58.2246 48.0426 59.2458 48.3091 59.8196 49.0255C59.9424 49.1792 59.7003 49.389 59.5514 49.2524C58.9324 48.6871 58.0206 48.5136 57.1871 48.4964C56.7411 48.4885 56.2866 48.509 55.8434 48.5597C55.4319 48.6066 55.0473 48.7319 54.6422 48.7986C54.3295 48.85 54.1404 48.3783 54.4283 48.2352Z" fill="#3A180F"/>
<path fill-rule="evenodd" clip-rule="evenodd" d="M45.5014 62.2203C45.3673 61.6194 45.1944 61.151 45.1668 60.5183C45.1464 60.0421 44.9099 59.6476 44.8591 59.193C44.802 58.6831 45.2367 58.3302 45.3285 57.8361C45.3821 57.5504 45.3426 57.2377 45.279 56.9554C45.1859 56.5418 44.9967 56.1103 44.6142 55.9408C44.9706 55.5087 45.1697 55.0258 45.1188 54.4651C45.0666 53.8898 44.8175 53.3416 44.8062 52.7618C44.7935 52.1403 45.0984 51.5545 45.1718 50.9404C45.2692 50.1309 45.0419 49.3354 45.0109 48.5299C45.0059 48.421 44.8944 48.3933 44.8168 48.4329C44.7208 48.3227 44.5444 48.2739 44.4025 48.4045C43.8252 48.9323 43.3806 49.2503 43.1406 49.9983C42.8548 50.8863 42.6621 51.8211 42.492 52.7341C42.1427 54.6102 42.0022 56.5028 42.2471 58.3981C42.4179 59.7208 42.7567 61.0382 43.1533 62.318C43.4017 63.1201 43.773 64.4784 44.8005 64.6915C44.9389 64.7205 45.0581 64.6704 45.1372 64.5635C45.6235 63.9045 45.6722 62.9856 45.5014 62.2203Z" fill="#3A180F"/>
<path fill-rule="evenodd" clip-rule="evenodd" d="M84.9655 54.8349C84.7728 54.35 84.2591 53.594 83.5921 53.7114C82.6542 53.8757 82.9414 55.2182 82.729 55.8059C82.5462 56.3106 82.1686 56.6589 82.1291 57.215C82.0776 57.9427 82.2766 58.6261 82.1609 59.3616C82.0536 60.0457 81.8771 60.6711 81.5447 61.2925C81.3027 61.7464 81.0444 62.1877 80.9879 62.7023C80.9039 63.4655 81.4184 64.1787 81.0521 64.9063C80.887 65.2348 80.7197 65.564 80.5969 65.909C80.4141 66.4203 80.3436 67.0424 80.8277 67.264C80.8771 67.3828 81.0013 67.4751 81.1502 67.4197C81.9513 67.1209 82.302 66.194 82.6584 65.5257C83.2068 64.5026 83.5822 63.5592 83.7911 62.4199C84.036 61.0841 84.384 59.7997 84.7361 58.4862C85.0368 57.3674 85.4137 55.9629 84.9655 54.8349Z" fill="#3A180F"/>
<path fill-rule="evenodd" clip-rule="evenodd" d="M78.7832 68.4965C79.2144 66.4984 79.3633 64.6644 79.3061 63.632C79.8658 62.8727 82.5152 59.2253 83.8837 56.4335L83.0495 56.076C81.9118 58.3981 79.7938 61.4227 78.8834 62.6867C77.673 62.2704 72.1166 60.7769 65.0259 59.8296C58.2564 58.9258 48.9242 59.4219 46.8669 59.5479C46.1492 58.3954 44.4455 55.4651 43.6155 52.3633L42.7256 52.5711C43.7108 56.2561 45.8182 59.6027 46.3172 60.3639C46.1619 61.4115 45.9339 63.4143 45.9897 65.8202C45.1527 63.5133 44.3058 61.1008 43.8865 59.6739L43.0015 59.9015C43.6282 62.0316 46.0913 69.4293 46.1076 69.5336C46.9269 74.7688 51.2299 78.9823 51.2299 78.9823C51.2299 78.9823 55.4644 83.1957 61.2015 83.7069C66.9385 84.2169 74.8126 77.6622 77.0463 73.4917C77.263 73.0886 77.4564 72.6605 77.6385 72.2244L77.6519 72.2323C77.7895 72.0015 81.0218 66.5696 81.976 64.4665L82.2378 62.3832C81.7911 63.3682 79.6978 66.8962 78.7832 68.4965Z" fill="white"/>
<path fill-rule="evenodd" clip-rule="evenodd" d="M88.5185 55.1117C86.0843 64.565 79.1037 69.7495 79.1037 69.7495C81.8985 65.2643 83.6064 56.2464 82.9218 53.1854C82.7108 52.2414 82.5344 51.3317 82.2443 50.4346V50.4273C81.5739 48.3955 80.2823 46.4164 76.5002 44.2131C75.8509 43.8304 75.2016 43.4947 74.5446 43.2044C69.7031 41.0208 64.5942 41.1 57.0137 42.3402C48.4042 43.7453 46.0399 46.3841 44.536 51.6154C44.5289 51.6411 44.5226 51.6675 44.5148 51.6939C43.0892 56.8269 45.1719 66.5104 45.27 66.9663C41.7913 62.6909 40.3509 58.0731 39.8928 52.5713C39.6882 50.1568 39.6741 47.5649 39.7587 44.7613C40.0269 35.5718 46.0399 28.2955 55.3269 24.4627C62.611 21.4539 72.3356 21.4348 80.1489 26.1911C82.2944 27.4973 84.2988 29.1663 86.0632 31.2311C87.2107 32.565 88.0745 34.0018 88.7231 35.4702L88.738 35.4861L88.8996 35.8555L88.956 35.9874C92.6048 44.9262 88.5185 55.1117 88.5185 55.1117Z" fill="#00CCB2"/>
<path fill-rule="evenodd" clip-rule="evenodd" d="M88.5182 55.1115C86.0841 64.5648 79.1035 69.7492 79.1035 69.7492C81.8983 65.264 83.6062 56.2461 82.9216 53.1852C82.7106 52.2412 82.5342 51.3315 82.2441 50.4343V50.427C82.2441 50.427 85.2436 51.2517 85.6952 49.0951C86.154 46.9314 84.4397 43.3618 83.8822 40.5522C83.331 37.7419 84.1503 37.3983 84.7848 35.8684C85.4271 34.338 85.7383 33.5727 85.1737 32.4645C84.6366 31.4288 83.9739 30.2413 83.8885 30.0962L88.7377 35.4858L88.8994 35.8552L88.9558 35.9872C92.6046 44.9259 88.5182 55.1115 88.5182 55.1115Z" fill="#00A48F"/>
<path fill-rule="evenodd" clip-rule="evenodd" d="M48.1543 73.4069C48.1543 73.4069 51.4516 76.0034 53.6401 76.578C55.8294 77.1526 59.9926 73.5177 63.3047 72.86C66.6168 72.2023 72.9777 72.6529 74.2834 69.7529C75.5897 66.8523 77.9871 63.3823 77.9871 63.3823C77.9871 63.3823 78.225 66.9756 77.3202 70.7464C76.4154 74.5172 74.4739 75.8253 70.888 79.4681C67.3028 83.1109 62.6977 83.5826 58.9248 82.6847C55.1525 81.7876 49.6639 78.0887 48.1543 73.4069Z" fill="#F0F0F0"/>
<path fill-rule="evenodd" clip-rule="evenodd" d="M80.1485 26.1911C79.231 25.9998 78.0453 25.8085 75.5893 25.3995C71.1148 24.654 71.7641 23.8683 68.6729 23.526C65.5888 23.1823 62.9352 23.526 58.2843 24.6342C53.6404 25.7418 54.8261 26.3362 53.6404 28.2097C52.4547 30.0826 50.0905 31.6995 46.9075 33.1897C43.7175 34.674 44.0845 35.4458 42.1225 38.6789C40.1676 41.9108 40.9863 43.1912 40.8028 46.5094C40.711 48.2042 40.2876 50.6186 39.8924 52.5713C39.6877 50.1568 39.6736 47.5643 39.7583 44.7606C40.0264 35.5718 46.0395 28.2948 55.3271 24.4627C62.6105 21.4539 72.3358 21.4348 80.1485 26.1911Z" fill="#00DABE"/>
<path fill-rule="evenodd" clip-rule="evenodd" d="M74.5449 43.2042C69.7034 41.02 64.5938 41.0998 57.014 42.3393C48.4038 43.7445 46.0396 46.3832 44.5363 51.6152C44.5293 51.6409 44.5222 51.6673 44.5151 51.6937C44.741 50.3354 45.0374 48.89 45.3973 47.8879C46.2654 45.4867 48.545 43.2761 51.0927 42.2542C53.6405 41.2317 55.0097 40.4665 58.4679 39.8655C61.9331 39.2718 63.6622 39.6155 66.3935 40.1228C69.1247 40.6373 71.0161 40.1228 72.7664 41.6533C73.2887 42.1091 73.9168 42.6566 74.5449 43.2042Z" fill="#00DABE"/>
<path fill-rule="evenodd" clip-rule="evenodd" d="M308.664 151.405C308.594 151.899 308.496 152.514 308.377 153.241C307.596 157.744 305.837 166.34 304.099 174.124C302.962 179.215 301.835 183.961 301.005 187C300.521 188.8 300.413 192.463 300.551 197.125C301.045 214.308 304.83 244.98 304.83 244.98C304.83 244.98 286.983 248.346 277.043 248.113C267.092 247.871 227.052 242.332 227.052 242.332C227.052 242.332 229.137 233.681 231.41 223.155C234.474 208.984 237.883 191.419 237.013 187C236.607 184.94 236.035 178.693 235.482 170.601C235.195 166.527 234.908 161.986 234.662 157.278C233.663 138.576 233.11 117.179 234.434 111.641C234.454 111.558 234.474 111.482 234.493 111.408C234.622 110.924 234.78 110.578 234.948 110.41L234.957 110.401C236.025 109.375 238.821 108.145 242.162 106.952C242.171 106.952 242.171 106.943 242.181 106.943C242.646 106.775 243.13 106.607 243.614 106.439L243.624 106.429C246.786 105.349 250.245 104.313 253.051 103.511C256.352 102.579 258.753 101.964 258.753 101.964L278.693 103.661L282.745 105.703L296.925 112.844C296.925 112.844 297.952 117.943 299.474 122.28C301.005 126.614 309.424 145.857 308.664 151.405Z" fill="#EDA1AB"/>
<path fill-rule="evenodd" clip-rule="evenodd" d="M308.377 153.241C307.597 157.743 305.837 166.339 304.099 174.124C302.962 179.215 301.835 183.96 301.006 187C300.521 188.799 300.413 192.463 300.551 197.124C292.043 199.642 264.158 207.809 256.539 209.189C250.126 210.345 237.922 218.531 231.41 223.154C234.474 208.984 237.883 191.419 237.013 187C236.41 183.895 235.412 171.346 234.662 157.278L245.59 128.889C245.59 128.889 249.247 153.996 248.673 158.583C248.595 159.226 248.535 159.982 248.486 160.774C251.055 162.126 255.739 164.475 258.16 164.979C261.608 165.706 285.838 162.452 285.838 162.452L284.504 167.925L288.891 162.694C288.891 162.694 302.952 157.716 308.377 153.241Z" fill="#DB909A"/>
<path fill-rule="evenodd" clip-rule="evenodd" d="M296.552 130.934L286.961 131.039L286.585 128.995L296.177 128.889L296.552 130.934Z" fill="#EB8991"/>
<path fill-rule="evenodd" clip-rule="evenodd" d="M296.177 130.673L286.586 130.778L286.211 128.734L295.802 128.628L296.177 130.673Z" fill="white"/>
<path fill-rule="evenodd" clip-rule="evenodd" d="M312.77 185.536C312.77 185.536 310.691 186.667 308.377 185.262C306.063 183.858 305.312 179.772 305.312 179.772L315.01 176.021C315.01 176.021 315.488 177.857 315.351 178.942C315.215 180.027 313.875 184.15 312.77 185.536Z" fill="#EB8991"/>
<path fill-rule="evenodd" clip-rule="evenodd" d="M319.037 169.981C319.03 170.112 319.022 170.251 319.002 170.383C318.402 177.653 313.137 185.034 312.77 185.536C312.897 185.259 313.956 183.01 314.125 181.815C314.167 181.499 314.196 180.806 314.167 179.916C314.097 177.218 313.539 172.665 311.478 171.004C311.295 170.858 311.104 170.707 310.893 170.554C308.612 168.899 304.978 167.125 303.539 166.439C303.518 166.26 303.489 166.03 303.447 165.805C303.362 165.363 303.221 164.947 302.981 164.981L301.132 149.062L298.267 124.396L296.926 112.846C296.926 112.846 304.11 115.537 308.712 122.213C311.253 125.907 314.09 134.291 316.15 142.974V142.979C316.207 143.316 317.992 153.964 318.748 162.375C319.016 165.39 319.157 168.114 319.037 169.981Z" fill="#FFAEB7"/>
<path fill-rule="evenodd" clip-rule="evenodd" d="M310.892 170.555C308.613 168.899 304.978 167.125 303.538 166.439C303.517 166.26 303.489 166.03 303.447 165.805C303.362 165.363 303.221 164.947 302.981 164.981L301.132 149.063V139.437L300.419 124.747C300.419 124.747 306.799 134.674 308.006 137.518C309.206 140.361 313.031 156.701 313.214 160.112C313.362 162.988 311.958 168.504 310.892 170.555Z" fill="#EB8991"/>
<path fill-rule="evenodd" clip-rule="evenodd" d="M287.68 175.346L296.677 135.498L314.589 132.074L305.592 171.923L287.68 175.346Z" fill="#3E5164"/>
<path fill-rule="evenodd" clip-rule="evenodd" d="M314.589 132.074L313.121 130.941L295.208 134.365L286.211 174.213L287.68 175.346L296.677 135.497L314.589 132.074Z" fill="white"/>
<path fill-rule="evenodd" clip-rule="evenodd" d="M314.167 179.916C313.942 180.14 313.709 180.351 313.482 180.536C311.119 182.495 303.376 183.432 303.376 183.432L303.56 166.749C303.56 166.749 303.552 166.623 303.538 166.438C305.105 167.184 309.29 169.229 311.478 171.004C313.539 172.666 314.096 177.218 314.167 179.916Z" fill="#0099B8"/>
<path fill-rule="evenodd" clip-rule="evenodd" d="M310.088 175.318V175.325C310.024 175.575 309.947 175.846 309.847 176.129C309.77 176.36 309.679 176.597 309.579 176.842C309.523 176.986 309.459 177.139 309.389 177.29C309.298 177.521 309.191 177.752 309.072 177.99C309.008 178.128 308.937 178.267 308.867 178.405C308.782 178.576 308.697 178.741 308.612 178.906C308.521 179.078 308.436 179.243 308.338 179.408C308.239 179.58 308.147 179.745 308.048 179.91C308.048 179.916 308.041 179.916 308.041 179.922C307.943 180.094 307.843 180.259 307.738 180.423C307.618 180.622 307.505 180.8 307.385 180.978C307.349 181.024 307.321 181.077 307.286 181.123C307.18 181.282 307.074 181.427 306.976 181.571C306.848 181.743 306.721 181.908 306.608 182.047C306.544 182.12 306.488 182.185 306.425 182.251C306.368 182.311 306.319 182.37 306.262 182.423C304.654 184.066 290.68 185.312 285.711 183.306C285.711 183.306 283.791 182.199 283.418 180.688C283.397 180.615 283.375 180.529 283.375 180.457C283.149 178.999 284.179 177.369 284.179 177.369C284.179 177.369 282.852 176.486 283.213 175.345C283.241 175.252 283.277 175.153 283.34 175.048C284.052 173.761 284.553 173.313 284.553 173.313L284.547 173.286C284.525 173.181 284.476 172.877 284.547 172.495C284.653 171.868 285.069 171.03 286.473 170.667C286.473 170.667 286.438 170.159 286.671 169.52C286.847 169.07 287.143 168.549 287.687 168.095C287.884 167.923 288.117 167.765 288.386 167.626C288.386 167.626 292.853 168.952 295.401 168.707C295.401 168.707 294.554 168.128 293.996 167.079C293.841 166.775 293.7 166.445 293.615 166.069C293.615 166.069 298.845 166.3 301.005 166.069C301.81 165.977 302.663 166.154 303.503 166.445C304.597 166.835 305.656 167.428 306.488 167.963H306.495C306.778 168.147 307.032 168.319 307.257 168.477C307.723 168.781 308.098 169.335 308.436 169.974C308.641 170.371 308.832 170.799 309.001 171.235C309.41 172.244 309.742 173.26 310.088 173.879C310.257 174.183 310.236 174.691 310.088 175.318Z" fill="#58BAD3"/>
<path fill-rule="evenodd" clip-rule="evenodd" d="M303.505 166.442C301.985 166.181 300.195 166.358 299.563 166.424C298.753 166.516 296.599 166.424 295.887 166.424C295.166 166.424 293.614 166.07 293.614 166.07C293.614 166.07 298.842 166.302 301.006 166.07C301.806 165.976 302.666 166.153 303.505 166.442Z" fill="#85E4E0"/>
<path fill-rule="evenodd" clip-rule="evenodd" d="M294.632 176.772C294.632 176.772 293.545 177.676 292.853 177.798C292.152 177.918 284.177 177.369 284.177 177.369C284.177 177.369 282.853 176.484 283.208 175.346C283.891 175.625 285.413 176.185 286.796 176.232C288.644 176.288 291.529 176.278 292.448 176.372C293.357 176.474 294.632 176.772 294.632 176.772Z" fill="#0099B8"/>
<path fill-rule="evenodd" clip-rule="evenodd" d="M292.31 173.556C292.31 173.556 290.619 173.733 289.592 173.798C288.575 173.854 284.553 173.313 284.553 173.313L284.543 173.285C284.523 173.183 284.474 172.875 284.543 172.493C285.443 172.679 287.646 173.117 288.427 173.192C289.435 173.285 292.31 173.556 292.31 173.556Z" fill="#0099B8"/>
<path fill-rule="evenodd" clip-rule="evenodd" d="M288.891 171.234L286.47 170.666C286.47 170.666 286.44 170.162 286.668 169.519L288.891 171.234Z" fill="#0099B8"/>
<path fill-rule="evenodd" clip-rule="evenodd" d="M303.031 168.139C303.031 168.139 299.089 169.005 295.403 168.707C295.403 168.707 294.553 168.129 294 167.076C294.04 167.085 294.198 167.095 294.81 167.076C295.769 167.057 297.676 168.046 298.822 168.139C299.969 168.232 303.031 168.139 303.031 168.139Z" fill="#0099B8"/>
<path fill-rule="evenodd" clip-rule="evenodd" d="M299.682 168.642C298.783 168.764 294.504 169.286 292.755 169.09C291.312 168.922 288.872 168.372 287.686 168.092C287.883 167.925 288.12 167.766 288.387 167.626C288.387 167.626 292.854 168.95 295.404 168.708C297.044 168.838 299.089 168.689 299.682 168.642Z" fill="#85E4E0"/>
<path fill-rule="evenodd" clip-rule="evenodd" d="M310.088 173.879C309.742 173.26 309.41 172.244 309.001 171.234C308.832 170.799 308.64 170.37 308.436 169.974C308.098 169.334 307.723 168.781 307.257 168.477C307.032 168.318 306.778 168.147 306.495 167.962H306.488C306.362 167.982 306.015 168.41 305.924 168.767C305.832 169.13 304.721 171.729 304.721 171.729H304.724C304.323 172.681 304.156 173.853 303.426 175.199C301.915 178.016 298.555 179.388 298.52 179.401C297.448 179.764 296.679 179.962 296.679 179.896C296.679 179.718 296.205 175.344 296.205 175.344L294.314 178.636C294.314 178.636 289.72 180.866 288.407 181.096C287.511 181.268 284.906 180.78 283.375 180.457C283.375 180.529 283.396 180.615 283.418 180.687C283.791 182.198 285.711 183.306 285.711 183.306C290.68 185.312 304.654 184.065 306.262 182.422C306.319 182.369 306.368 182.31 306.425 182.251C306.482 182.185 306.538 182.119 306.594 182.053C306.594 182.053 306.602 182.053 306.608 182.047C306.721 181.908 306.848 181.743 306.976 181.571C307.074 181.426 307.18 181.282 307.285 181.123C307.321 181.076 307.349 181.024 307.385 180.978C307.505 180.799 307.618 180.622 307.738 180.423C307.843 180.258 307.942 180.094 308.041 179.922C308.041 179.915 308.048 179.915 308.048 179.909C308.091 179.857 308.119 179.797 308.154 179.745C308.218 179.632 308.28 179.52 308.338 179.408C308.436 179.243 308.52 179.078 308.612 178.906C308.62 178.894 308.627 178.873 308.64 178.861C308.719 178.708 308.796 178.557 308.867 178.405C308.937 178.266 309.008 178.128 309.072 177.989C309.191 177.752 309.297 177.521 309.389 177.29C309.459 177.138 309.523 176.986 309.579 176.841C309.679 176.597 309.77 176.36 309.847 176.129C309.947 175.845 310.024 175.575 310.088 175.324V175.318C310.236 174.691 310.257 174.183 310.088 173.879Z" fill="#0099B8"/>
<path fill-rule="evenodd" clip-rule="evenodd" d="M291.209 76.2425C291.086 75.0194 290.552 73.9375 289.271 73.7079C288.2 73.516 286.937 73.8465 286.238 74.7364C285.297 75.282 285.032 77.794 284.94 78.4894C284.843 79.2355 284.794 79.9862 284.706 80.733C284.609 81.5529 284.208 82.5985 284.123 83.5307C284.084 83.9529 284.104 84.4199 284.353 84.7755C284.692 85.2584 285.296 85.327 285.829 85.2228C287.036 84.9879 288.15 84.0954 288.963 83.1982C290.613 81.3768 291.459 78.7242 291.209 76.2425Z" fill="#FFD3D1"/>
<path fill-rule="evenodd" clip-rule="evenodd" d="M278.822 92.333C278.456 93.8807 278.446 96.9667 278.526 99.7822C278.614 102.897 278.694 103.662 278.694 103.662C278.694 103.662 277.932 108.443 270.985 109.04C264.048 109.646 258.752 101.964 258.752 101.964C259.237 100.538 259.602 98.7287 259.87 97.0696C260.284 94.5331 260.462 92.333 260.462 92.333C260.462 92.333 279.593 89.0788 278.822 92.333Z" fill="#FFD3D1"/>
<path fill-rule="evenodd" clip-rule="evenodd" d="M278.822 92.333C278.456 93.8807 278.446 96.9667 278.525 99.7822C276.578 101.908 273.911 103.931 270.985 103.633C266.875 103.213 262.29 99.3719 259.87 97.0696C260.284 94.5331 260.462 92.333 260.462 92.333C260.462 92.333 279.593 89.0788 278.822 92.333Z" fill="#FF9BA1"/>
<path fill-rule="evenodd" clip-rule="evenodd" d="M288.677 64.112C288.711 60.6275 288.108 57.0646 285.798 54.3031C283.381 51.4144 279.611 49.8324 275.831 49.2579C267.688 48.0209 258.786 50.6518 254.398 57.5745C252.927 59.894 251.896 62.6218 251.409 65.4004C251.315 65.3166 250.395 72.3851 250.246 75.8096C250.109 78.9187 250.307 82.0574 251.355 85.028C253.136 90.07 257.138 93.6884 261.618 96.6959C263.843 98.1887 266.256 99.8841 269.039 100.24C271.77 100.588 274.101 99.3399 276.096 97.6966C280.86 93.7721 285.463 88.7203 287.507 82.983C288.703 79.6232 288.62 76.179 288.794 72.6899C288.934 69.8744 289.421 66.8873 288.677 64.112Z" fill="#FAE0BD"/>
<path fill-rule="evenodd" clip-rule="evenodd" d="M253.631 75.5069C253.515 74.5121 253.013 72.9704 251.892 72.6307C251.839 72.6142 251.791 72.6182 251.743 72.628C251.427 72.3648 251.041 72.1801 250.594 72.0996C249.749 71.9473 248.735 72.0766 248.079 72.6393C247.273 73.3293 246.995 74.5636 246.849 75.5326C246.685 76.6224 246.679 77.7373 246.818 78.8311C247.1 81.0569 248.39 83.3143 250.671 84.2088C251.519 84.542 252.321 84.4905 252.609 83.563C252.767 83.0504 252.839 82.5022 252.958 81.9804C253.133 81.2119 253.308 80.4414 253.427 79.6629C253.632 78.3264 253.787 76.8566 253.631 75.5069Z" fill="#FFD3D1"/>
<path fill-rule="evenodd" clip-rule="evenodd" d="M273.221 90.1199C272.915 90.0961 272.716 90.2709 272.475 90.4174C272.24 90.5605 271.99 90.6846 271.73 90.7828C271.19 90.986 270.609 91.1054 270.027 91.1305C269.448 91.1556 268.873 91.0903 268.318 90.9313C268.047 90.8534 267.79 90.7466 267.549 90.6061C267.491 90.5731 267.439 90.5315 267.374 90.5084C267.353 90.5005 267.268 90.4715 267.249 90.4675C267.116 90.4075 266.988 90.3059 266.877 90.2182C266.693 90.0737 266.381 90.2577 266.525 90.4741C266.612 90.6041 266.705 90.74 266.816 90.8534C266.904 90.9425 266.955 91.0507 267.114 91.1622C267.374 91.3449 267.656 91.4887 267.956 91.6068C268.595 91.8588 269.295 91.9446 269.986 91.9195C270.683 91.8931 271.38 91.7605 272.027 91.5125C272.531 91.3192 273.478 90.9781 273.483 90.3679C273.485 90.2254 273.361 90.1311 273.221 90.1199Z" fill="#FF6969"/>
<path fill-rule="evenodd" clip-rule="evenodd" d="M272.751 83.9702C272.632 83.4504 272.256 83.1364 271.89 82.7643C271.768 82.6397 271.752 82.42 271.726 82.2082C271.68 81.8197 271.663 81.4371 271.585 81.0525C271.555 80.906 271.303 80.9067 271.272 81.0525C271.202 81.3889 271.148 81.7174 271.124 82.0598C271.107 82.3144 271.099 82.5849 271.188 82.8303C271.33 83.2268 271.745 83.4392 271.943 83.8033C272.025 83.9537 272.068 84.1094 272.072 84.2592C272.076 84.4129 272.055 84.5184 271.98 84.6207C271.967 84.6359 271.952 84.6497 271.936 84.6636C271.924 84.6721 271.926 84.6721 271.921 84.6754C271.916 84.6787 271.916 84.6781 271.904 84.6853C271.891 84.6926 271.879 84.6985 271.866 84.7045C271.862 84.7045 271.854 84.7071 271.834 84.7137C271.822 84.717 271.777 84.7216 271.767 84.7229C271.675 84.7269 271.664 84.7249 271.55 84.6919C271.38 84.6438 271.254 84.653 271.085 84.7005C270.876 84.7592 270.783 84.9809 270.886 85.161C270.987 85.3345 271.107 85.4433 271.32 85.4803C271.462 85.5053 271.606 85.5198 271.751 85.506C272.004 85.4809 272.248 85.3952 272.431 85.223C272.778 84.8991 272.85 84.4043 272.751 83.9702Z" fill="#FF9BA1"/>
<path fill-rule="evenodd" clip-rule="evenodd" d="M277.747 74.6708C277.543 74.3917 276.953 74.4676 276.756 74.7123C276.725 74.7506 276.691 74.7882 276.661 74.8258C276.578 74.934 276.572 75.0144 276.556 75.1319C276.545 75.2157 276.535 75.2994 276.525 75.3826C276.5 75.5719 276.49 75.7586 276.486 75.9486C276.481 76.1313 276.478 76.3134 276.48 76.4961C276.481 76.5871 276.482 76.6788 276.485 76.7705C276.489 76.8998 276.528 77.0245 276.56 77.1518C276.609 77.3504 276.972 77.5008 277.246 77.4803C277.524 77.4599 277.865 77.3108 277.898 77.0944C277.961 76.692 277.939 76.2896 277.955 75.8865C277.962 75.7038 277.968 75.5244 277.961 75.343C277.958 75.2533 277.959 75.1622 277.95 75.0725C277.934 74.9162 277.844 74.804 277.747 74.6708Z" fill="#00143B"/>
<path fill-rule="evenodd" clip-rule="evenodd" d="M280.728 70.1329C280.527 69.9752 280.334 69.8057 280.119 69.6652C279.536 69.2839 278.748 69.1836 278.055 69.1546C276.653 69.0958 275.393 69.8532 274.692 70.9746C274.543 71.2134 274.943 71.4364 275.121 71.2273C275.869 70.3486 277.085 69.8723 278.268 69.9818C278.808 70.0313 279.357 70.123 279.786 70.4502C280.074 70.6705 280.608 71.2748 281.026 71.0841C281.237 70.9878 281.313 70.809 281.255 70.5966C281.199 70.3928 280.895 70.2628 280.728 70.1329Z" fill="#FF9043"/>
<path fill-rule="evenodd" clip-rule="evenodd" d="M262.057 74.6708C262.26 74.3917 262.851 74.4676 263.049 74.7123C263.079 74.7506 263.113 74.7882 263.143 74.8258C263.226 74.934 263.233 75.0144 263.248 75.1319C263.259 75.2157 263.269 75.2994 263.279 75.3826C263.303 75.5719 263.313 75.7586 263.318 75.9486C263.322 76.1313 263.325 76.3134 263.324 76.4961C263.323 76.5871 263.322 76.6788 263.319 76.7705C263.315 76.8998 263.276 77.0245 263.245 77.1518C263.195 77.3504 262.833 77.5008 262.558 77.4803C262.28 77.4599 261.939 77.3108 261.906 77.0944C261.844 76.692 261.864 76.2896 261.849 75.8865C261.842 75.7038 261.836 75.5244 261.843 75.343C261.847 75.2533 261.845 75.1622 261.854 75.0725C261.87 74.9162 261.96 74.804 262.057 74.6708Z" fill="#00143B"/>
<path fill-rule="evenodd" clip-rule="evenodd" d="M259.075 70.1329C259.277 69.9752 259.47 69.8057 259.685 69.6652C260.269 69.2839 261.056 69.1836 261.75 69.1546C263.151 69.0958 264.411 69.8532 265.112 70.9746C265.261 71.2134 264.86 71.4364 264.683 71.2273C263.936 70.3486 262.719 69.8723 261.536 69.9818C260.996 70.0313 260.448 70.123 260.019 70.4502C259.73 70.6705 259.196 71.2748 258.778 71.0841C258.567 70.9878 258.492 70.809 258.55 70.5966C258.605 70.3928 258.91 70.2628 259.075 70.1329Z" fill="#FF9043"/>
<path fill-rule="evenodd" clip-rule="evenodd" d="M282.967 83.0894C282.967 83.6046 281.926 84.0222 280.64 84.0222C279.355 84.0222 278.313 83.6046 278.313 83.0894C278.313 82.5748 279.355 82.1572 280.64 82.1572C281.926 82.1572 282.967 82.5748 282.967 83.0894Z" fill="#FFBCC1"/>
<path fill-rule="evenodd" clip-rule="evenodd" d="M262.694 83.0894C262.694 83.6046 261.652 84.0222 260.367 84.0222C259.082 84.0222 258.04 83.6046 258.04 83.0894C258.04 82.5748 259.082 82.1572 260.367 82.1572C261.652 82.1572 262.694 82.5748 262.694 83.0894Z" fill="#FFBCC1"/>
<path fill-rule="evenodd" clip-rule="evenodd" d="M285.775 85.6096L284.916 85.3068C284.939 85.2488 287.277 79.4251 287.99 75.3442L288.895 75.4821C288.167 79.648 285.872 85.3682 285.775 85.6096Z" fill="white"/>
<path fill-rule="evenodd" clip-rule="evenodd" d="M286.071 83.8393C286.071 83.8393 286.028 84.1553 285.937 84.6639C285.761 85.7392 285.387 87.678 284.801 89.2025C282.98 93.9714 275.697 101.209 272.323 101.802C268.837 102.415 265.223 101.209 260.939 98.3121C260.29 97.8708 259.654 97.382 259.055 96.8608C255.689 94.0044 253.197 90.3959 253.197 90.3959C253.197 90.3959 253.748 84.0966 254.842 83.2456C255.936 82.3946 275.697 77.7966 286.071 83.8393Z" fill="white"/>
<path fill-rule="evenodd" clip-rule="evenodd" d="M285.937 84.6642C285.76 85.7395 285.387 87.6783 284.801 89.2028C282.98 93.9717 275.696 101.209 272.323 101.802C268.837 102.416 265.223 101.209 260.939 98.3124C260.29 97.8711 259.655 97.3823 259.055 96.8611L257.297 94.2224C257.297 94.2224 259.111 95.7001 260.368 95.8327C260.368 95.8327 265.414 96.3927 266.685 96.1421C267.955 95.8854 269.359 92.7585 269.359 92.7585C269.359 92.7585 275.428 91.0889 277.221 91.0889C279.013 91.0889 281.201 88.2925 281.166 86.5047C281.131 84.717 281.166 82.1831 281.166 82.1831C281.166 82.1831 284.059 83.0341 285.937 84.6642Z" fill="#F0F0F0"/>
<path fill-rule="evenodd" clip-rule="evenodd" d="M254.783 83.8405C254.745 83.76 251.05 75.7712 249.636 73.8713L250.389 73.3818C251.856 75.3517 255.472 83.1683 255.625 83.5001L254.783 83.8405Z" fill="white"/>
<path fill-rule="evenodd" clip-rule="evenodd" d="M253.2 90.3951C253.165 90.3396 249.79 84.7778 248.246 80.5321L249.115 80.2563C250.631 84.4256 253.963 89.9155 253.997 89.9709L253.2 90.3951Z" fill="white"/>
<path fill-rule="evenodd" clip-rule="evenodd" d="M291.541 65.2826C290.99 71.5826 287.052 82.1567 287.052 82.1567C287.574 79.7092 287.652 76.0546 286.791 73.0141C286.375 71.5232 285.732 70.184 284.801 69.2004C284.074 68.4352 282.832 67.7894 281.272 67.2544V67.2478C276.741 65.6982 269.528 65.1176 264.581 65.6256C257.933 66.3051 254.474 68.9438 252.562 73.1988C250.995 76.6813 251.278 83.9708 251.426 86.5046C251.468 87.0588 251.489 87.4012 251.489 87.4012C251.489 87.4012 247.551 84.862 245.095 80.6064C244.128 78.9308 243.528 76.1806 243.218 73.212C242.738 68.6206 242.957 63.5205 243.585 61.1331C243.592 61.1193 243.598 61.1133 243.598 61.0995C244.199 57.5312 245.652 54.2394 247.826 51.4094C252.019 45.9604 262.76 40.26 276.148 44.0862C278.026 44.6271 279.698 45.3073 281.166 46.0989C284.187 47.7145 286.396 49.7931 287.991 52.0486C291.153 56.5219 291.851 61.68 291.541 65.2826Z" fill="#00CCB2"/>
<path fill-rule="evenodd" clip-rule="evenodd" d="M291.541 65.2823C290.99 71.5823 287.052 82.1564 287.052 82.1564C287.574 79.709 287.652 76.0543 286.791 73.0138C287.123 72.8021 287.433 72.4927 287.68 72.0368C288.718 70.1574 288.922 67.3471 288.986 65.6906C289.056 64.0289 289.875 64.141 290.08 62.1349C290.234 60.5919 289.5 55.5117 287.991 52.0483C291.153 56.5217 291.851 61.6798 291.541 65.2823Z" fill="#00A48F"/>
<path fill-rule="evenodd" clip-rule="evenodd" d="M281.272 67.248C276.741 65.6978 269.528 65.1179 264.581 65.6252C257.933 66.3047 254.474 68.9434 252.561 73.1991C250.995 76.6815 251.278 83.9711 251.426 86.5043C251.285 84.5318 250.91 79.8744 250.536 78.6144C250.057 76.9923 250.812 72.9081 252.04 71.3117C253.267 69.7087 254.086 67.5383 255.624 66.1991C257.164 64.86 257.911 64.86 261.843 64.4114C265.766 63.9634 267.722 63.3493 269.916 63.7847C272.118 64.2201 273.756 64.4773 275.738 64.86C277.722 65.2426 281.272 67.248 281.272 67.248Z" fill="#00DABE"/>
<path fill-rule="evenodd" clip-rule="evenodd" d="M276.148 44.0862C262.76 40.26 252.019 45.9604 247.826 51.4094C245.652 54.2394 244.199 57.5313 243.599 61.0995C243.599 61.1134 243.592 61.1193 243.585 61.1331C242.957 63.5205 242.738 68.6199 243.218 73.2113C243.641 69.874 244.432 63.5872 244.728 61.5487C245.046 59.3606 246.377 56.3339 248.353 53.6239C247.93 55.2006 248.247 56.3313 248.247 56.3313C248.523 58.5109 250.673 56.9428 251.766 55.4104C252.859 53.8786 255.181 52.2821 257.298 50.1942C259.254 48.2646 259.11 46.1279 258.261 45.5613C259.747 44.9807 261.415 44.5605 263.324 44.3831C269.726 43.79 272.062 44.9636 275.33 44.9372C276.713 44.9306 278.992 45.4722 281.166 46.0989C279.698 45.3073 278.025 44.6271 276.148 44.0862Z" fill="#00DABE"/>
<path fill-rule="evenodd" clip-rule="evenodd" d="M282.747 105.701C281.921 110.484 279.931 119.568 276.014 124.746C276.014 124.746 258.976 114.007 253.049 103.511C259.139 101.69 259.231 100.298 259.231 100.298C260.367 101.097 261.461 101.75 262.52 102.284C268.491 105.305 273.184 104.501 275.922 103.425C277.651 102.746 278.597 101.961 278.597 101.961C279.056 103.577 282.274 105.431 282.698 105.675C282.732 105.695 282.747 105.701 282.747 105.701Z" fill="white"/>
<path fill-rule="evenodd" clip-rule="evenodd" d="M309.672 177.126L309.662 177.145C309.445 177.733 309.128 178.413 308.674 179.187V179.197C307.784 180.697 306.391 182.515 304.197 184.51C303.871 184.8 303.525 185.088 303.18 185.378C296.678 190.785 281.944 196.015 276.401 196.379C273.99 196.538 265.314 194.831 256.084 192.733C256.016 192.725 255.986 192.715 255.986 192.715C243.99 189.992 231.114 186.646 229.928 185.918C224.761 182.748 222.28 177.798 221.707 175.048C221.598 174.554 221.529 173.91 221.49 173.192C221.282 169.902 221.618 164.979 221.618 164.979L241.016 167.505L240.512 171.328L240.255 173.313C240.255 173.313 248.861 177.257 255.749 181.052C262.626 184.846 275.442 187.354 275.442 187.354L275.453 187.344C279.474 183.028 286.341 181.76 287.172 181.052C288.002 180.334 294.375 174.367 295.521 174.19C296.678 174.004 296.292 176.167 295.146 178.879C294.049 181.471 290.758 183.569 290.492 183.737C290.837 183.653 296.43 182.152 299.82 180.334C299.82 180.334 299.83 180.334 299.85 180.325C300.828 179.793 301.618 179.243 302.033 178.693C303.94 176.167 306.045 172.204 307.191 172.204C307.33 172.204 307.449 172.241 307.567 172.316C308.417 172.838 308.713 175.048 308.713 175.048C308.713 175.048 309.869 174.544 310.057 175.048C310.126 175.234 310.097 175.98 309.672 177.126Z" fill="#58BAD3"/>
<path fill-rule="evenodd" clip-rule="evenodd" d="M307.567 172.316C306.648 172.94 304.997 175.02 303.703 177.126C302.27 179.448 300.107 180.241 299.85 180.324C300.828 179.793 301.618 179.242 302.033 178.693C303.94 176.166 306.045 172.204 307.192 172.204C307.33 172.204 307.448 172.241 307.567 172.316Z" fill="#85E4E0"/>
<path fill-rule="evenodd" clip-rule="evenodd" d="M295.522 174.19C295.522 174.19 292.449 176.372 291.223 178.907C289.998 181.443 286.252 182.394 283.15 183.569C280.146 184.706 275.729 187.196 275.452 187.344C279.474 183.028 286.341 181.761 287.172 181.051C288.002 180.334 294.375 174.367 295.522 174.19Z" fill="#85E4E0"/>
<path fill-rule="evenodd" clip-rule="evenodd" d="M309.662 177.145C309.444 177.733 309.128 178.413 308.674 179.187V179.196C307.784 180.697 306.391 182.516 304.198 184.51C303.872 184.8 303.526 185.088 303.179 185.377C296.678 190.785 281.945 196.015 276.401 196.379C273.99 196.537 265.314 194.831 256.084 192.733C257.488 192.939 273.615 195.278 276.915 194.934C280.354 194.58 296.262 188.906 300.403 186.394C307.383 182.159 309.355 177.555 309.662 177.145Z" fill="#0099B8"/>
<path fill-rule="evenodd" clip-rule="evenodd" d="M273.967 194.884C273.882 195.379 273.791 195.828 273.699 196.204C273.481 197.107 273.283 197.648 273.283 197.648C273.283 197.648 272.323 197.391 269.591 197.009C266.861 196.626 232.166 189.217 228.474 186.922C228.467 186.922 228.467 186.915 228.461 186.915C224.784 184.613 221.297 179.236 220.69 176.023C220.606 175.569 220.513 174.632 220.443 173.306C220.02 165.225 220.259 142.552 225.905 124.443C229.413 113.196 234.643 110.569 234.946 110.411L234.96 110.398C235.207 110.478 235.433 110.557 235.659 110.655C235.715 110.669 235.78 110.688 235.835 110.714C247.057 115.187 246.845 134.978 244.841 150.283C244.446 153.291 243.98 156.128 243.521 158.635C243.465 158.951 243.401 159.261 243.338 159.577C242.491 164.103 241.679 167.435 241.383 168.589C241.341 168.74 241.305 168.893 241.27 169.037C240.733 171.353 240.359 172.877 240.359 172.877C240.359 172.877 247.734 175.813 256.083 180.582C264.432 185.345 273.481 186.77 273.481 186.77C273.501 186.83 273.522 186.896 273.537 186.954C273.572 187.047 273.6 187.14 273.629 187.231C274.489 190.056 274.306 192.886 273.967 194.884Z" fill="#FCB0BA"/>
<path fill-rule="evenodd" clip-rule="evenodd" d="M247.276 189.56C250.741 190.695 265.689 193.881 267.164 194.198C265.526 193.96 247.806 191.322 237.148 188.881C233.987 188.162 231.072 187.541 228.461 186.915C224.784 184.613 221.297 179.236 220.69 176.023C220.606 175.568 220.513 174.632 220.443 173.306C221.312 174.308 226.011 179.763 228.157 181.994C230.529 184.454 243.635 188.366 247.276 189.56Z" fill="#DB909A"/>
<path fill-rule="evenodd" clip-rule="evenodd" d="M120.214 202.069L119.275 212.552L118.048 226.188L116.933 238.584C116.862 238.596 116.785 238.603 116.7 238.61C116.113 238.669 114.497 238.814 112.973 238.708C111.533 238.616 109.162 236.993 107.32 235.219C107.306 235.205 107.285 235.186 107.263 235.166C107.179 235.094 107.101 235.008 107.016 234.915C106.529 234.434 106.092 233.945 105.732 233.477C103.953 231.175 102.317 225.943 102.182 222.625C102.084 220.336 102.295 211.688 102.429 206.516V206.469C102.493 204.147 102.542 202.538 102.542 202.538L120.214 202.069Z" fill="#58BAD3"/>
<path fill-rule="evenodd" clip-rule="evenodd" d="M118.048 226.188L116.933 238.583C116.862 238.596 116.785 238.602 116.7 238.61C114.879 238.755 110.412 237.342 109.19 235.39C107.92 233.351 108.372 227.473 108.739 224.921C109.098 222.368 110.468 218.45 110.834 217.176C111.139 216.094 111.448 214.05 111.534 213.436C111.427 214.524 111.195 220.052 111.195 221.774C111.195 223.647 112.197 225.772 112.655 226.286C113.108 226.795 115.112 226.709 115.747 226.709C116.191 226.709 117.356 226.386 118.048 226.188Z" fill="#0099B8"/>
<path fill-rule="evenodd" clip-rule="evenodd" d="M107.016 234.915C106.53 234.434 106.092 233.945 105.733 233.477C103.953 231.175 102.317 225.943 102.182 222.625C102.084 220.336 102.295 211.688 102.429 206.516C102.465 207.327 102.93 218.014 102.93 219.3C102.93 220.646 103.89 227.025 104.229 228.371C104.554 229.624 105.796 233.484 107.016 234.915Z" fill="#85E4E0"/>
<path fill-rule="evenodd" clip-rule="evenodd" d="M120.214 202.069L119.275 212.552C118.626 210.203 117.85 207.136 117.342 206.516C116.524 205.513 102.542 202.538 102.542 202.538L120.214 202.069Z" fill="#0099B8"/>
<path fill-rule="evenodd" clip-rule="evenodd" d="M120.214 203.046L108.943 202.723L102.542 202.537L102.182 199.127L112.423 199.272L119.939 199.385L120.214 203.046Z" fill="#00CCB2"/>
<path fill-rule="evenodd" clip-rule="evenodd" d="M120.214 203.046L108.943 202.723L112.422 199.272L119.938 199.385L120.214 203.046Z" fill="#00A48F"/>
<path fill-rule="evenodd" clip-rule="evenodd" d="M124.307 127.631C123.884 133.528 123.382 141.187 122.875 149.301C122.853 149.744 122.825 150.179 122.797 150.621C121.379 173.493 119.939 199.385 119.939 199.385L112.422 199.273L102.182 199.128C102.182 199.128 98.8999 192.748 98.8999 187.636C98.8999 182.602 100.227 159.962 100.269 150.258V149.842C100.269 149.559 100.276 149.255 100.283 148.939C100.609 138.667 106.113 110.901 109.557 98.5188C113.107 85.7473 123.764 74.0049 123.764 74.0049C123.764 74.0049 124.082 78.5369 124.392 85.3977C124.879 96.4672 125.323 113.606 124.307 127.631Z" fill="white"/>
<path fill-rule="evenodd" clip-rule="evenodd" d="M124.307 127.631C122.671 150.357 119.939 199.385 119.939 199.385L112.422 199.272L116.114 194.787C116.114 194.787 116.389 167.977 116.389 161.591C116.389 155.205 117.751 136.82 119.395 118.435C120.602 104.911 123.129 91.5325 124.392 85.3975C124.88 96.467 125.324 113.606 124.307 127.631Z" fill="#D0D0D0"/>
<path fill-rule="evenodd" clip-rule="evenodd" d="M122.875 149.301C122.854 149.743 122.825 150.178 122.797 150.62C112.803 150.389 103.403 150.29 100.27 150.257V149.842C100.27 149.559 100.276 149.255 100.283 148.938C103.431 148.971 112.866 149.07 122.875 149.301Z" fill="#B4B4B4"/>
<path fill-rule="evenodd" clip-rule="evenodd" d="M218.631 223.714C218.504 226.887 216.937 231.894 215.229 234.097C214.891 234.546 214.467 235.008 214.001 235.469C213.924 235.562 213.846 235.641 213.769 235.713C213.747 235.734 213.726 235.746 213.712 235.76C211.948 237.462 209.682 239.012 208.306 239.105C206.845 239.203 205.299 239.065 204.742 239.006C204.657 238.999 204.587 238.992 204.516 238.979L203.45 227.118L203.041 222.579L201.375 204.042L218.285 204.49C218.285 204.49 218.335 206.027 218.391 208.251V208.297C218.518 213.245 218.723 221.524 218.631 223.714Z" fill="#58BAD3"/>
<path fill-rule="evenodd" clip-rule="evenodd" d="M203.449 227.12L204.516 238.981C204.583 238.994 204.658 239 204.739 239.007C206.481 239.145 210.756 237.794 211.924 235.926C213.139 233.975 212.708 228.351 212.356 225.908C212.012 223.465 210.702 219.716 210.35 218.498C210.06 217.462 209.763 215.506 209.682 214.918C209.784 215.96 210.007 221.25 210.007 222.897C210.007 224.69 209.047 226.722 208.608 227.215C208.176 227.701 206.258 227.619 205.651 227.619C205.225 227.619 204.111 227.309 203.449 227.12Z" fill="#0099B8"/>
<path fill-rule="evenodd" clip-rule="evenodd" d="M214.004 235.472C214.47 235.011 214.889 234.544 215.233 234.096C216.935 231.892 218.502 226.887 218.63 223.712C218.724 221.521 218.521 213.246 218.394 208.297C218.36 209.073 217.914 219.299 217.914 220.531C217.914 221.818 216.996 227.922 216.672 229.21C216.361 230.409 215.172 234.102 214.004 235.472Z" fill="#85E4E0"/>
<path fill-rule="evenodd" clip-rule="evenodd" d="M212.286 205.856C209.739 206.278 203.083 207.895 203.083 207.895C203.083 207.895 203.536 211.384 203.45 213.515C203.359 215.646 203.083 222.625 203.083 222.625L203.041 222.579L201.375 204.042L218.285 204.491C218.285 204.491 214.828 205.427 212.286 205.856Z" fill="#0099B8"/>
<path fill-rule="evenodd" clip-rule="evenodd" d="M218.836 200.915L218.286 204.49C218.286 204.49 216.324 204.563 213.698 204.629C208.807 204.754 201.602 204.853 200.529 204.404V200.664L210.233 200.796L218.836 200.915Z" fill="#00CCB2"/>
<path fill-rule="evenodd" clip-rule="evenodd" d="M213.698 204.629C208.807 204.754 201.601 204.853 200.528 204.404V200.664L210.232 200.796L213.698 204.629Z" fill="#00A48F"/>
<path fill-rule="evenodd" clip-rule="evenodd" d="M218.836 200.915C218.836 200.915 215.561 201.199 210.924 201.192C207.868 201.192 204.213 201.073 200.529 200.664C200.529 200.664 198.073 145.25 200.26 118.949C201.1 108.817 201.658 99.8245 202.025 92.5943C202.611 81.0498 202.716 74.0044 202.716 74.0044C202.716 74.0044 208.454 76.8081 214.192 84.217C219.93 91.6246 224.574 122.775 225.117 147.547C225.131 148.146 225.138 148.747 225.152 149.335C225.159 149.776 225.166 150.218 225.173 150.654C225.519 173.637 223.804 188.447 218.836 200.915Z" fill="white"/>
<path fill-rule="evenodd" clip-rule="evenodd" d="M205.172 176.151C205.172 176.151 205.6 164.765 205.988 151.488L220.201 149.59L206.03 150.055C206.246 142.507 206.445 134.467 206.542 127.631C206.817 108.223 202.922 89.772 202.922 89.772L202.025 92.5948C201.659 99.8249 201.1 108.817 200.26 118.949C198.073 145.251 200.529 200.664 200.529 200.664C204.213 201.073 207.868 201.192 210.924 201.192L205.723 197.34L205.172 176.151Z" fill="#D0D0D0"/>
<path fill-rule="evenodd" clip-rule="evenodd" d="M225.174 150.654C212.406 150.35 200.112 150.251 199.979 150.251L199.992 148.932C200.127 148.932 212.399 149.031 225.153 149.335C225.159 149.777 225.166 150.219 225.174 150.654Z" fill="#B4B4B4"/>
<path fill-rule="evenodd" clip-rule="evenodd" d="M130.957 69.4062L123.763 74.0029C123.763 74.0029 121.851 123.032 121.304 134.524C120.758 146.015 121.851 177.68 121.851 177.68L116.114 243.307L204.355 244.585C204.355 244.585 200.53 176.148 200.53 175.126C200.53 174.105 204.082 115.626 204.355 105.412C204.629 95.198 202.717 74.0029 202.717 74.0029L192.517 71.2791L130.957 69.4062Z" fill="white"/>
<path fill-rule="evenodd" clip-rule="evenodd" d="M188.783 132.996H174.299V119.458H152.453V132.996H137.969V153.416H152.453V166.955H174.299V153.416H188.783V132.996Z" fill="#F0F0F0"/>
<path fill-rule="evenodd" clip-rule="evenodd" d="M163.704 76.7934C163.51 76.8891 163.301 76.9339 163.085 76.9551C163.349 84.1483 164.352 112.65 164.117 123.025C164.015 127.463 163.733 137.419 163.404 148.949C162.841 168.756 162.204 191.206 162.204 195.555C162.204 202.37 161.933 246.436 161.93 246.881L162.636 246.885C162.639 246.44 162.91 202.372 162.91 195.555C162.91 191.215 163.547 168.769 164.11 148.966C164.438 137.436 164.721 127.478 164.822 123.039C165.061 112.559 164.038 83.6489 163.784 76.7578C163.757 76.7677 163.733 76.7842 163.704 76.7934Z" fill="#D0D0D0"/>
<path fill-rule="evenodd" clip-rule="evenodd" d="M192.518 71.2802C192.518 71.2802 192.504 71.2868 192.483 71.2934C192.095 71.4584 188.764 72.8173 183.492 74.1433C181.043 74.7568 178.177 75.3703 174.994 75.8519C174.966 75.8585 174.938 75.8585 174.91 75.8651C162.989 77.6528 146.616 77.6264 130.956 69.4067C130.956 69.4067 134.597 46.4233 134.597 34.6743C134.597 22.9319 137.512 12.0338 143.708 6.41992C149.898 0.799391 159.002 -0.73108 166.652 0.627873C170.061 1.23478 174.267 3.02913 178.057 5.54913C180.104 6.90149 182.024 8.47154 183.64 10.1867C185.757 12.4297 187.338 14.9101 187.966 17.4828C189.039 21.85 189.49 30.0499 189.752 37.8605C189.794 39.1337 189.836 40.4003 189.872 41.6405C189.879 41.9968 189.893 42.353 189.9 42.7026C190.041 47.6371 190.14 52.0108 190.33 54.5968C190.881 61.9127 191.608 68.5557 192.518 71.2802Z" fill="white"/>
<path fill-rule="evenodd" clip-rule="evenodd" d="M189.75 37.8617L189.752 37.8604C189.491 30.0497 189.039 21.8504 187.966 17.4827C187.338 14.9099 185.757 12.4295 183.64 10.1865C184.409 11.5257 185.228 12.977 185.912 14.2502C187.824 17.8257 188.644 33.2689 188.644 33.2689C188.644 33.2689 180.45 34.5494 179.907 34.6741L179.417 37.6262C179.136 37.6519 178.849 37.6783 178.58 37.702L178.312 38.0846L179.405 49.8271C180.499 49.3191 183.407 45.4006 185.595 44.0416C186.802 43.2902 188.566 42.9004 189.9 42.7024C189.854 41.135 189.806 39.5056 189.75 37.8617Z" fill="#D0D0D0"/>
<path fill-rule="evenodd" clip-rule="evenodd" d="M192.518 71.2804C192.518 71.2804 192.504 71.287 192.483 71.2936C192.017 71.4387 186.837 73.0681 183.492 74.1434C182.716 74.3875 182.038 74.6052 181.544 74.7701C180.514 75.1065 177.916 75.5156 174.995 75.852C174.966 75.8586 174.938 75.8586 174.91 75.8652C170.118 76.4193 164.472 76.7756 163.378 76.3006C163.378 76.3006 175.122 73.4903 177.853 72.0852C180.584 70.6801 187.966 62.2559 188.1 57.2752C188.235 52.2946 188.235 48.0858 188.235 48.0858L187.825 41.5747L189.872 41.6407C189.879 41.9969 189.893 42.3531 189.9 42.7028C190.041 47.6372 190.14 52.0109 190.331 54.5969C190.881 61.9128 191.608 68.5559 192.518 71.2804Z" fill="#D0D0D0"/>
<mask id="mask0_801:2092" style="mask-type:alpha" maskUnits="userSpaceOnUse" x="144" y="21" width="38" height="42">
<path fill-rule="evenodd" clip-rule="evenodd" d="M157.994 21.8447C152.066 22.6789 147.395 25.1802 146.137 29.3492C144.88 33.5175 144.655 58.9042 144.655 59.405C144.655 60.4059 151.146 63.0991 162.306 62.9065C173.273 62.7191 180.497 59.9051 180.497 59.9051C180.497 59.9051 182.608 28.8484 179.733 25.0128C177.715 22.321 170.742 21.437 164.714 21.437C162.153 21.437 159.762 21.5966 157.994 21.8447Z" fill="white"/>
</mask>
<g mask="url(#mask0_801:2092)">
<path fill-rule="evenodd" clip-rule="evenodd" d="M181.771 32.4688C181.296 29.0215 180.182 25.5653 177.247 23.2533C173.547 20.3398 168.269 19.6801 163.616 19.3854C158.627 19.0688 152.937 18.5493 148.94 21.9345C146.987 23.5893 145.301 25.7992 143.75 27.7829C142.109 29.8822 140.635 32.2542 140.558 34.9209C140.554 35.0857 140.618 35.2104 140.714 35.3009C140.533 37.996 140.677 40.6878 140.784 43.3855C140.889 46.0445 140.974 48.5929 141.703 51.1866C142.307 53.335 143.17 55.4563 144.529 57.2888C145.958 59.2137 147.8 60.8246 149.729 62.301C151.738 63.8389 153.837 65.3225 155.958 66.7214C157.683 67.8593 159.62 68.8214 161.795 68.6456C164.398 68.4363 166.983 66.7944 169.132 65.5189C171.49 64.1193 173.744 62.535 175.778 60.7406C179.552 57.411 181.096 52.9854 181.878 48.2911C182.739 43.1258 182.482 37.6432 181.771 32.4688Z" fill="#FFC6AD"/>
</g>
<mask id="mask1_801:2092" style="mask-type:alpha" maskUnits="userSpaceOnUse" x="144" y="21" width="38" height="42">
<path fill-rule="evenodd" clip-rule="evenodd" d="M157.994 21.8447C152.066 22.6789 147.395 25.1802 146.137 29.3492C144.88 33.5175 144.655 58.9042 144.655 59.405C144.655 60.4059 151.146 63.0991 162.306 62.9065C173.273 62.7191 180.497 59.9051 180.497 59.9051C180.497 59.9051 182.608 28.8484 179.733 25.0128C177.715 22.321 170.742 21.437 164.714 21.437C162.153 21.437 159.762 21.5966 157.994 21.8447Z" fill="white"/>
</mask>
<g mask="url(#mask1_801:2092)">
<path fill-rule="evenodd" clip-rule="evenodd" d="M162.418 47.1643C162.321 46.6422 162.409 46.091 162.391 45.5664C162.372 45.0029 162.142 44.3729 162.343 43.8224C162.419 43.6163 162.08 43.5362 161.998 43.7332C161.758 44.3109 161.964 44.968 161.95 45.5664C161.935 46.2358 161.758 46.9188 161.971 47.5766C162.02 47.7252 162.209 47.8079 162.357 47.7232C163.111 47.2955 164.707 47.8344 164.574 48.7991C164.516 49.2255 164.109 49.5622 163.753 49.7929C163.562 49.9182 163.357 50.0274 163.147 50.1231C162.959 50.209 162.737 50.2555 162.596 50.4087C162.477 50.5379 162.5 50.7931 162.715 50.8287C163.263 50.9198 163.987 50.3815 164.378 50.0694C164.842 49.6992 165.232 49.1713 165.159 48.5762C165.025 47.4661 163.499 46.8076 162.418 47.1643Z" fill="#C17E67"/>
</g>
<mask id="mask2_801:2092" style="mask-type:alpha" maskUnits="userSpaceOnUse" x="144" y="21" width="38" height="42">
<path fill-rule="evenodd" clip-rule="evenodd" d="M157.994 21.8447C152.066 22.6789 147.395 25.1802 146.137 29.3492C144.88 33.5175 144.655 58.9042 144.655 59.405C144.655 60.4059 151.146 63.0991 162.306 62.9065C173.273 62.7191 180.497 59.9051 180.497 59.9051C180.497 59.9051 182.608 28.8484 179.733 25.0128C177.715 22.321 170.742 21.437 164.714 21.437C162.153 21.437 159.762 21.5966 157.994 21.8447Z" fill="white"/>
</mask>
<g mask="url(#mask2_801:2092)">
<path fill-rule="evenodd" clip-rule="evenodd" d="M167.624 56.6872C167.161 56.8488 166.755 57.1131 166.288 57.2733C165.798 57.442 165.283 57.566 164.773 57.6675C163.708 57.8788 162.62 57.8723 161.54 57.8012C160.652 57.7424 159.758 57.672 158.882 57.5208C157.983 57.3664 157.001 57.1796 156.283 56.6207C156.079 56.4624 155.784 56.7286 155.987 56.8972C157.43 58.0926 159.497 58.2329 161.328 58.3996C162.508 58.5068 163.696 58.5508 164.872 58.3776C165.855 58.2329 167.264 57.9505 167.95 57.2119C168.149 56.9974 167.964 56.5677 167.624 56.6872Z" fill="#FF6969"/>
</g>
<mask id="mask3_801:2092" style="mask-type:alpha" maskUnits="userSpaceOnUse" x="144" y="21" width="38" height="42">
<path fill-rule="evenodd" clip-rule="evenodd" d="M157.994 21.8447C152.066 22.6789 147.395 25.1802 146.137 29.3492C144.88 33.5175 144.655 58.9042 144.655 59.405C144.655 60.4059 151.146 63.0991 162.306 62.9065C173.273 62.7191 180.497 59.9051 180.497 59.9051C180.497 59.9051 182.608 28.8484 179.733 25.0128C177.715 22.321 170.742 21.437 164.714 21.437C162.153 21.437 159.762 21.5966 157.994 21.8447Z" fill="white"/>
</mask>
<g mask="url(#mask3_801:2092)">
<path fill-rule="evenodd" clip-rule="evenodd" d="M171.148 39.6605C171.145 39.3238 171.088 38.8198 170.609 38.8198C170.132 38.8198 170.068 39.3238 170.082 39.6605C170.091 39.9125 170.103 40.1645 170.116 40.4171C170.13 40.6943 170.152 40.9631 170.201 41.2371C170.247 41.5027 170.25 41.8199 170.479 42.006C170.595 42.0997 170.743 42.1004 170.859 42.006C171.096 41.8128 171.09 41.4742 171.124 41.2003C171.158 40.936 171.163 40.6833 171.159 40.4171C171.154 40.1645 171.15 39.9125 171.148 39.6605Z" fill="#00143B"/>
</g>
<mask id="mask4_801:2092" style="mask-type:alpha" maskUnits="userSpaceOnUse" x="144" y="21" width="38" height="42">
<path fill-rule="evenodd" clip-rule="evenodd" d="M157.994 21.8447C152.066 22.6789 147.395 25.1802 146.137 29.3492C144.88 33.5175 144.655 58.9042 144.655 59.405C144.655 60.4059 151.146 63.0991 162.306 62.9065C173.273 62.7191 180.497 59.9051 180.497 59.9051C180.497 59.9051 182.608 28.8484 179.733 25.0128C177.715 22.321 170.742 21.437 164.714 21.437C162.153 21.437 159.762 21.5966 157.994 21.8447Z" fill="white"/>
</mask>
<g mask="url(#mask4_801:2092)">
<path fill-rule="evenodd" clip-rule="evenodd" d="M173.706 35.2337C173.254 35.005 172.685 34.9772 172.177 34.9326C171.609 34.8828 171.037 34.8732 170.469 34.91C169.399 34.9791 168.26 35.2007 167.393 35.823C167.126 36.0143 167.352 36.4187 167.663 36.2572C168.548 35.7997 169.557 35.6033 170.559 35.5471C171.069 35.5187 171.581 35.5277 172.09 35.5684C172.579 35.6065 173.076 35.7455 173.563 35.7287C173.833 35.7196 173.964 35.3642 173.706 35.2337Z" fill="#00143B"/>
</g>
<mask id="mask5_801:2092" style="mask-type:alpha" maskUnits="userSpaceOnUse" x="144" y="21" width="38" height="42">
<path fill-rule="evenodd" clip-rule="evenodd" d="M157.994 21.8447C152.066 22.6789 147.395 25.1802 146.137 29.3492C144.88 33.5175 144.655 58.9042 144.655 59.405C144.655 60.4059 151.146 63.0991 162.306 62.9065C173.273 62.7191 180.497 59.9051 180.497 59.9051C180.497 59.9051 182.608 28.8484 179.733 25.0128C177.715 22.321 170.742 21.437 164.714 21.437C162.153 21.437 159.762 21.5966 157.994 21.8447Z" fill="white"/>
</mask>
<g mask="url(#mask5_801:2092)">
<path fill-rule="evenodd" clip-rule="evenodd" d="M153.468 39.6605C153.47 39.3238 153.528 38.8198 154.007 38.8198C154.484 38.8198 154.547 39.3238 154.534 39.6605C154.525 39.9125 154.512 40.1645 154.5 40.4171C154.486 40.6943 154.464 40.9631 154.415 41.2371C154.369 41.5027 154.366 41.8199 154.136 42.006C154.021 42.0997 153.873 42.1004 153.757 42.006C153.519 41.8128 153.526 41.4742 153.491 41.2003C153.458 40.936 153.453 40.6833 153.457 40.4171C153.461 40.1645 153.466 39.9125 153.468 39.6605Z" fill="#00143B"/>
</g>
<mask id="mask6_801:2092" style="mask-type:alpha" maskUnits="userSpaceOnUse" x="144" y="21" width="38" height="42">
<path fill-rule="evenodd" clip-rule="evenodd" d="M157.994 21.8447C152.066 22.6789 147.395 25.1802 146.137 29.3492C144.88 33.5175 144.655 58.9042 144.655 59.405C144.655 60.4059 151.146 63.0991 162.306 62.9065C173.273 62.7191 180.497 59.9051 180.497 59.9051C180.497 59.9051 182.608 28.8484 179.733 25.0128C177.715 22.321 170.742 21.437 164.714 21.437C162.153 21.437 159.762 21.5966 157.994 21.8447Z" fill="white"/>
</mask>
<g mask="url(#mask6_801:2092)">
<path fill-rule="evenodd" clip-rule="evenodd" d="M150.909 35.2337C151.362 35.005 151.931 34.9772 152.438 34.9326C153.006 34.8828 153.578 34.8732 154.147 34.91C155.216 34.9791 156.356 35.2007 157.223 35.823C157.489 36.0143 157.264 36.4187 156.953 36.2572C156.067 35.7997 155.058 35.6033 154.057 35.5471C153.546 35.5187 153.035 35.5277 152.526 35.5684C152.036 35.6065 151.539 35.7455 151.053 35.7287C150.783 35.7196 150.652 35.3642 150.909 35.2337Z" fill="#00143B"/>
</g>
<mask id="mask7_801:2092" style="mask-type:alpha" maskUnits="userSpaceOnUse" x="144" y="21" width="38" height="42">
<path fill-rule="evenodd" clip-rule="evenodd" d="M157.994 21.8447C152.066 22.6789 147.395 25.1802 146.137 29.3492C144.88 33.5175 144.655 58.9042 144.655 59.405C144.655 60.4059 151.146 63.0991 162.306 62.9065C173.273 62.7191 180.497 59.9051 180.497 59.9051C180.497 59.9051 182.608 28.8484 179.733 25.0128C177.715 22.321 170.742 21.437 164.714 21.437C162.153 21.437 159.762 21.5966 157.994 21.8447Z" fill="white"/>
</mask>
<g mask="url(#mask7_801:2092)">
<path fill-rule="evenodd" clip-rule="evenodd" d="M182.919 30.642C182.919 30.642 167.429 27.1398 157.857 27.6373C153.005 27.8958 149.503 28.8844 147.234 29.802C146.413 30.1315 145.758 30.4546 145.25 30.7324C144.393 31.1912 143.983 31.5143 143.983 31.5143C143.983 31.5143 142.096 27.017 142.368 23.6377C142.632 20.2583 146.809 16.1358 150.583 14.2555C152.337 13.3832 157.419 13.6223 162.919 14.4106C167.186 15.0244 171.711 15.9743 175.129 17.0017H175.136C176.779 17.4992 178.164 18.0097 179.146 18.5072C181.784 19.8512 182.78 22.578 183.093 25.1044C183.176 25.7564 183.211 26.3967 183.219 26.997C183.239 29.0589 182.919 30.642 182.919 30.642Z" fill="#F5BB40"/>
</g>
<mask id="mask8_801:2092" style="mask-type:alpha" maskUnits="userSpaceOnUse" x="144" y="21" width="38" height="42">
<path fill-rule="evenodd" clip-rule="evenodd" d="M157.994 21.8447C152.066 22.6789 147.395 25.1802 146.137 29.3492C144.88 33.5175 144.655 58.9042 144.655 59.405C144.655 60.4059 151.146 63.0991 162.306 62.9065C173.273 62.7191 180.497 59.9051 180.497 59.9051C180.497 59.9051 182.608 28.8484 179.733 25.0128C177.715 22.321 170.742 21.437 164.714 21.437C162.153 21.437 159.762 21.5966 157.994 21.8447Z" fill="white"/>
</mask>
<g mask="url(#mask8_801:2092)">
<path fill-rule="evenodd" clip-rule="evenodd" d="M183.219 26.9971L181.526 28.0115C181.526 28.0115 177.579 26.2605 174.524 24.846C171.467 23.4303 166.17 23.179 166.17 23.179C166.17 23.179 157.098 23.6758 153.952 24.93C151.557 25.8799 148.549 28.5679 147.234 29.802C146.413 30.1316 145.758 30.4546 145.25 30.7318C143.906 30.6162 144.254 28.6835 144.254 28.6835L144.791 21.5119L150.179 14.8429L162.919 14.4106C167.186 15.0245 171.711 15.9737 175.129 17.0011H175.136L183.093 25.1038C183.176 25.7565 183.211 26.3962 183.219 26.9971Z" fill="#D5A237"/>
</g>
<mask id="mask9_801:2092" style="mask-type:alpha" maskUnits="userSpaceOnUse" x="144" y="21" width="38" height="42">
<path fill-rule="evenodd" clip-rule="evenodd" d="M157.994 21.8447C152.066 22.6789 147.395 25.1802 146.137 29.3492C144.88 33.5175 144.655 58.9042 144.655 59.405C144.655 60.4059 151.146 63.0991 162.306 62.9065C173.273 62.7191 180.497 59.9051 180.497 59.9051C180.497 59.9051 182.608 28.8484 179.733 25.0128C177.715 22.321 170.742 21.437 164.714 21.437C162.153 21.437 159.762 21.5966 157.994 21.8447Z" fill="white"/>
</mask>
<g mask="url(#mask9_801:2092)">
<path fill-rule="evenodd" clip-rule="evenodd" d="M180.9 60.1123C180.252 61.4118 177.99 63.2785 174.857 64.8745C170.138 67.2911 163.426 69.1003 157.279 67.4526C147.038 64.7007 144.972 63.3625 143.802 59.5314C143.175 57.4767 143.3 54.7305 143.544 52.6234C143.6 52.1459 143.663 51.7059 143.725 51.3124C143.9 50.1816 144.074 49.4443 144.074 49.4443C144.074 49.4443 144.804 49.496 145.939 49.5355C148.564 49.6195 153.346 49.6259 156.11 48.6883C158.394 47.9201 160.19 46.989 161.978 46.7047C162.104 46.6859 162.229 46.6659 162.354 46.6601C162.431 46.6465 162.5 46.64 162.57 46.64C163.093 46.5948 163.615 46.6207 164.158 46.724C164.318 46.7563 164.478 46.7958 164.644 46.8475C164.735 46.8662 164.818 46.892 164.909 46.925C165.285 47.0471 165.675 47.2222 166.079 47.4419C169.58 49.3603 173.806 50.1105 176.41 49.9425C179.014 49.7739 181.526 48.941 181.526 48.941C181.526 48.941 182.515 56.8628 180.9 60.1123Z" fill="#58BAD3"/>
</g>
<mask id="mask10_801:2092" style="mask-type:alpha" maskUnits="userSpaceOnUse" x="144" y="21" width="38" height="42">
<path fill-rule="evenodd" clip-rule="evenodd" d="M157.994 21.8447C152.066 22.6789 147.395 25.1802 146.137 29.3492C144.88 33.5175 144.655 58.9042 144.655 59.405C144.655 60.4059 151.146 63.0991 162.306 62.9065C173.273 62.7191 180.497 59.9051 180.497 59.9051C180.497 59.9051 182.608 28.8484 179.733 25.0128C177.715 22.321 170.742 21.437 164.714 21.437C162.153 21.437 159.762 21.5966 157.994 21.8447Z" fill="white"/>
</mask>
<g mask="url(#mask10_801:2092)">
<path fill-rule="evenodd" clip-rule="evenodd" d="M181.526 48.9411C181.526 48.9411 179.014 49.774 176.41 49.9426C173.806 50.1106 169.58 49.3605 166.079 47.442C164.596 46.6279 163.288 46.4922 161.978 46.7048C160.19 46.9891 158.394 47.9202 156.11 48.6885C153.347 49.626 148.563 49.6196 145.939 49.5356L143.725 51.3125C143.662 51.706 143.6 52.146 143.544 52.6235L145.062 52.902C145.062 52.902 151.125 52.7786 154.084 52.0291C156.339 51.4546 160.314 48.9993 162.319 47.7451C162.32 47.7451 162.32 47.7444 162.321 47.7444C162.594 48.1715 162.954 48.7912 163.204 49.4445C163.656 50.6075 163.921 52.7786 164.011 53.9417C164.102 55.1119 164.103 56.0288 164.103 56.0288C164.103 56.0288 165.633 52.6113 166.441 52.4433C167.248 52.2746 168.773 52.1906 169.942 52.6113C171.112 53.0241 173.625 53.4448 173.625 53.4448L177.398 54.5297L178.832 58.53C178.832 58.53 175.602 60.3651 173.535 61.6115C171.468 62.8657 167.067 65.0297 167.067 65.0297L174.857 64.8746C177.99 63.2786 180.252 61.4119 180.901 60.1125C182.515 56.863 181.526 48.9411 181.526 48.9411Z" fill="#0099B8"/>
</g>
<mask id="mask11_801:2092" style="mask-type:alpha" maskUnits="userSpaceOnUse" x="144" y="21" width="38" height="42">
<path fill-rule="evenodd" clip-rule="evenodd" d="M157.994 21.8447C152.066 22.6789 147.395 25.1802 146.137 29.3492C144.88 33.5175 144.655 58.9042 144.655 59.405C144.655 60.4059 151.146 63.0991 162.306 62.9065C173.273 62.7191 180.497 59.9051 180.497 59.9051C180.497 59.9051 182.608 28.8484 179.733 25.0128C177.715 22.321 170.742 21.437 164.714 21.437C162.153 21.437 159.762 21.5966 157.994 21.8447Z" fill="white"/>
</mask>
<g mask="url(#mask11_801:2092)">
<path fill-rule="evenodd" clip-rule="evenodd" d="M151.887 55.1114C152.02 54.8943 155.569 54.6119 156.917 54.4445C158.264 54.2778 160.6 53.1102 160.33 53.8604C160.06 54.6119 158.354 55.2787 158.354 55.2787C158.354 55.2787 155.569 55.6115 154.132 55.7782C152.695 55.9456 151.527 55.6949 151.887 55.1114Z" fill="#85E4E0"/>
</g>
<mask id="mask12_801:2092" style="mask-type:alpha" maskUnits="userSpaceOnUse" x="144" y="21" width="38" height="42">
<path fill-rule="evenodd" clip-rule="evenodd" d="M157.994 21.8447C152.066 22.6789 147.395 25.1802 146.137 29.3492C144.88 33.5175 144.655 58.9042 144.655 59.405C144.655 60.4059 151.146 63.0991 162.306 62.9065C173.273 62.7191 180.497 59.9051 180.497 59.9051C180.497 59.9051 182.608 28.8484 179.733 25.0128C177.715 22.321 170.742 21.437 164.714 21.437C162.153 21.437 159.762 21.5966 157.994 21.8447Z" fill="white"/>
</mask>
<g mask="url(#mask12_801:2092)">
<path fill-rule="evenodd" clip-rule="evenodd" d="M151.258 57.3627C151.446 57.1178 154.761 57.6127 155.749 57.446C156.737 57.2793 159.073 56.7792 158.085 57.5294C157.096 58.2796 154.312 58.1962 154.312 58.1962C154.312 58.1962 150.36 58.5303 151.258 57.3627Z" fill="#85E4E0"/>
</g>
<path fill-rule="evenodd" clip-rule="evenodd" d="M190.463 38.8531V41.677C190.463 42.2515 189.947 42.7215 189.316 42.7215H182.514V37.8086H189.316C189.947 37.8086 190.463 38.2734 190.463 38.8531Z" fill="#00CCB2"/>
<path fill-rule="evenodd" clip-rule="evenodd" d="M186.442 42.7215H182.513V37.8086H185.274C185.678 39.2335 186.187 41.187 186.442 42.7215Z" fill="#00A48F"/>
<path fill-rule="evenodd" clip-rule="evenodd" d="M132.914 38.8531V41.677C132.914 42.2515 133.43 42.7215 134.061 42.7215H140.863V37.8086H134.061C133.43 37.8086 132.914 38.2734 132.914 38.8531Z" fill="#00CCB2"/>
<path fill-rule="evenodd" clip-rule="evenodd" d="M136.935 42.7215H140.863V37.8086H138.103C137.699 39.2335 137.189 41.187 136.935 42.7215Z" fill="#00A48F"/>
<path fill-rule="evenodd" clip-rule="evenodd" d="M140.952 47.2109L141.591 32.6528C141.591 32.6528 149.721 31.0719 155.384 31.155C161.047 31.2388 180.137 32.2363 181.417 32.5696C182.696 32.9023 182.878 39.2246 182.878 40.7223C182.878 42.22 182.309 46.7454 180.584 47.5604C178.859 48.376 172.1 48.6255 169.633 48.2928C167.167 47.9595 163.33 45.2973 161.23 45.8802C159.129 46.4624 154.379 48.0433 151.821 48.7086C149.264 49.374 141.5 49.2077 140.952 47.2109Z" fill="white"/>
<path fill-rule="evenodd" clip-rule="evenodd" d="M149.661 30.5352C148.067 30.5352 146.892 30.5474 146.341 30.5732C142.778 30.7389 140.769 31.5706 140.038 32.902C139.307 34.2327 140.038 47.1275 140.038 47.1275C140.312 49.2912 142.047 49.9566 146.524 49.9566C151 49.9566 155.201 48.8747 159.221 47.2938C160.297 46.8702 161.08 46.6974 161.727 46.6974C163.492 46.6974 164.25 47.9837 167.258 48.9579C168.792 49.455 170.987 49.6967 173.232 49.6967C177.001 49.6967 180.911 49.014 182.057 47.7103C183.883 45.6304 184.248 39.2249 183.518 34.8156C182.987 31.6138 181.783 31.1754 181.162 31.1754C180.928 31.1754 180.777 31.2386 180.777 31.2386C179.619 30.8865 158.365 30.5352 149.661 30.5352ZM149.663 32.4694C159.44 32.4694 178.151 32.8291 180.215 33.1064L180.897 33.3133L180.906 33.3095C181.059 33.6118 181.262 34.1605 181.417 35.1044C182.209 39.8742 181.506 45.2403 180.401 46.4988C179.987 46.9256 177.382 47.7625 173.232 47.7625C171.118 47.7625 169.2 47.5336 167.97 47.1352C166.8 46.7567 166.056 46.3351 165.337 45.9269C164.329 45.3544 163.286 44.7632 161.727 44.7632C160.752 44.7632 159.688 45.003 158.378 45.5182C154.095 47.2035 150.217 48.0223 146.524 48.0223C145.799 48.0223 143.596 48.0223 142.603 47.6007C142.362 47.4982 142.224 47.4395 142.155 46.9605C141.849 41.5124 141.706 35.0225 141.994 33.6815C142.374 33.1811 143.717 32.6318 146.45 32.5042C146.791 32.4881 147.627 32.4694 149.662 32.4694H149.663Z" fill="#00CCB2"/>
<path fill-rule="evenodd" clip-rule="evenodd" d="M130.356 70.7544C130.356 70.7544 154.105 84.065 192.104 72.5848C192.104 72.5848 186.076 77.909 161.229 78.9071C161.229 78.9071 140.403 78.9071 130.356 70.7544Z" fill="#00CCB2"/>
</svg>
