<svg width="58" height="58" viewBox="0 0 58 58" fill="none" xmlns="http://www.w3.org/2000/svg">
<path d="M18.3118 37.2041C16.0045 37.2041 12.5913 38.5536 11.5616 38.9718C11.3709 39.0478 11.2565 39.2379 11.2565 39.428V51.5737C11.2565 51.8207 11.4472 52.0298 11.695 52.0678C13.3159 52.2769 19.2842 53.2083 25.367 56.2875C27.8078 57.5229 31.7549 57.0478 34.8059 56.2875C37.6852 55.5652 54.0077 49.2548 55.8001 48.5515C55.9145 48.5135 55.9908 48.4374 56.048 48.3234C56.3531 47.7722 57.2874 45.8524 56.6201 44.3889C55.8001 42.5832 53.7407 42.184 53.2259 42.127C53.1496 42.108 53.0733 42.127 52.9971 42.146L41.6323 46.3086C41.1747 46.4797 40.7552 45.9475 41.0603 45.5483C41.6133 44.807 42.1472 43.9517 42.1472 43.3435C42.1472 41.8989 41.6705 40.7395 40.6217 40.2073C39.1535 39.466 38.1619 39.542 36.522 39.542H31.488C31.0303 39.542 30.5918 39.485 30.1532 39.3709C28.0366 38.8767 21.3436 37.2041 18.3118 37.2041Z" fill="#FFE0BF"/>
<path d="M0 37.7763C0 36.9368 0.686842 36.25 1.52632 36.25H10.1118C10.9513 36.25 11.6382 36.9368 11.6382 37.7763V53.2303C11.6382 54.0697 10.9513 54.7566 10.1118 54.7566H1.52632C0.686842 54.7566 0 54.0697 0 53.2303V37.7763Z" fill="#E2E4F1"/>
<path d="M57.7255 44.1569C57.3062 43.0145 56.4677 42.1005 55.3623 41.5864C54.2569 41.0723 53.0181 41.0152 51.8555 41.4341L42.9553 44.6901C43.1649 44.176 43.2793 43.6047 43.2793 42.9954C43.2793 40.4821 41.221 38.4257 38.7053 38.4257H30.9295C30.8914 38.4257 30.8533 38.4257 30.7961 38.4066C30.1862 38.2924 24.7736 37.3213 22.2579 36.5407C17.0741 34.9222 10.9945 37.8925 10.7276 38.0068C10.3465 38.1972 10.194 38.6542 10.3846 39.035C10.5752 39.4158 11.0326 39.5681 11.4137 39.3777C11.4709 39.3587 17.1884 36.5597 21.8005 37.9877C24.3544 38.7875 29.5192 39.7204 30.5293 39.8918C30.6627 39.9109 30.7961 39.9299 30.9295 39.9299H38.7053C40.3824 39.9299 41.7546 41.3008 41.7546 42.9764C41.7546 44.652 40.3824 46.0229 38.7053 46.0229H26.3174C25.8981 46.0229 25.555 46.3656 25.555 46.7845C25.555 47.2034 25.8981 47.5462 26.3174 47.5462H38.7053C39.2961 47.5462 39.8679 47.4319 40.3824 47.2225L52.3701 42.8241C53.1325 42.5385 53.971 42.5765 54.6952 42.9193C55.4385 43.262 55.9912 43.8713 56.2771 44.6329C56.8488 46.2133 56.0484 47.9651 54.4665 48.5363L38.0383 54.5722L37.9811 54.5912C37.638 54.7245 29.2905 57.9614 24.2019 55.1624C18.5987 52.0778 11.9855 51.4685 11.6996 51.4495C11.2803 51.4114 10.9182 51.7161 10.8801 52.135C10.842 52.5539 11.1469 52.9156 11.5662 52.9537C11.6234 52.9537 18.1413 53.544 23.4586 56.4762C25.0595 57.3521 27.0416 57.8091 29.3476 57.8091C30.4911 57.8091 31.7109 57.6948 33.0259 57.4854C35.9799 56.9903 38.286 56.0954 38.5338 56.0002L55.0002 49.9643C57.3634 49.1456 58.5831 46.518 57.7255 44.1569Z" fill="#F2D0AC"/>
<path d="M10.1118 54.7566H1.52632C0.686842 54.7566 0 54.0697 0 53.2303V37.7763C0 36.9368 0.686842 36.25 1.52632 36.25H10.1118C10.9513 36.25 11.6382 36.9368 11.6382 37.7763V53.2303C11.6382 54.0697 10.9513 54.7566 10.1118 54.7566ZM1.52632 37.7763V53.2303H10.1118V37.7763H1.52632Z" fill="#CFD1E2"/>
<path d="M28.9044 29C36.9652 29 43.4998 22.5081 43.4998 14.5C43.4998 6.49187 36.9652 0 28.9044 0C20.8436 0 14.309 6.49187 14.309 14.5C14.309 22.5081 20.8436 29 28.9044 29Z" fill="white"/>
<path d="M28.9044 29C20.8531 29 14.309 22.4987 14.309 14.5C14.309 6.50131 20.8531 0 28.9044 0C36.9557 0 43.4998 6.50131 43.4998 14.5C43.4998 22.4987 36.9557 29 28.9044 29ZM28.9044 1.51634C21.6926 1.51634 15.8353 7.33529 15.8353 14.5C15.8353 21.6647 21.6926 27.4837 28.9044 27.4837C36.1163 27.4837 41.9735 21.6647 41.9735 14.5C41.9735 7.33529 36.1163 1.51634 28.9044 1.51634Z" fill="#F0F0F0"/>
<path fill-rule="evenodd" clip-rule="evenodd" d="M28.9047 6.86865C27.817 6.86865 26.9365 7.74917 26.9365 8.83686V12.4366H23.3367C22.249 12.4366 21.3685 13.3171 21.3685 14.4048C21.3685 15.4925 22.249 16.373 23.3367 16.373H26.9365V19.9728C26.9365 21.0605 27.817 21.941 28.9047 21.941C29.9924 21.941 30.8729 21.0605 30.8729 19.9728V16.373H34.4727C35.5604 16.373 36.4409 15.4925 36.4409 14.4048C36.4409 13.3171 35.5604 12.4366 34.4727 12.4366H30.8729V8.83686C30.8729 7.74917 29.9924 6.86865 28.9047 6.86865Z" fill="#FF624E"/>
<path d="M34.4541 11.1725H32.1364V8.85478C32.1364 7.02635 30.6427 5.53271 28.8143 5.53271C26.9859 5.53271 25.4922 7.02635 25.4922 8.85478V11.1725H23.3548C21.5264 11.1725 20.0327 12.6661 20.0327 14.4946C20.0327 16.323 21.5264 17.8166 23.3548 17.8166H25.4922V19.9541C25.4922 21.7825 26.9859 23.2761 28.8143 23.2761C30.6427 23.2761 32.1364 21.7825 32.1364 19.9541V17.8166H34.4541C36.2825 17.8166 37.7761 16.323 37.7761 14.4946C37.7761 12.6404 36.2825 11.1725 34.4541 11.1725ZM34.4541 15.7564H31.1063C30.5397 15.7564 30.0762 16.22 30.0762 16.7865V19.9541C30.0762 20.6494 29.5096 21.2159 28.8143 21.2159C28.119 21.2159 27.5524 20.6494 27.5524 19.9541V16.8638C27.5524 16.838 27.5524 16.838 27.5524 16.8123C27.5524 16.7865 27.5524 16.7865 27.5524 16.7608C27.5524 16.1942 27.0889 15.7307 26.5223 15.7307H23.3548C22.6595 15.7307 22.0929 15.1641 22.0929 14.4688C22.0929 13.7735 22.6595 13.2069 23.3548 13.2069H26.5223C27.0889 13.2069 27.5524 12.7434 27.5524 12.1768V8.82903C27.5524 8.13371 28.119 7.56715 28.8143 7.56715C29.5096 7.56715 30.0762 8.13371 30.0762 8.82903V12.1768C30.0762 12.7434 30.5397 13.2069 31.1063 13.2069H34.4541C35.1494 13.2069 35.7159 13.7735 35.7159 14.4688C35.7159 15.1899 35.1494 15.7564 34.4541 15.7564Z" fill="#CF422F"/>
</svg>
