<svg width="28" height="40" viewBox="0 0 28 40" fill="none" xmlns="http://www.w3.org/2000/svg">
<path d="M1.024 35.0986C0.922667 35.0986 0.842667 35.0693 0.784 35.0106C0.725333 34.9466 0.696 34.8639 0.696 34.7626V29.7386C0.696 29.6426 0.725333 29.5653 0.784 29.5066C0.848 29.4479 0.930667 29.4186 1.032 29.4186H2.928C3.52 29.4186 3.97867 29.5626 4.304 29.8506C4.63467 30.1386 4.8 30.5466 4.8 31.0746C4.8 31.6026 4.63467 32.0133 4.304 32.3066C3.97333 32.5999 3.51467 32.7466 2.928 32.7466H1.352V34.7626C1.352 34.8639 1.32267 34.9466 1.264 35.0106C1.20533 35.0693 1.12533 35.0986 1.024 35.0986ZM2.864 32.2026C3.72267 32.2026 4.152 31.8266 4.152 31.0746C4.152 30.3333 3.72267 29.9626 2.864 29.9626H1.352V32.2026H2.864ZM7.72425 31.0666C8.18292 31.0666 8.52958 31.1973 8.76425 31.4586C8.99892 31.7146 9.11625 32.0986 9.11625 32.6106V34.7786C9.11625 34.8799 9.08692 34.9599 9.02825 35.0186C8.96958 35.0719 8.89225 35.0986 8.79625 35.0986C8.69492 35.0986 8.61492 35.0719 8.55625 35.0186C8.49758 34.9599 8.46825 34.8799 8.46825 34.7786V32.6266C8.46825 32.2799 8.39625 32.0239 8.25225 31.8586C8.11358 31.6933 7.88958 31.6106 7.58025 31.6106C7.22292 31.6106 6.93758 31.7199 6.72425 31.9386C6.51092 32.1573 6.40425 32.4533 6.40425 32.8266V34.7786C6.40425 34.8799 6.37492 34.9599 6.31625 35.0186C6.26292 35.0719 6.18558 35.0986 6.08425 35.0986C5.98292 35.0986 5.90292 35.0719 5.84425 35.0186C5.78558 34.9599 5.75625 34.8799 5.75625 34.7786V29.6906C5.75625 29.5999 5.78558 29.5253 5.84425 29.4666C5.90825 29.4079 5.98825 29.3786 6.08425 29.3786C6.18558 29.3786 6.26292 29.4079 6.31625 29.4666C6.37492 29.5199 6.40425 29.5946 6.40425 29.6906V31.7866C6.53225 31.5519 6.71092 31.3733 6.94025 31.2506C7.16958 31.1279 7.43092 31.0666 7.72425 31.0666ZM11.9191 35.1146C11.5511 35.1146 11.2258 35.0319 10.9431 34.8666C10.6658 34.7013 10.4498 34.4666 10.2951 34.1626C10.1458 33.8533 10.0711 33.4959 10.0711 33.0906C10.0711 32.6853 10.1458 32.3306 10.2951 32.0266C10.4498 31.7173 10.6658 31.4799 10.9431 31.3146C11.2258 31.1493 11.5511 31.0666 11.9191 31.0666C12.2871 31.0666 12.6125 31.1493 12.8951 31.3146C13.1778 31.4799 13.3938 31.7173 13.5431 32.0266C13.6978 32.3306 13.7751 32.6853 13.7751 33.0906C13.7751 33.4959 13.6978 33.8533 13.5431 34.1626C13.3938 34.4666 13.1778 34.7013 12.8951 34.8666C12.6125 35.0319 12.2871 35.1146 11.9191 35.1146ZM11.9191 34.5786C12.3031 34.5786 12.5965 34.4533 12.7991 34.2026C13.0071 33.9466 13.1111 33.5759 13.1111 33.0906C13.1111 32.6159 13.0071 32.2506 12.7991 31.9946C12.5911 31.7333 12.2978 31.6026 11.9191 31.6026C11.5405 31.6026 11.2471 31.7333 11.0391 31.9946C10.8311 32.2506 10.7271 32.6159 10.7271 33.0906C10.7271 33.5706 10.8285 33.9386 11.0311 34.1946C11.2391 34.4506 11.5351 34.5786 11.9191 34.5786ZM16.7006 31.0666C17.634 31.0666 18.1006 31.5813 18.1006 32.6106V34.7786C18.1006 34.8799 18.0713 34.9599 18.0126 35.0186C17.9593 35.0719 17.882 35.0986 17.7806 35.0986C17.6793 35.0986 17.5993 35.0719 17.5406 35.0186C17.482 34.9599 17.4526 34.8799 17.4526 34.7786V32.6506C17.4526 32.2879 17.3806 32.0239 17.2366 31.8586C17.098 31.6933 16.874 31.6106 16.5646 31.6106C16.2073 31.6106 15.922 31.7199 15.7086 31.9386C15.4953 32.1573 15.3886 32.4533 15.3886 32.8266V34.7786C15.3886 34.8799 15.3593 34.9599 15.3006 35.0186C15.2473 35.0719 15.17 35.0986 15.0686 35.0986C14.9673 35.0986 14.8873 35.0719 14.8286 35.0186C14.77 34.9599 14.7406 34.8799 14.7406 34.7786V31.4026C14.7406 31.3066 14.77 31.2293 14.8286 31.1706C14.8873 31.1119 14.9673 31.0826 15.0686 31.0826C15.1646 31.0826 15.2393 31.1119 15.2926 31.1706C15.3513 31.2293 15.3806 31.3039 15.3806 31.3946V31.8026C15.5086 31.5626 15.6873 31.3813 15.9166 31.2586C16.146 31.1306 16.4073 31.0666 16.7006 31.0666ZM22.3035 34.1546C22.3622 34.1546 22.4128 34.1786 22.4555 34.2266C22.4982 34.2746 22.5195 34.3359 22.5195 34.4106C22.5195 34.5439 22.4262 34.6666 22.2395 34.7786C22.0475 34.8906 21.8448 34.9759 21.6315 35.0346C21.4182 35.0879 21.2102 35.1146 21.0075 35.1146C20.4048 35.1146 19.9275 34.9359 19.5755 34.5786C19.2288 34.2213 19.0555 33.7279 19.0555 33.0986C19.0555 32.6986 19.1328 32.3466 19.2875 32.0426C19.4422 31.7333 19.6582 31.4933 19.9355 31.3226C20.2182 31.1519 20.5382 31.0666 20.8955 31.0666C21.4022 31.0666 21.8048 31.2319 22.1035 31.5626C22.4022 31.8933 22.5515 32.3413 22.5515 32.9066C22.5515 33.0133 22.5302 33.0906 22.4875 33.1386C22.4448 33.1866 22.3755 33.2106 22.2795 33.2106H19.7035C19.7515 34.1279 20.1862 34.5866 21.0075 34.5866C21.2155 34.5866 21.3942 34.5599 21.5435 34.5066C21.6928 34.4479 21.8528 34.3706 22.0235 34.2746C22.1622 34.1946 22.2555 34.1546 22.3035 34.1546ZM20.9035 31.5706C20.5622 31.5706 20.2875 31.6773 20.0795 31.8906C19.8768 32.1039 19.7568 32.4053 19.7195 32.7946H21.9835C21.9728 32.3999 21.8742 32.0986 21.6875 31.8906C21.5008 31.6773 21.2395 31.5706 20.9035 31.5706Z" fill="#5D8CFF"/>
<circle cx="13.5295" cy="13.5295" r="13.0295" fill="white" stroke="#3E64FF"/>
<path d="M14.6693 10.5883C15.2438 10.7004 15.7719 10.9814 16.1858 11.3953C16.5997 11.8093 16.8807 12.3373 16.9928 12.9118L14.6693 10.5883ZM14.6693 8.23535C15.863 8.36796 16.9761 8.90252 17.8259 9.75124C18.6757 10.6 19.2116 11.7124 19.3458 12.906L14.6693 8.23535ZM18.7575 17.6001V19.3648C18.7582 19.5286 18.7246 19.6908 18.659 19.8409C18.5934 19.991 18.4971 20.1257 18.3764 20.2365C18.2557 20.3472 18.1132 20.4316 17.958 20.484C17.8028 20.5365 17.6383 20.556 17.4752 20.5413C15.6651 20.3446 13.9263 19.7261 12.3987 18.7354C10.9774 17.8322 9.7724 16.6272 8.86926 15.206C7.87512 13.6714 7.25645 11.9242 7.06337 10.1059C7.04867 9.94328 7.068 9.77933 7.12013 9.62455C7.17227 9.46976 7.25606 9.32753 7.36617 9.2069C7.47629 9.08627 7.61031 8.98989 7.75972 8.9239C7.90912 8.8579 8.07063 8.82374 8.23396 8.82359H9.99867C10.2841 8.82078 10.5609 8.92187 10.7774 9.10802C10.9938 9.29417 11.1352 9.55268 11.1751 9.83536C11.2496 10.4001 11.3878 10.9546 11.5869 11.4883C11.6661 11.6988 11.6832 11.9277 11.6363 12.1476C11.5894 12.3676 11.4804 12.5695 11.3222 12.7295L10.5751 13.4765C11.4125 14.9492 12.6319 16.1686 14.1046 17.006L14.8516 16.2589C15.0116 16.1008 15.2135 15.9918 15.4335 15.9448C15.6534 15.8979 15.8823 15.9151 16.0928 15.9942C16.6265 16.1933 17.181 16.3315 17.7458 16.406C18.0315 16.4463 18.2925 16.5902 18.479 16.8104C18.6656 17.0305 18.7647 17.3116 18.7575 17.6001Z" stroke="#3E64FF" stroke-linecap="round" stroke-linejoin="round"/>
</svg>
