<svg width="46" height="45" viewBox="0 0 46 45" fill="none" xmlns="http://www.w3.org/2000/svg">
<path d="M7.95734 39.7145C8.05334 39.8585 8.10134 39.9985 8.10134 40.1345C8.10134 40.3185 8.02534 40.4705 7.87334 40.5905C7.72934 40.7105 7.55734 40.7705 7.35734 40.7705C7.22934 40.7705 7.10534 40.7425 6.98534 40.6865C6.87334 40.6225 6.77734 40.5305 6.69734 40.4105L5.10134 37.9865C4.94134 37.7305 4.76934 37.5505 4.58534 37.4465C4.40934 37.3425 4.17734 37.2905 3.88934 37.2905H2.71334V39.9785C2.71334 40.2185 2.64534 40.4105 2.50934 40.5545C2.37334 40.6905 2.18934 40.7585 1.95734 40.7585C1.72534 40.7585 1.53734 40.6905 1.39334 40.5545C1.25734 40.4105 1.18934 40.2185 1.18934 39.9785V32.9585C1.18934 32.7265 1.25334 32.5465 1.38134 32.4185C1.51734 32.2905 1.70134 32.2265 1.93334 32.2265H4.93334C5.89334 32.2265 6.62134 32.4425 7.11734 32.8745C7.62134 33.2985 7.87334 33.9145 7.87334 34.7225C7.87334 35.3785 7.68534 35.9185 7.30934 36.3425C6.94134 36.7585 6.41734 37.0265 5.73734 37.1465C5.96934 37.2025 6.17334 37.3025 6.34934 37.4465C6.52534 37.5905 6.69734 37.7905 6.86534 38.0465L7.95734 39.7145ZM4.71734 36.1025C5.30134 36.1025 5.72934 35.9945 6.00134 35.7785C6.27334 35.5545 6.40934 35.2145 6.40934 34.7585C6.40934 34.2945 6.27334 33.9585 6.00134 33.7505C5.72934 33.5345 5.30134 33.4265 4.71734 33.4265H2.70134V36.1025H4.71734ZM14.0451 39.0785C14.1811 39.0785 14.2891 39.1305 14.3691 39.2345C14.4571 39.3385 14.5011 39.4785 14.5011 39.6545C14.5011 39.9025 14.3531 40.1105 14.0571 40.2785C13.7851 40.4305 13.4771 40.5545 13.1331 40.6505C12.7891 40.7385 12.4611 40.7825 12.1491 40.7825C11.2051 40.7825 10.4571 40.5105 9.90509 39.9665C9.35309 39.4225 9.07709 38.6785 9.07709 37.7345C9.07709 37.1345 9.19709 36.6025 9.43709 36.1385C9.67709 35.6745 10.0131 35.3145 10.4451 35.0585C10.8851 34.8025 11.3811 34.6745 11.9331 34.6745C12.4611 34.6745 12.9211 34.7905 13.3131 35.0225C13.7051 35.2545 14.0091 35.5825 14.2251 36.0065C14.4411 36.4305 14.5491 36.9305 14.5491 37.5065C14.5491 37.8505 14.3971 38.0225 14.0931 38.0225H10.5531C10.6011 38.5745 10.7571 38.9825 11.0211 39.2465C11.2851 39.5025 11.6691 39.6305 12.1731 39.6305C12.4291 39.6305 12.6531 39.5985 12.8451 39.5345C13.0451 39.4705 13.2691 39.3825 13.5171 39.2705C13.7571 39.1425 13.9331 39.0785 14.0451 39.0785ZM11.9691 35.7305C11.5611 35.7305 11.2331 35.8585 10.9851 36.1145C10.7451 36.3705 10.6011 36.7385 10.5531 37.2185H13.2651C13.2491 36.7305 13.1291 36.3625 12.9051 36.1145C12.6811 35.8585 12.3691 35.7305 11.9691 35.7305ZM20.6961 34.6985C20.9201 34.6985 21.1001 34.7625 21.2361 34.8905C21.3721 35.0185 21.4401 35.1905 21.4401 35.4065V42.2105C21.4401 42.4185 21.3681 42.5865 21.2241 42.7145C21.0801 42.8425 20.8961 42.9065 20.6721 42.9065C20.4481 42.9065 20.2681 42.8425 20.1321 42.7145C20.0041 42.5945 19.9401 42.4345 19.9401 42.2345V39.7625C19.7641 40.0825 19.5081 40.3345 19.1721 40.5185C18.8441 40.6945 18.4721 40.7825 18.0561 40.7825C17.5441 40.7825 17.0921 40.6585 16.7001 40.4105C16.3081 40.1625 16.0001 39.8105 15.7761 39.3545C15.5601 38.8985 15.4521 38.3665 15.4521 37.7585C15.4521 37.1505 15.5601 36.6145 15.7761 36.1505C16.0001 35.6785 16.3081 35.3145 16.7001 35.0585C17.1001 34.8025 17.5521 34.6745 18.0561 34.6745C18.4801 34.6745 18.8561 34.7665 19.1841 34.9505C19.5201 35.1265 19.7761 35.3785 19.9521 35.7065V35.4065C19.9521 35.1905 20.0201 35.0185 20.1561 34.8905C20.2921 34.7625 20.4721 34.6985 20.6961 34.6985ZM18.4641 39.6185C18.9361 39.6185 19.3001 39.4545 19.5561 39.1265C19.8201 38.7985 19.9521 38.3345 19.9521 37.7345C19.9521 37.1265 19.8201 36.6585 19.5561 36.3305C19.3001 36.0025 18.9321 35.8385 18.4521 35.8385C17.9801 35.8385 17.6121 36.0065 17.3481 36.3425C17.0841 36.6785 16.9521 37.1505 16.9521 37.7585C16.9521 38.3505 17.0841 38.8105 17.3481 39.1385C17.6121 39.4585 17.9841 39.6185 18.4641 39.6185ZM27.6151 34.6985C27.8471 34.6985 28.0311 34.7625 28.1671 34.8905C28.3031 35.0185 28.3711 35.1905 28.3711 35.4065V40.0625C28.3711 40.2705 28.2991 40.4385 28.1551 40.5665C28.0191 40.6945 27.8391 40.7585 27.6151 40.7585C27.3991 40.7585 27.2271 40.6985 27.0991 40.5785C26.9711 40.4585 26.9071 40.2945 26.9071 40.0865V39.7865C26.7231 40.1065 26.4751 40.3545 26.1631 40.5305C25.8511 40.6985 25.4991 40.7825 25.1071 40.7825C23.6671 40.7825 22.9471 39.9745 22.9471 38.3585V35.4065C22.9471 35.1905 23.0151 35.0185 23.1511 34.8905C23.2871 34.7625 23.4671 34.6985 23.6911 34.6985C23.9231 34.6985 24.1071 34.7625 24.2431 34.8905C24.3791 35.0185 24.4471 35.1905 24.4471 35.4065V38.3705C24.4471 38.7865 24.5311 39.0945 24.6991 39.2945C24.8671 39.4945 25.1311 39.5945 25.4911 39.5945C25.9071 39.5945 26.2391 39.4585 26.4871 39.1865C26.7431 38.9065 26.8711 38.5385 26.8711 38.0825V35.4065C26.8711 35.1905 26.9391 35.0185 27.0751 34.8905C27.2111 34.7625 27.3911 34.6985 27.6151 34.6985ZM34.5763 39.0785C34.7123 39.0785 34.8203 39.1305 34.9003 39.2345C34.9883 39.3385 35.0323 39.4785 35.0323 39.6545C35.0323 39.9025 34.8843 40.1105 34.5883 40.2785C34.3163 40.4305 34.0083 40.5545 33.6643 40.6505C33.3203 40.7385 32.9923 40.7825 32.6803 40.7825C31.7363 40.7825 30.9883 40.5105 30.4363 39.9665C29.8843 39.4225 29.6083 38.6785 29.6083 37.7345C29.6083 37.1345 29.7283 36.6025 29.9683 36.1385C30.2083 35.6745 30.5443 35.3145 30.9763 35.0585C31.4163 34.8025 31.9123 34.6745 32.4643 34.6745C32.9923 34.6745 33.4523 34.7905 33.8443 35.0225C34.2363 35.2545 34.5403 35.5825 34.7563 36.0065C34.9723 36.4305 35.0803 36.9305 35.0803 37.5065C35.0803 37.8505 34.9283 38.0225 34.6243 38.0225H31.0843C31.1323 38.5745 31.2883 38.9825 31.5523 39.2465C31.8163 39.5025 32.2003 39.6305 32.7043 39.6305C32.9603 39.6305 33.1843 39.5985 33.3763 39.5345C33.5763 39.4705 33.8003 39.3825 34.0483 39.2705C34.2883 39.1425 34.4643 39.0785 34.5763 39.0785ZM32.5003 35.7305C32.0923 35.7305 31.7643 35.8585 31.5163 36.1145C31.2763 36.3705 31.1323 36.7385 31.0843 37.2185H33.7963C33.7803 36.7305 33.6603 36.3625 33.4363 36.1145C33.2123 35.8585 32.9003 35.7305 32.5003 35.7305ZM38.4313 40.7825C37.5593 40.7825 36.8553 40.6105 36.3193 40.2665C36.0633 40.1145 35.9353 39.8985 35.9353 39.6185C35.9353 39.4585 35.9793 39.3305 36.0673 39.2345C36.1553 39.1305 36.2633 39.0785 36.3913 39.0785C36.5273 39.0785 36.7153 39.1425 36.9553 39.2705C37.2113 39.3905 37.4433 39.4825 37.6513 39.5465C37.8673 39.6105 38.1393 39.6425 38.4673 39.6425C38.8033 39.6425 39.0633 39.5865 39.2473 39.4745C39.4393 39.3625 39.5353 39.2065 39.5353 39.0065C39.5353 38.8705 39.4953 38.7625 39.4153 38.6825C39.3433 38.6025 39.2073 38.5305 39.0073 38.4665C38.8153 38.3945 38.5193 38.3145 38.1193 38.2265C37.4073 38.0825 36.8953 37.8785 36.5833 37.6145C36.2793 37.3505 36.1273 36.9865 36.1273 36.5225C36.1273 36.1705 36.2313 35.8545 36.4393 35.5745C36.6473 35.2865 36.9313 35.0665 37.2913 34.9145C37.6593 34.7545 38.0753 34.6745 38.5393 34.6745C38.8753 34.6745 39.1993 34.7185 39.5113 34.8065C39.8233 34.8865 40.1033 35.0065 40.3513 35.1665C40.6073 35.3265 40.7353 35.5385 40.7353 35.8025C40.7353 35.9625 40.6913 36.0985 40.6033 36.2105C40.5153 36.3145 40.4073 36.3665 40.2793 36.3665C40.1913 36.3665 40.1033 36.3505 40.0153 36.3185C39.9353 36.2785 39.8313 36.2225 39.7033 36.1505C39.4713 36.0305 39.2713 35.9425 39.1033 35.8865C38.9353 35.8225 38.7273 35.7905 38.4793 35.7905C38.1833 35.7905 37.9473 35.8505 37.7713 35.9705C37.6033 36.0905 37.5193 36.2545 37.5193 36.4625C37.5193 36.6625 37.6073 36.8145 37.7833 36.9185C37.9593 37.0225 38.2993 37.1265 38.8033 37.2305C39.3393 37.3425 39.7593 37.4705 40.0633 37.6145C40.3673 37.7585 40.5833 37.9385 40.7113 38.1545C40.8473 38.3705 40.9153 38.6465 40.9153 38.9825C40.9153 39.5265 40.6873 39.9625 40.2313 40.2905C39.7833 40.6185 39.1833 40.7825 38.4313 40.7825ZM45.121 39.6425C45.521 39.6665 45.721 39.8465 45.721 40.1825C45.721 40.3745 45.641 40.5225 45.481 40.6265C45.329 40.7225 45.109 40.7625 44.821 40.7465L44.497 40.7225C43.153 40.6265 42.481 39.9065 42.481 38.5625V35.9465H41.881C41.665 35.9465 41.497 35.8985 41.377 35.8025C41.265 35.7065 41.209 35.5665 41.209 35.3825C41.209 35.1985 41.265 35.0585 41.377 34.9625C41.497 34.8665 41.665 34.8185 41.881 34.8185H42.481V33.7145C42.481 33.4985 42.549 33.3265 42.685 33.1985C42.821 33.0705 43.005 33.0065 43.237 33.0065C43.461 33.0065 43.641 33.0705 43.777 33.1985C43.913 33.3265 43.981 33.4985 43.981 33.7145V34.8185H45.001C45.217 34.8185 45.381 34.8665 45.493 34.9625C45.613 35.0585 45.673 35.1985 45.673 35.3825C45.673 35.5665 45.613 35.7065 45.493 35.8025C45.381 35.8985 45.217 35.9465 45.001 35.9465H43.981V38.6705C43.981 39.2625 44.253 39.5785 44.797 39.6185L45.121 39.6425Z" fill="#181725"/>
<g clip-path="url(#clip0)">
<mask id="path-2-inside-1" fill="white">
<path fill-rule="evenodd" clip-rule="evenodd" d="M22.9539 14.0921C26.8408 14.0921 30 10.9329 30 7.04605C30 3.15921 26.8408 0 22.9539 0C19.0671 0 15.9079 3.15921 15.9079 7.04605C15.9079 10.9329 19.0671 14.0921 22.9539 14.0921ZM22.9539 0.736842C26.4355 0.736842 29.2632 3.56447 29.2632 7.04605C29.2632 10.5276 26.4355 13.3553 22.9539 13.3553C19.4724 13.3553 16.6447 10.5276 16.6447 7.04605C16.6447 3.56447 19.4724 0.736842 22.9539 0.736842ZM36.8675 21.4101C36.665 20.8586 36.2601 20.4174 35.7263 20.1693C35.1925 19.9211 34.5943 19.8936 34.0329 20.0958L29.735 21.6674C29.8362 21.4193 29.8914 21.1435 29.8914 20.8494C29.8914 19.6362 28.8975 18.6436 27.6826 18.6436H23.9277C23.9093 18.6436 23.8909 18.6436 23.8633 18.6344L23.7624 18.6158C23.1925 18.5109 20.8658 18.0828 19.7402 17.7337C17.7707 17.1179 15.5435 17.8715 14.614 18.2484C14.5956 17.8624 14.2735 17.5499 13.8777 17.5499H9.73626C9.33132 17.5499 9 17.8807 9 18.2851V25.7298C9 26.1342 9.33132 26.4651 9.73626 26.4651H13.8777C14.2827 26.4651 14.614 26.1342 14.614 25.7298V25.6563C14.9729 25.6931 17.8996 26.0239 20.32 27.3566C21.0931 27.7794 22.0502 28 23.1638 28C23.716 28 24.305 27.9449 24.9401 27.8438C26.3492 27.6077 27.453 27.1833 27.595 27.1287L27.5998 27.1269L35.5514 24.2133C36.6926 23.8181 37.2816 22.5497 36.8675 21.4101ZM13.8777 25.7298H9.73626V18.2851H13.8777V25.7298ZM35.2937 23.524L27.3605 26.4375L27.3329 26.4467C27.1673 26.5111 23.1362 28.0735 20.6789 26.7225C17.9732 25.2335 14.7797 24.9394 14.6416 24.9302H14.614V19.0572C15.1478 18.8182 17.5406 17.8256 19.5193 18.4322C20.7526 18.8182 23.2467 19.2686 23.7344 19.3513C23.7989 19.3605 23.8633 19.3697 23.9277 19.3697H27.6826C28.4925 19.3697 29.1552 20.0314 29.1552 20.8402C29.1552 21.649 28.4925 22.3108 27.6826 22.3108H21.7005C21.498 22.3108 21.3324 22.4762 21.3324 22.6784C21.3324 22.8806 21.498 23.0461 21.7005 23.0461H27.6826C27.9679 23.0461 28.244 22.9909 28.4925 22.8898L34.2814 20.7667C34.6495 20.6288 35.0545 20.6472 35.4042 20.8127C35.7631 20.9781 36.03 21.2722 36.1681 21.6398C36.4441 22.4027 36.0576 23.2483 35.2937 23.524ZM21.4006 8.60263H20.0494C19.1946 8.60263 18.5052 7.90263 18.4868 7.05526C18.4868 6.18947 19.1946 5.49869 20.0403 5.49869H21.3822V4.04342C21.3822 3.17763 22.09 2.48684 22.9357 2.48684C23.7997 2.48684 24.4891 3.19605 24.4891 4.04342V5.48947H25.9597C26.8054 5.48947 27.4948 6.18947 27.5132 7.04605C27.5132 7.91184 26.8054 8.60263 25.9597 8.60263H24.5074V9.95658C24.5074 10.8224 23.7997 11.5132 22.954 11.5132C22.09 11.5132 21.4006 10.8039 21.4006 9.95658V8.60263ZM21.7315 6.14342H20.0494C19.5531 6.14342 19.1578 6.54869 19.1578 7.02763C19.1578 7.525 19.5623 7.92105 20.0494 7.92105H21.7223C21.9062 7.92105 22.0532 8.06842 22.0532 8.25263V8.28026V8.30789V9.95658C22.0532 10.4539 22.4577 10.85 22.9448 10.85C23.4412 10.85 23.8365 10.4447 23.8365 9.95658V8.27105C23.8365 8.17895 23.8824 8.09605 23.9376 8.04079C23.9927 7.97632 24.0754 7.93947 24.1674 7.93947H25.9506C26.4377 7.93947 26.833 7.54342 26.8514 7.03684C26.8514 6.53947 26.4469 6.14342 25.9597 6.14342H24.1765C23.9927 6.14342 23.8456 5.99605 23.8456 5.81184V4.025C23.8456 3.52763 23.4412 3.13158 22.954 3.13158C22.4577 3.13158 22.0624 3.53684 22.0624 4.025V5.81184C22.0624 5.90395 22.0165 5.98684 21.9613 6.04211C21.9062 6.10658 21.8235 6.14342 21.7315 6.14342Z"/>
</mask>
<path fill-rule="evenodd" clip-rule="evenodd" d="M22.9539 14.0921C26.8408 14.0921 30 10.9329 30 7.04605C30 3.15921 26.8408 0 22.9539 0C19.0671 0 15.9079 3.15921 15.9079 7.04605C15.9079 10.9329 19.0671 14.0921 22.9539 14.0921ZM22.9539 0.736842C26.4355 0.736842 29.2632 3.56447 29.2632 7.04605C29.2632 10.5276 26.4355 13.3553 22.9539 13.3553C19.4724 13.3553 16.6447 10.5276 16.6447 7.04605C16.6447 3.56447 19.4724 0.736842 22.9539 0.736842ZM36.8675 21.4101C36.665 20.8586 36.2601 20.4174 35.7263 20.1693C35.1925 19.9211 34.5943 19.8936 34.0329 20.0958L29.735 21.6674C29.8362 21.4193 29.8914 21.1435 29.8914 20.8494C29.8914 19.6362 28.8975 18.6436 27.6826 18.6436H23.9277C23.9093 18.6436 23.8909 18.6436 23.8633 18.6344L23.7624 18.6158C23.1925 18.5109 20.8658 18.0828 19.7402 17.7337C17.7707 17.1179 15.5435 17.8715 14.614 18.2484C14.5956 17.8624 14.2735 17.5499 13.8777 17.5499H9.73626C9.33132 17.5499 9 17.8807 9 18.2851V25.7298C9 26.1342 9.33132 26.4651 9.73626 26.4651H13.8777C14.2827 26.4651 14.614 26.1342 14.614 25.7298V25.6563C14.9729 25.6931 17.8996 26.0239 20.32 27.3566C21.0931 27.7794 22.0502 28 23.1638 28C23.716 28 24.305 27.9449 24.9401 27.8438C26.3492 27.6077 27.453 27.1833 27.595 27.1287L27.5998 27.1269L35.5514 24.2133C36.6926 23.8181 37.2816 22.5497 36.8675 21.4101ZM13.8777 25.7298H9.73626V18.2851H13.8777V25.7298ZM35.2937 23.524L27.3605 26.4375L27.3329 26.4467C27.1673 26.5111 23.1362 28.0735 20.6789 26.7225C17.9732 25.2335 14.7797 24.9394 14.6416 24.9302H14.614V19.0572C15.1478 18.8182 17.5406 17.8256 19.5193 18.4322C20.7526 18.8182 23.2467 19.2686 23.7344 19.3513C23.7989 19.3605 23.8633 19.3697 23.9277 19.3697H27.6826C28.4925 19.3697 29.1552 20.0314 29.1552 20.8402C29.1552 21.649 28.4925 22.3108 27.6826 22.3108H21.7005C21.498 22.3108 21.3324 22.4762 21.3324 22.6784C21.3324 22.8806 21.498 23.0461 21.7005 23.0461H27.6826C27.9679 23.0461 28.244 22.9909 28.4925 22.8898L34.2814 20.7667C34.6495 20.6288 35.0545 20.6472 35.4042 20.8127C35.7631 20.9781 36.03 21.2722 36.1681 21.6398C36.4441 22.4027 36.0576 23.2483 35.2937 23.524ZM21.4006 8.60263H20.0494C19.1946 8.60263 18.5052 7.90263 18.4868 7.05526C18.4868 6.18947 19.1946 5.49869 20.0403 5.49869H21.3822V4.04342C21.3822 3.17763 22.09 2.48684 22.9357 2.48684C23.7997 2.48684 24.4891 3.19605 24.4891 4.04342V5.48947H25.9597C26.8054 5.48947 27.4948 6.18947 27.5132 7.04605C27.5132 7.91184 26.8054 8.60263 25.9597 8.60263H24.5074V9.95658C24.5074 10.8224 23.7997 11.5132 22.954 11.5132C22.09 11.5132 21.4006 10.8039 21.4006 9.95658V8.60263ZM21.7315 6.14342H20.0494C19.5531 6.14342 19.1578 6.54869 19.1578 7.02763C19.1578 7.525 19.5623 7.92105 20.0494 7.92105H21.7223C21.9062 7.92105 22.0532 8.06842 22.0532 8.25263V8.28026V8.30789V9.95658C22.0532 10.4539 22.4577 10.85 22.9448 10.85C23.4412 10.85 23.8365 10.4447 23.8365 9.95658V8.27105C23.8365 8.17895 23.8824 8.09605 23.9376 8.04079C23.9927 7.97632 24.0754 7.93947 24.1674 7.93947H25.9506C26.4377 7.93947 26.833 7.54342 26.8514 7.03684C26.8514 6.53947 26.4469 6.14342 25.9597 6.14342H24.1765C23.9927 6.14342 23.8456 5.99605 23.8456 5.81184V4.025C23.8456 3.52763 23.4412 3.13158 22.954 3.13158C22.4577 3.13158 22.0624 3.53684 22.0624 4.025V5.81184C22.0624 5.90395 22.0165 5.98684 21.9613 6.04211C21.9062 6.10658 21.8235 6.14342 21.7315 6.14342Z" fill="black"/>
<path d="M35.7263 20.1693L14.6479 65.5091L14.648 65.5092L35.7263 20.1693ZM36.8675 21.4101L83.8609 4.33322L83.8325 4.25506L83.8038 4.17698L36.8675 21.4101ZM34.0329 20.0958L17.0896 -26.946L16.9753 -26.9048L16.8611 -26.863L34.0329 20.0958ZM29.735 21.6674L-16.5608 2.78083L-59.2609 107.449L46.9068 68.6262L29.735 21.6674ZM23.8633 18.6344L39.6565 -28.8058L36.3604 -29.9031L32.9443 -30.534L23.8633 18.6344ZM23.7624 18.6158L32.8434 -30.5527L32.8265 -30.5558L32.8097 -30.5589L23.7624 18.6158ZM19.7402 17.7337L4.81926 65.4554L4.87306 65.4722L4.92691 65.489L19.7402 17.7337ZM14.614 18.2484L-35.3293 20.6298L-31.9697 91.0859L33.399 64.5854L14.614 18.2484ZM14.614 25.6563L19.7087 -24.0835L-35.386 -29.7267V25.6563H14.614ZM20.32 27.3566L-3.7959 71.1564L-3.73351 71.1908L-3.67103 71.225L20.32 27.3566ZM24.9401 27.8438L32.8014 77.2219L33.0013 77.1901L33.2008 77.1566L24.9401 27.8438ZM27.595 27.1287L9.66216 -19.5448L9.65133 -19.5406L27.595 27.1287ZM27.5998 27.1269L10.3978 -19.8209L10.0313 -19.6866L9.66697 -19.5466L27.5998 27.1269ZM35.5514 24.2133L19.1893 -23.0337L18.768 -22.8878L18.3494 -22.7344L35.5514 24.2133ZM9.73626 25.7298H-40.2637V75.7298H9.73626V25.7298ZM13.8777 25.7298V75.7298H63.8777V25.7298H13.8777ZM9.73626 18.2851V-31.7149H-40.2637V18.2851H9.73626ZM13.8777 18.2851H63.8777V-31.7149H13.8777V18.2851ZM27.3605 26.4375L43.1473 73.8799L43.8764 73.6373L44.5977 73.3724L27.3605 26.4375ZM35.2937 23.524L18.3178 -23.506L18.187 -23.4588L18.0565 -23.4108L35.2937 23.524ZM27.3329 26.4467L11.5461 -20.9956L10.3786 -20.6071L9.23165 -20.1617L27.3329 26.4467ZM20.6789 26.7225L-3.42657 70.528L-3.41887 70.5322L-3.41116 70.5365L20.6789 26.7225ZM14.6416 24.9302L17.9626 -24.9594L16.304 -25.0698H14.6416V24.9302ZM14.614 24.9302H-35.386V74.9302H14.614V24.9302ZM14.614 19.0572L-5.81595 -26.5785L-35.386 -13.3408V19.0572H14.614ZM19.5193 18.4322L34.4554 -29.2848L34.3151 -29.3288L34.1744 -29.3719L19.5193 18.4322ZM23.7344 19.3513L15.3746 68.6475L16.0221 68.7573L16.6723 68.85L23.7344 19.3513ZM28.4925 22.8898L11.276 -24.0526L10.4571 -23.7523L9.64922 -23.4236L28.4925 22.8898ZM34.2814 20.7667L51.4979 67.7091L51.6577 67.6505L51.817 67.5909L34.2814 20.7667ZM35.4042 20.8127L14.0232 66.0106L14.2483 66.1171L14.4744 66.2213L35.4042 20.8127ZM36.1681 21.6398L83.1835 4.62371L83.0818 4.34273L82.9768 4.06299L36.1681 21.6398ZM21.4006 8.60263H71.4006V-41.3974H21.4006V8.60263ZM18.4868 7.05526H-31.5132V7.59758L-31.5014 8.13978L18.4868 7.05526ZM21.3822 5.49869V55.4987H71.3822V5.49869H21.3822ZM24.4891 5.48947H-25.5109V55.4895H24.4891V5.48947ZM27.5132 7.04605H77.5132V6.50959L77.5016 5.97325L27.5132 7.04605ZM24.5074 8.60263V-41.3974H-25.4925V8.60263H24.5074ZM23.9376 8.04079L59.3292 43.3598L60.6851 42.0011L61.9329 40.5424L23.9376 8.04079ZM26.8514 7.03684L76.8185 8.85027L76.8513 7.94385V7.03684H26.8514ZM21.9613 6.04211L-13.43 -29.2772L-14.7862 -27.9183L-16.0341 -26.4594L21.9613 6.04211ZM-20 7.04605C-20 -16.6813 -0.77345 -35.9079 22.9539 -35.9079V64.0921C54.455 64.0921 80 38.5471 80 7.04605H-20ZM22.9539 50C-0.773451 50 -20 30.7734 -20 7.04605H80C80 -24.455 54.455 -50 22.9539 -50V50ZM65.9079 7.04605C65.9079 30.7735 46.6813 50 22.9539 50V-50C-8.54713 -50 -34.0921 -24.455 -34.0921 7.04605H65.9079ZM22.9539 -35.9079C46.6813 -35.9079 65.9079 -16.6813 65.9079 7.04605H-34.0921C-34.0921 38.5471 -8.54712 64.0921 22.9539 64.0921V-35.9079ZM79.2632 7.04605C79.2632 -24.0498 54.0498 -49.2632 22.9539 -49.2632V50.7368C-1.1787 50.7368 -20.7368 31.1787 -20.7368 7.04605H79.2632ZM22.9539 63.3553C54.0498 63.3553 79.2632 38.1419 79.2632 7.04605H-20.7368C-20.7368 -17.0866 -1.1787 -36.6447 22.9539 -36.6447V63.3553ZM-33.3553 7.04605C-33.3553 38.1419 -8.14186 63.3553 22.9539 63.3553V-36.6447C47.0866 -36.6447 66.6447 -17.0866 66.6447 7.04605H-33.3553ZM22.9539 -49.2632C-8.14186 -49.2632 -33.3553 -24.0498 -33.3553 7.04605H66.6447C66.6447 31.1787 47.0866 50.7368 22.9539 50.7368V-49.2632ZM14.648 65.5092C3.15688 60.167 -5.72057 50.4862 -10.0689 38.6432L83.8038 4.17698C79.0506 -8.76899 69.3633 -19.3321 56.8046 -25.1706L14.648 65.5092ZM50.9761 67.1375C39.1785 71.3867 26.11 70.8378 14.6479 65.5091L56.8046 -25.1706C44.275 -30.9956 30.0101 -31.5996 17.0896 -26.946L50.9761 67.1375ZM46.9068 68.6262L51.2047 67.0546L16.8611 -26.863L12.5632 -25.2914L46.9068 68.6262ZM-20.1086 20.8494C-20.1086 14.8384 -18.9695 8.68517 -16.5608 2.78083L76.0307 40.554C78.6419 34.1534 79.8914 27.4486 79.8914 20.8494H-20.1086ZM27.6826 68.6436C1.34626 68.6436 -20.1086 47.3134 -20.1086 20.8494H79.8914C79.8914 -8.04102 56.4487 -31.3564 27.6826 -31.3564V68.6436ZM23.9277 68.6436H27.6826V-31.3564H23.9277V68.6436ZM8.07008 66.0746C15.9085 68.6841 22.4565 68.6436 23.9277 68.6436V-31.3564C23.712 -31.3564 26.3067 -31.3971 29.4113 -31.0528C32.8889 -30.667 36.3238 -29.9153 39.6565 -28.8058L8.07008 66.0746ZM14.6814 67.7842L14.7823 67.8028L32.9443 -30.534L32.8434 -30.5527L14.6814 67.7842ZM4.92691 65.489C8.07166 66.4644 11.0989 67.0786 11.8545 67.2346C13.2122 67.5147 14.3866 67.73 14.715 67.7904L32.8097 -30.5589C32.5683 -30.6033 32.2944 -30.6545 32.0649 -30.7019C31.9499 -30.7256 32.0226 -30.7123 32.2402 -30.661C32.3569 -30.6334 32.5944 -30.5764 32.9223 -30.4902C33.2238 -30.411 33.8011 -30.255 34.5535 -30.0216L4.92691 65.489ZM33.399 64.5854C31.9631 65.1675 29.129 66.2283 25.2859 66.8912C21.7919 67.4939 14.132 68.3672 4.81926 65.4554L34.6612 -29.9881C14.4754 -36.2995 -2.53658 -28.7513 -4.17103 -28.0887L33.399 64.5854ZM13.8777 67.5499C-12.5013 67.5499 -34.0807 46.8155 -35.3293 20.6298L64.5573 15.867C63.2718 -11.0908 41.0482 -32.4501 13.8777 -32.4501V67.5499ZM9.73626 67.5499H13.8777V-32.4501H9.73626V67.5499ZM59 18.2851C59 45.558 36.8825 67.5499 9.73626 67.5499V-32.4501C-18.2199 -32.4501 -41 -9.79652 -41 18.2851H59ZM59 25.7298V18.2851H-41V25.7298H59ZM9.73626 -23.5349C36.8824 -23.5349 59 -1.5431 59 25.7298H-41C-41 53.8116 -18.2198 76.4651 9.73626 76.4651V-23.5349ZM13.8777 -23.5349H9.73626V76.4651H13.8777V-23.5349ZM-35.386 25.7298C-35.386 -1.54309 -13.2684 -23.5349 13.8777 -23.5349V76.4651C41.8338 76.4651 64.614 53.8116 64.614 25.7298H-35.386ZM-35.386 25.6563V25.7298H64.614V25.6563H-35.386ZM44.4359 -16.4432C32.6256 -22.9459 21.0485 -23.9462 19.7087 -24.0835L9.51926 75.3961C8.32516 75.2738 6.89238 75.0797 5.24202 74.6914C3.90546 74.3769 0.447569 73.4929 -3.7959 71.1564L44.4359 -16.4432ZM23.1638 -22C28.5001 -22 36.1989 -20.9481 44.3111 -16.5117L-3.67103 71.225C5.98727 76.507 15.6004 78 23.1638 78V-22ZM17.0787 -21.5344C18.3268 -21.7331 20.4453 -22 23.1638 -22V78C26.9868 78 30.2833 77.6228 32.8014 77.2219L17.0787 -21.5344ZM9.65133 -19.5406C9.64689 -19.5389 9.6685 -19.5472 9.69551 -19.5576C9.72422 -19.5686 9.75997 -19.5822 9.80102 -19.5978C9.88406 -19.6294 9.97752 -19.6646 10.0795 -19.7024C10.2835 -19.7783 10.5015 -19.8574 10.7318 -19.9384C11.187 -20.0985 11.6897 -20.2655 12.2373 -20.4315C13.2569 -20.7406 14.7666 -21.1487 16.6793 -21.4691L33.2008 77.1566C39.5029 76.1009 44.2456 74.2952 45.5387 73.798L9.65133 -19.5406ZM9.66697 -19.5466L9.66216 -19.5448L45.5278 73.8022L45.5326 73.8003L9.66697 -19.5466ZM18.3494 -22.7344L10.3978 -19.8209L44.8018 74.0746L52.7535 71.161L18.3494 -22.7344ZM-10.1259 38.4869C-19.0231 14.0029 -6.65167 -14.0847 19.1893 -23.0337L51.9136 71.4603C80.0369 61.7209 93.5864 31.0966 83.8609 4.33322L-10.1259 38.4869ZM9.73626 75.7298H13.8777V-24.2702H9.73626V75.7298ZM-40.2637 18.2851V25.7298H59.7363V18.2851H-40.2637ZM13.8777 -31.7149H9.73626V68.2851H13.8777V-31.7149ZM63.8777 25.7298V18.2851H-36.1223V25.7298H63.8777ZM44.5977 73.3724L52.531 70.4588L18.0565 -23.4108L10.1233 -20.4973L44.5977 73.3724ZM43.1197 73.8891L43.1473 73.8799L11.5737 -21.0048L11.5461 -20.9956L43.1197 73.8891ZM-3.41116 70.5365C13.3687 79.7625 29.4799 77.056 33.3425 76.3915C39.4781 75.336 44.1013 73.5728 45.4342 73.0551L9.23165 -20.1617C10.3988 -20.615 12.9237 -21.5648 16.388 -22.1608C18.1763 -22.4684 21.44 -22.9029 25.6543 -22.6561C29.7339 -22.4173 36.9076 -21.414 44.7691 -17.0915L-3.41116 70.5365ZM11.3206 74.8198C10.2288 74.7471 9.43109 74.6567 9.27474 74.6393C8.87352 74.5944 8.48964 74.5453 8.11824 74.4917C7.39328 74.387 6.57675 74.2452 5.67449 74.0413C4.28602 73.7274 0.820363 72.865 -3.42657 70.528L44.7845 -17.0831C32.4688 -23.8602 20.5362 -24.7881 17.9626 -24.9594L11.3206 74.8198ZM14.614 74.9302H14.6416V-25.0698H14.614V74.9302ZM-35.386 19.0572V24.9302H64.614V19.0572H-35.386ZM34.1744 -29.3719C21.3117 -33.3151 10.3795 -31.4238 5.70515 -30.3877C0.237424 -29.1758 -3.90783 -27.4327 -5.81595 -26.5785L35.0439 64.6929C33.6696 65.3081 30.9877 66.4354 27.3445 67.2429C24.4947 67.8745 15.7482 69.5729 4.86423 66.2363L34.1744 -29.3719ZM32.0942 -29.9449C32.2994 -29.9101 32.3241 -29.9043 32.1943 -29.9284C32.0938 -29.9471 31.9871 -29.9678 31.9061 -29.9844C31.8013 -30.0058 31.878 -29.9918 32.1019 -29.9391C32.222 -29.9108 32.464 -29.8526 32.7985 -29.7642C33.1073 -29.6827 33.6925 -29.5236 34.4554 -29.2848L4.58324 66.1492C7.87934 67.1809 11.0437 67.8192 11.9068 67.9953C13.3296 68.2858 14.6235 68.5201 15.3746 68.6475L32.0942 -29.9449ZM23.9277 -30.6303C26.2245 -30.6303 28.0663 -30.4683 29.1503 -30.3523C30.1378 -30.2467 30.9761 -30.1218 30.7966 -30.1475L16.6723 68.85C16.6741 68.8503 16.6917 68.8528 16.7116 68.8556C16.7329 68.8587 16.7655 68.8633 16.8049 68.8688C16.8822 68.8797 17.0047 68.8967 17.1544 68.9167C17.4474 68.9559 17.9241 69.0173 18.5118 69.0802C19.6602 69.203 21.5665 69.3697 23.9277 69.3697V-30.6303ZM27.6826 -30.6303H23.9277V69.3697H27.6826V-30.6303ZM79.1552 20.8402C79.1552 -7.64583 56.0437 -30.6303 27.6826 -30.6303V69.3697C0.941346 69.3697 -20.8448 47.7087 -20.8448 20.8402H79.1552ZM27.6826 72.3108C56.0437 72.3108 79.1552 49.3262 79.1552 20.8402H-20.8448C-20.8448 -6.02818 0.941304 -27.6892 27.6826 -27.6892V72.3108ZM21.7005 72.3108H27.6826V-27.6892H21.7005V72.3108ZM71.3324 22.6784C71.3324 50.1536 49.049 72.3108 21.7005 72.3108V-27.6892C-6.05297 -27.6892 -28.6676 -5.2012 -28.6676 22.6784H71.3324ZM21.7005 -26.9539C49.0494 -26.9539 71.3324 -4.79646 71.3324 22.6784H-28.6676C-28.6676 50.5577 -6.05331 73.0461 21.7005 73.0461V-26.9539ZM27.6826 -26.9539H21.7005V73.0461H27.6826V-26.9539ZM9.64922 -23.4236C15.4447 -25.7815 21.5727 -26.9539 27.6826 -26.9539V73.0461C34.3631 73.0461 41.0434 71.7634 47.3358 69.2032L9.64922 -23.4236ZM17.0648 -26.1757L11.276 -24.0526L45.7091 69.8322L51.4979 67.7091L17.0648 -26.1757ZM56.7852 -24.3853C44.2375 -30.321 29.7945 -30.9442 16.7458 -26.0575L51.817 67.5909C39.5045 72.2019 25.8714 71.6154 14.0232 66.0106L56.7852 -24.3853ZM82.9768 4.06299C78.3572 -8.23926 69.0166 -18.7503 56.334 -24.596L14.4744 66.2213C2.50963 60.7065 -6.2972 50.7837 -10.6406 39.2167L82.9768 4.06299ZM52.2697 70.5539C79.5418 60.7098 92.6743 30.8467 83.1835 4.62371L-10.8474 38.656C-19.786 13.9587 -7.42655 -14.2133 18.3178 -23.506L52.2697 70.5539ZM20.0494 58.6026H21.4006V-41.3974H20.0494V58.6026ZM-31.5014 8.13978C-30.9132 35.252 -8.90841 58.6026 20.0494 58.6026V-41.3974C47.2976 -41.3974 67.9236 -19.4467 68.4751 5.97075L-31.5014 8.13978ZM20.0403 -44.5013C-8.13045 -44.5013 -31.5132 -21.7131 -31.5132 7.05526H68.4868C68.4868 34.092 46.5197 55.4987 20.0403 55.4987V-44.5013ZM21.3822 -44.5013H20.0403V55.4987H21.3822V-44.5013ZM-28.6178 4.04342V5.49869H71.3822V4.04342H-28.6178ZM22.9357 -47.5132C-5.23504 -47.5132 -28.6178 -24.7249 -28.6178 4.04342H71.3822C71.3822 31.0802 49.4151 52.4868 22.9357 52.4868V-47.5132ZM74.4891 4.04342C74.4891 -23.936 51.8937 -47.5132 22.9357 -47.5132V52.4868C-4.29428 52.4868 -25.5109 30.3281 -25.5109 4.04342H74.4891ZM74.4891 5.48947V4.04342H-25.5109V5.48947H74.4891ZM25.9597 -44.5105H24.4891V55.4895H25.9597V-44.5105ZM77.5016 5.97325C76.9275 -20.7778 55.2792 -44.5105 25.9597 -44.5105V55.4895C-1.66841 55.4895 -21.938 33.1567 -22.4753 8.11886L77.5016 5.97325ZM25.9597 58.6026C54.1305 58.6026 77.5132 35.8143 77.5132 7.04605H-22.4868C-22.4868 -19.9907 -0.519702 -41.3974 25.9597 -41.3974V58.6026ZM24.5074 58.6026H25.9597V-41.3974H24.5074V58.6026ZM74.5074 9.95658V8.60263H-25.4925V9.95658H74.5074ZM22.954 61.5132C51.1248 61.5132 74.5074 38.7248 74.5074 9.95658H-25.4925C-25.4925 -17.0801 -3.52544 -38.4868 22.954 -38.4868V61.5132ZM-28.5994 9.95658C-28.5994 37.9361 -6.00387 61.5132 22.954 61.5132V-38.4868C50.1839 -38.4868 71.4006 -16.3282 71.4006 9.95658H-28.5994ZM-28.5994 8.60263V9.95658H71.4006V8.60263H-28.5994ZM20.0494 56.1434H21.7315V-43.8566H20.0494V56.1434ZM69.1578 7.02763C69.1578 34.0667 47.2634 56.1434 20.0494 56.1434V-43.8566C-8.15727 -43.8566 -30.8422 -20.9693 -30.8422 7.02763H69.1578ZM20.0494 -42.0789C46.9368 -42.0789 69.1578 -20.3283 69.1578 7.02763H-30.8422C-30.8422 35.3783 -7.81228 57.9211 20.0494 57.9211V-42.0789ZM21.7223 -42.0789H20.0494V57.9211H21.7223V-42.0789ZM72.0532 8.25263C72.0532 -19.4498 49.6163 -42.0789 21.7223 -42.0789V57.9211C-5.80394 57.9211 -27.9468 35.5867 -27.9468 8.25263H72.0532ZM72.0532 8.28026V8.25263H-27.9468V8.28026H72.0532ZM72.0532 8.30789V8.28026H-27.9468V8.30789H72.0532ZM72.0532 9.95658V8.30789H-27.9468V9.95658H72.0532ZM22.9448 -39.15C49.8323 -39.15 72.0532 -17.3993 72.0532 9.95658H-27.9468C-27.9468 38.3072 -4.91689 60.85 22.9448 60.85V-39.15ZM-26.1636 9.95658C-26.1636 -16.7369 -4.60367 -39.15 22.9448 -39.15V60.85C51.4861 60.85 73.8364 37.6264 73.8364 9.95658H-26.1636ZM-26.1636 8.27105V9.95658H73.8364V8.27105H-26.1636ZM-11.4541 -27.2782C-18.3406 -20.3775 -26.1636 -8.25294 -26.1636 8.27105H73.8364C73.8364 24.6108 66.1054 36.5696 59.3292 43.3598L-11.4541 -27.2782ZM24.1674 -42.0605C10.6061 -42.0605 -3.78374 -36.4715 -14.0578 -24.4608L61.9329 40.5424C51.7692 52.4241 37.5448 57.9395 24.1674 57.9395V-42.0605ZM25.9506 -42.0605H24.1674V57.9395H25.9506V-42.0605ZM-23.1158 5.22342C-22.2232 -19.3702 -2.22738 -42.0605 25.9506 -42.0605V57.9395C55.1028 57.9395 75.8891 34.457 76.8185 8.85027L-23.1158 5.22342ZM25.9597 56.1434C-0.927608 56.1434 -23.1487 34.3928 -23.1487 7.03684H76.8513C76.8513 -21.3139 53.8214 -43.8566 25.9597 -43.8566V56.1434ZM24.1765 56.1434H25.9597V-43.8566H24.1765V56.1434ZM-26.1544 5.81184C-26.1544 33.5142 -3.71755 56.1434 24.1765 56.1434V-43.8566C51.703 -43.8566 73.8456 -21.5221 73.8456 5.81184H-26.1544ZM-26.1544 4.025V5.81184H73.8456V4.025H-26.1544ZM22.954 53.1316C-3.9333 53.1316 -26.1544 31.381 -26.1544 4.025H73.8456C73.8456 -24.3257 50.8157 -46.8684 22.954 -46.8684V53.1316ZM72.0624 4.025C72.0624 30.7184 50.5026 53.1316 22.954 53.1316V-46.8684C-5.58722 -46.8684 -27.9376 -23.6448 -27.9376 4.025H72.0624ZM72.0624 5.81184V4.025H-27.9376V5.81184H72.0624ZM57.3527 41.3614C64.2394 34.4606 72.0624 22.3359 72.0624 5.81184H-27.9376C-27.9376 -10.528 -20.2065 -22.4869 -13.43 -29.2772L57.3527 41.3614ZM21.7315 56.1434C35.2924 56.1434 49.6825 50.5546 59.9568 38.5436L-16.0341 -26.4594C-5.87013 -38.3415 8.35449 -43.8566 21.7315 -43.8566V56.1434Z" fill="black" mask="url(#path-2-inside-1)"/>
</g>
<defs>
<clipPath id="clip0">
<rect width="28" height="28" fill="white" transform="translate(9)"/>
</clipPath>
</defs>
</svg>
