<svg width="18" height="14" viewBox="0 0 18 14" fill="none" xmlns="http://www.w3.org/2000/svg">
<path fill-rule="evenodd" clip-rule="evenodd" d="M1.18528 5.99991H13.9292L10.0271 1.63991C9.64683 1.21591 9.70913 0.584909 10.1645 0.231909C10.621 -0.122091 11.2977 -0.0640909 11.6768 0.359909L17.0472 6.35991C17.0891 6.40691 17.1106 6.46191 17.1417 6.51391C17.1675 6.55591 17.1986 6.59191 17.218 6.63791C17.2663 6.75291 17.2953 6.87391 17.2953 6.99591C17.2953 6.99691 17.2964 6.99891 17.2964 6.99991C17.2964 7.00091 17.2953 7.00291 17.2953 7.00391C17.2953 7.12591 17.2663 7.24691 17.218 7.36191C17.1986 7.40791 17.1675 7.44391 17.1417 7.48591C17.1106 7.53791 17.0891 7.59291 17.0472 7.63991L11.6768 13.6399C11.4642 13.8769 11.1591 13.9999 10.8519 13.9999C10.6092 13.9999 10.3654 13.9239 10.1645 13.7679C9.70913 13.4149 9.64683 12.7839 10.0271 12.3599L13.9292 7.99991H1.18528C0.592387 7.99991 0.111202 7.55191 0.111202 6.99991C0.111202 6.44791 0.592387 5.99991 1.18528 5.99991" fill="#222B45"/>
</svg>
