<svg width="48" height="40" viewBox="0 0 48 40" fill="none" xmlns="http://www.w3.org/2000/svg">
<path d="M5 34.6506C5.03733 34.7093 5.056 34.7706 5.056 34.8346C5.056 34.9146 5.024 34.9813 4.96 35.0346C4.90133 35.0826 4.832 35.1066 4.752 35.1066C4.62933 35.1066 4.53333 35.0533 4.464 34.9466L3.392 33.2506C3.25333 33.0319 3.10933 32.8826 2.96 32.8026C2.81067 32.7173 2.608 32.6746 2.352 32.6746H1.344V34.7626C1.344 34.8639 1.31467 34.9466 1.256 35.0106C1.19733 35.0693 1.12 35.0986 1.024 35.0986C0.922667 35.0986 0.842667 35.0693 0.784 35.0106C0.725333 34.9466 0.696 34.8639 0.696 34.7626V29.7386C0.696 29.6426 0.725333 29.5653 0.784 29.5066C0.848 29.4479 0.930667 29.4186 1.032 29.4186H3.016C3.62933 29.4186 4.096 29.5546 4.416 29.8266C4.74133 30.0986 4.904 30.4986 4.904 31.0266C4.904 31.4746 4.77333 31.8346 4.512 32.1066C4.256 32.3786 3.888 32.5439 3.408 32.6026C3.54133 32.6453 3.66133 32.7146 3.768 32.8106C3.87467 32.9066 3.98133 33.0399 4.088 33.2106L5 34.6506ZM2.96 32.1306C3.39733 32.1306 3.72267 32.0399 3.936 31.8586C4.15467 31.6773 4.264 31.4026 4.264 31.0346C4.264 30.6719 4.15733 30.4026 3.944 30.2266C3.73067 30.0506 3.40267 29.9626 2.96 29.9626H1.344V32.1306H2.96ZM7.70038 35.1146C7.33238 35.1146 7.00704 35.0319 6.72438 34.8666C6.44704 34.7013 6.23104 34.4666 6.07638 34.1626C5.92704 33.8533 5.85238 33.4959 5.85238 33.0906C5.85238 32.6853 5.92704 32.3306 6.07638 32.0266C6.23104 31.7173 6.44704 31.4799 6.72438 31.3146C7.00704 31.1493 7.33238 31.0666 7.70038 31.0666C8.06838 31.0666 8.39371 31.1493 8.67638 31.3146C8.95904 31.4799 9.17504 31.7173 9.32438 32.0266C9.47904 32.3306 9.55638 32.6853 9.55638 33.0906C9.55638 33.4959 9.47904 33.8533 9.32438 34.1626C9.17504 34.4666 8.95904 34.7013 8.67638 34.8666C8.39371 35.0319 8.06838 35.1146 7.70038 35.1146ZM7.70038 34.5786C8.08438 34.5786 8.37771 34.4533 8.58038 34.2026C8.78838 33.9466 8.89238 33.5759 8.89238 33.0906C8.89238 32.6159 8.78838 32.2506 8.58038 31.9946C8.37238 31.7333 8.07904 31.6026 7.70038 31.6026C7.32171 31.6026 7.02838 31.7333 6.82038 31.9946C6.61238 32.2506 6.50838 32.6159 6.50838 33.0906C6.50838 33.5706 6.60971 33.9386 6.81238 34.1946C7.02038 34.4506 7.31638 34.5786 7.70038 34.5786ZM13.4819 31.0826C13.5832 31.0826 13.6605 31.1119 13.7139 31.1706C13.7725 31.2293 13.8019 31.3066 13.8019 31.4026V34.7866C13.8019 34.8773 13.7725 34.9519 13.7139 35.0106C13.6605 35.0693 13.5832 35.0986 13.4819 35.0986C13.3859 35.0986 13.3085 35.0719 13.2499 35.0186C13.1965 34.9599 13.1699 34.8853 13.1699 34.7946V34.3946C13.0472 34.6293 12.8739 34.8079 12.6499 34.9306C12.4312 35.0533 12.1832 35.1146 11.9059 35.1146C11.4419 35.1146 11.0925 34.9866 10.8579 34.7306C10.6232 34.4693 10.5059 34.0853 10.5059 33.5786V31.4026C10.5059 31.3066 10.5352 31.2293 10.5939 31.1706C10.6525 31.1119 10.7325 31.0826 10.8339 31.0826C10.9352 31.0826 11.0125 31.1119 11.0659 31.1706C11.1245 31.2293 11.1539 31.3066 11.1539 31.4026V33.5626C11.1539 33.9093 11.2232 34.1653 11.3619 34.3306C11.5005 34.4906 11.7192 34.5706 12.0179 34.5706C12.3592 34.5706 12.6339 34.4613 12.8419 34.2426C13.0499 34.0186 13.1539 33.7253 13.1539 33.3626V31.4026C13.1539 31.3066 13.1832 31.2293 13.2419 31.1706C13.3005 31.1119 13.3805 31.0826 13.4819 31.0826ZM16.8063 34.5866C16.9929 34.6026 17.0863 34.6879 17.0863 34.8426C17.0863 34.9333 17.0516 35.0026 16.9823 35.0506C16.9183 35.0933 16.8196 35.1093 16.6863 35.0986L16.4703 35.0826C16.0436 35.0506 15.7289 34.9226 15.5263 34.6986C15.3236 34.4746 15.2223 34.1359 15.2223 33.6826V31.6746H14.6863C14.5956 31.6746 14.5236 31.6533 14.4703 31.6106C14.4223 31.5626 14.3982 31.5013 14.3982 31.4266C14.3982 31.3466 14.4223 31.2826 14.4703 31.2346C14.5236 31.1866 14.5956 31.1626 14.6863 31.1626H15.2223V30.2586C15.2223 30.1573 15.2516 30.0799 15.3103 30.0266C15.3689 29.9679 15.4489 29.9386 15.5503 29.9386C15.6463 29.9386 15.7236 29.9679 15.7823 30.0266C15.8409 30.0799 15.8703 30.1573 15.8703 30.2586V31.1626H16.7582C16.8436 31.1626 16.9103 31.1866 16.9583 31.2346C17.0116 31.2826 17.0383 31.3466 17.0383 31.4266C17.0383 31.5013 17.0116 31.5626 16.9583 31.6106C16.9103 31.6533 16.8436 31.6746 16.7582 31.6746H15.8703V33.7146C15.8703 34.0079 15.9289 34.2213 16.0463 34.3546C16.1689 34.4826 16.3503 34.5546 16.5903 34.5706L16.8063 34.5866ZM20.741 34.1546C20.7997 34.1546 20.8503 34.1786 20.893 34.2266C20.9357 34.2746 20.957 34.3359 20.957 34.4106C20.957 34.5439 20.8637 34.6666 20.677 34.7786C20.485 34.8906 20.2823 34.9759 20.069 35.0346C19.8557 35.0879 19.6477 35.1146 19.445 35.1146C18.8423 35.1146 18.365 34.9359 18.013 34.5786C17.6663 34.2213 17.493 33.7279 17.493 33.0986C17.493 32.6986 17.5703 32.3466 17.725 32.0426C17.8797 31.7333 18.0957 31.4933 18.373 31.3226C18.6557 31.1519 18.9757 31.0666 19.333 31.0666C19.8397 31.0666 20.2423 31.2319 20.541 31.5626C20.8397 31.8933 20.989 32.3413 20.989 32.9066C20.989 33.0133 20.9677 33.0906 20.925 33.1386C20.8823 33.1866 20.813 33.2106 20.717 33.2106H18.141C18.189 34.1279 18.6237 34.5866 19.445 34.5866C19.653 34.5866 19.8317 34.5599 19.981 34.5066C20.1303 34.4479 20.2903 34.3706 20.461 34.2746C20.5997 34.1946 20.693 34.1546 20.741 34.1546ZM19.341 31.5706C18.9997 31.5706 18.725 31.6773 18.517 31.8906C18.3143 32.1039 18.1943 32.4053 18.157 32.7946H20.421C20.4103 32.3999 20.3117 32.0986 20.125 31.8906C19.9383 31.6773 19.677 31.5706 19.341 31.5706ZM29.1103 29.3786C29.2116 29.3786 29.2889 29.4106 29.3423 29.4746C29.4009 29.5333 29.4303 29.6133 29.4303 29.7146V34.7786C29.4303 34.8746 29.4036 34.9519 29.3503 35.0106C29.2969 35.0693 29.2223 35.0986 29.1263 35.0986C29.0303 35.0986 28.9583 35.0693 28.9103 35.0106C28.8623 34.9519 28.8383 34.8746 28.8383 34.7786V30.6906L27.1023 34.0186C27.0276 34.1733 26.9183 34.2506 26.7743 34.2506C26.6356 34.2506 26.5263 34.1733 26.4463 34.0186L24.7023 30.7306V34.7786C24.7023 34.8746 24.6756 34.9519 24.6223 35.0106C24.5743 35.0693 24.5023 35.0986 24.4062 35.0986C24.3103 35.0986 24.2356 35.0693 24.1823 35.0106C24.1289 34.9519 24.1023 34.8746 24.1023 34.7786V29.7146C24.1023 29.6133 24.1316 29.5333 24.1903 29.4746C24.2489 29.4106 24.3289 29.3786 24.4303 29.3786C24.5636 29.3786 24.6703 29.4559 24.7503 29.6106L26.7823 33.5066L28.7903 29.6106C28.8329 29.5253 28.8783 29.4666 28.9263 29.4346C28.9796 29.3973 29.0409 29.3786 29.1103 29.3786ZM32.3248 31.0666C33.3008 31.0666 33.7888 31.5786 33.7888 32.6026V34.7786C33.7888 34.8746 33.7595 34.9519 33.7008 35.0106C33.6475 35.0693 33.5728 35.0986 33.4768 35.0986C33.3808 35.0986 33.3035 35.0693 33.2448 35.0106C33.1861 34.9519 33.1568 34.8746 33.1568 34.7786V34.3946C33.0555 34.6239 32.9008 34.8026 32.6928 34.9306C32.4848 35.0533 32.2448 35.1146 31.9728 35.1146C31.7221 35.1146 31.4901 35.0639 31.2768 34.9626C31.0688 34.8613 30.9035 34.7199 30.7808 34.5386C30.6581 34.3573 30.5968 34.1573 30.5968 33.9386C30.5968 33.6453 30.6715 33.4186 30.8208 33.2586C30.9701 33.0933 31.2155 32.9759 31.5568 32.9066C31.8981 32.8319 32.3728 32.7946 32.9808 32.7946H33.1568V32.5306C33.1568 32.2106 33.0901 31.9759 32.9568 31.8266C32.8288 31.6773 32.6181 31.6026 32.3248 31.6026C31.9621 31.6026 31.5941 31.7013 31.2208 31.8986C31.0768 31.9893 30.9755 32.0346 30.9168 32.0346C30.8528 32.0346 30.7995 32.0106 30.7568 31.9626C30.7141 31.9146 30.6928 31.8533 30.6928 31.7786C30.6928 31.7039 30.7141 31.6399 30.7568 31.5866C30.8048 31.5279 30.8795 31.4693 30.9808 31.4106C31.1675 31.3039 31.3781 31.2213 31.6128 31.1626C31.8528 31.0986 32.0901 31.0666 32.3248 31.0666ZM32.0608 34.6026C32.3808 34.6026 32.6421 34.4959 32.8448 34.2826C33.0528 34.0639 33.1568 33.7839 33.1568 33.4426V33.2106H33.0128C32.5435 33.2106 32.1861 33.2319 31.9408 33.2746C31.6955 33.3119 31.5195 33.3786 31.4128 33.4746C31.3115 33.5653 31.2608 33.7013 31.2608 33.8826C31.2608 34.0906 31.3355 34.2639 31.4848 34.4026C31.6395 34.5359 31.8315 34.6026 32.0608 34.6026ZM36.935 31.0666C37.2763 31.0666 37.5777 31.1519 37.839 31.3226C38.1003 31.4933 38.303 31.7333 38.447 32.0426C38.591 32.3466 38.663 32.7013 38.663 33.1066C38.663 33.5119 38.591 33.8666 38.447 34.1706C38.303 34.4693 38.1003 34.7013 37.839 34.8666C37.583 35.0319 37.2817 35.1146 36.935 35.1146C36.631 35.1146 36.3643 35.0479 36.135 34.9146C35.911 34.7813 35.7403 34.5919 35.623 34.3466V36.2266C35.623 36.3226 35.5937 36.3973 35.535 36.4506C35.4817 36.5093 35.4043 36.5386 35.303 36.5386C35.2017 36.5386 35.1217 36.5093 35.063 36.4506C35.0043 36.3919 34.975 36.3173 34.975 36.2266V31.4026C34.975 31.3066 35.0043 31.2293 35.063 31.1706C35.1217 31.1119 35.2017 31.0826 35.303 31.0826C35.4043 31.0826 35.4817 31.1119 35.535 31.1706C35.5937 31.2293 35.623 31.3066 35.623 31.4026V31.8346C35.7403 31.5893 35.911 31.3999 36.135 31.2666C36.3643 31.1333 36.631 31.0666 36.935 31.0666ZM36.807 34.5786C37.1857 34.5786 37.479 34.4506 37.687 34.1946C37.895 33.9386 37.999 33.5759 37.999 33.1066C37.999 32.6373 37.895 32.2719 37.687 32.0106C37.479 31.7439 37.1857 31.6106 36.807 31.6106C36.4283 31.6106 36.135 31.7386 35.927 31.9946C35.7243 32.2506 35.623 32.6159 35.623 33.0906C35.623 33.5653 35.7243 33.9333 35.927 34.1946C36.135 34.4506 36.4283 34.5786 36.807 34.5786Z" fill="#5D8CFF"/>
<circle cx="22.941" cy="13.5294" r="13.0294" fill="white" stroke="#3E64FF"/>
<path d="M23.9845 4.20268L24.0293 4.14268C24.2164 3.92447 24.534 3.88436 24.7677 4.03883L24.8242 4.08151L32.5243 10.6813L24.8242 17.281C24.6711 17.4122 24.4596 17.4517 24.2694 17.3845C23.9969 17.2881 23.8448 17.0035 23.9075 16.7283L23.9259 16.6651L25.4326 12.4017H23.5047C21.3253 12.4017 19.5586 14.1684 19.5586 16.3478V23.6762H16.1763V16.3478C16.1763 12.3004 19.4573 9.01933 23.5047 9.01933H25.4535L23.9259 4.69744C23.8671 4.53109 23.8899 4.34834 23.9845 4.20268L24.0293 4.14268L23.9845 4.20268Z" fill="#3E64FF"/>
</svg>
