<svg width="36" height="43" viewBox="0 0 36 43" fill="none" xmlns="http://www.w3.org/2000/svg">
<path d="M4.832 31.488C4.85867 31.4293 4.896 31.384 4.944 31.352C4.99733 31.32 5.05333 31.304 5.112 31.304C5.19733 31.304 5.272 31.3333 5.336 31.392C5.40533 31.4453 5.44 31.512 5.44 31.592C5.44 31.6347 5.42933 31.6773 5.408 31.72L3.112 36.824C3.08 36.8933 3.032 36.9467 2.968 36.984C2.904 37.0213 2.83467 37.04 2.76 37.04C2.68533 37.04 2.616 37.0213 2.552 36.984C2.488 36.9467 2.44 36.8933 2.408 36.824L0.12 31.72C0.104 31.6773 0.096 31.6373 0.096 31.6C0.096 31.5147 0.130667 31.4453 0.2 31.392C0.269333 31.3333 0.346667 31.304 0.432 31.304C0.56 31.304 0.653333 31.3653 0.712 31.488L2.776 36.152L4.832 31.488ZM6.89675 37.04C6.80075 37.04 6.72075 37.0133 6.65675 36.96C6.59808 36.9013 6.56875 36.8213 6.56875 36.72V33.344C6.56875 33.2427 6.59808 33.1653 6.65675 33.112C6.72075 33.0533 6.80075 33.024 6.89675 33.024C6.99275 33.024 7.07008 33.0533 7.12875 33.112C7.18742 33.1653 7.21675 33.2427 7.21675 33.344V36.72C7.21675 36.8267 7.18742 36.9067 7.12875 36.96C7.07008 37.0133 6.99275 37.04 6.89675 37.04ZM6.89675 32.184C6.76875 32.184 6.66475 32.1467 6.58475 32.072C6.50475 31.9973 6.46475 31.8987 6.46475 31.776C6.46475 31.6587 6.50475 31.5627 6.58475 31.488C6.66475 31.4133 6.76875 31.376 6.89675 31.376C7.02475 31.376 7.12875 31.4133 7.20875 31.488C7.28875 31.5627 7.32875 31.6587 7.32875 31.776C7.32875 31.8987 7.28875 31.9973 7.20875 32.072C7.12875 32.1467 7.02475 32.184 6.89675 32.184ZM11.5561 31.32C11.6575 31.32 11.7375 31.3493 11.7961 31.408C11.8548 31.4667 11.8841 31.5413 11.8841 31.632V36.72C11.8841 36.816 11.8548 36.8933 11.7961 36.952C11.7375 37.0107 11.6575 37.04 11.5561 37.04C11.4548 37.04 11.3748 37.0107 11.3161 36.952C11.2628 36.8933 11.2361 36.816 11.2361 36.72V36.288C11.1188 36.5333 10.9455 36.7227 10.7161 36.856C10.4921 36.9893 10.2281 37.056 9.92413 37.056C9.58279 37.056 9.28146 36.9707 9.02013 36.8C8.75879 36.6293 8.55613 36.392 8.41213 36.088C8.26813 35.7787 8.19613 35.4213 8.19613 35.016C8.19613 34.616 8.26813 34.264 8.41213 33.96C8.55613 33.656 8.75879 33.4213 9.02013 33.256C9.28146 33.0907 9.58279 33.008 9.92413 33.008C10.2281 33.008 10.4921 33.0747 10.7161 33.208C10.9455 33.3413 11.1188 33.5307 11.2361 33.776V31.632C11.2361 31.536 11.2628 31.4613 11.3161 31.408C11.3748 31.3493 11.4548 31.32 11.5561 31.32ZM10.0521 36.52C10.4308 36.52 10.7215 36.392 10.9241 36.136C11.1321 35.8747 11.2361 35.5067 11.2361 35.032C11.2361 34.5573 11.1321 34.192 10.9241 33.936C10.7215 33.68 10.4308 33.552 10.0521 33.552C9.67346 33.552 9.37746 33.68 9.16413 33.936C8.95613 34.192 8.85213 34.552 8.85213 35.016C8.85213 35.4907 8.95613 35.8613 9.16413 36.128C9.37746 36.3893 9.67346 36.52 10.0521 36.52ZM16.1004 36.096C16.159 36.096 16.2097 36.12 16.2524 36.168C16.295 36.216 16.3164 36.2773 16.3164 36.352C16.3164 36.4853 16.223 36.608 16.0364 36.72C15.8444 36.832 15.6417 36.9173 15.4284 36.976C15.215 37.0293 15.007 37.056 14.8044 37.056C14.2017 37.056 13.7244 36.8773 13.3724 36.52C13.0257 36.1627 12.8524 35.6693 12.8524 35.04C12.8524 34.64 12.9297 34.288 13.0844 33.984C13.239 33.6747 13.455 33.4347 13.7324 33.264C14.015 33.0933 14.335 33.008 14.6924 33.008C15.199 33.008 15.6017 33.1733 15.9004 33.504C16.199 33.8347 16.3484 34.2827 16.3484 34.848C16.3484 34.9547 16.327 35.032 16.2844 35.08C16.2417 35.128 16.1724 35.152 16.0764 35.152H13.5004C13.5484 36.0693 13.983 36.528 14.8044 36.528C15.0124 36.528 15.191 36.5013 15.3404 36.448C15.4897 36.3893 15.6497 36.312 15.8204 36.216C15.959 36.136 16.0524 36.096 16.1004 36.096ZM14.7004 33.512C14.359 33.512 14.0844 33.6187 13.8764 33.832C13.6737 34.0453 13.5537 34.3467 13.5164 34.736H15.7804C15.7697 34.3413 15.671 34.04 15.4844 33.832C15.2977 33.6187 15.0364 33.512 14.7004 33.512ZM18.9191 37.056C18.5511 37.056 18.2258 36.9733 17.9431 36.808C17.6658 36.6427 17.4498 36.408 17.2951 36.104C17.1458 35.7947 17.0711 35.4373 17.0711 35.032C17.0711 34.6267 17.1458 34.272 17.2951 33.968C17.4498 33.6587 17.6658 33.4213 17.9431 33.256C18.2258 33.0907 18.5511 33.008 18.9191 33.008C19.2871 33.008 19.6125 33.0907 19.8951 33.256C20.1778 33.4213 20.3938 33.6587 20.5431 33.968C20.6978 34.272 20.7751 34.6267 20.7751 35.032C20.7751 35.4373 20.6978 35.7947 20.5431 36.104C20.3938 36.408 20.1778 36.6427 19.8951 36.808C19.6125 36.9733 19.2871 37.056 18.9191 37.056ZM18.9191 36.52C19.3031 36.52 19.5965 36.3947 19.7991 36.144C20.0071 35.888 20.1111 35.5173 20.1111 35.032C20.1111 34.5573 20.0071 34.192 19.7991 33.936C19.5911 33.6747 19.2978 33.544 18.9191 33.544C18.5405 33.544 18.2471 33.6747 18.0391 33.936C17.8311 34.192 17.7271 34.5573 17.7271 35.032C17.7271 35.512 17.8285 35.88 18.0311 36.136C18.2391 36.392 18.5351 36.52 18.9191 36.52ZM25.4111 37.056C25.0485 37.056 24.7258 36.9733 24.4431 36.808C24.1658 36.6427 23.9498 36.408 23.7951 36.104C23.6458 35.8 23.5711 35.448 23.5711 35.048C23.5711 34.648 23.6485 34.2933 23.8031 33.984C23.9631 33.6747 24.1845 33.4347 24.4671 33.264C24.7498 33.0933 25.0751 33.008 25.4431 33.008C25.6458 33.008 25.8458 33.0373 26.0431 33.096C26.2458 33.1493 26.4218 33.2293 26.5711 33.336C26.6671 33.4 26.7338 33.464 26.7711 33.528C26.8138 33.5867 26.8351 33.6533 26.8351 33.728C26.8351 33.8027 26.8138 33.864 26.7711 33.912C26.7338 33.96 26.6831 33.984 26.6191 33.984C26.5818 33.984 26.5418 33.9733 26.4991 33.952C26.4565 33.9307 26.4191 33.9093 26.3871 33.888C26.3605 33.8667 26.3418 33.8533 26.3311 33.848C26.1925 33.7573 26.0591 33.6853 25.9311 33.632C25.8085 33.5787 25.6565 33.552 25.4751 33.552C25.0858 33.552 24.7818 33.6853 24.5631 33.952C24.3498 34.2133 24.2431 34.5787 24.2431 35.048C24.2431 35.5173 24.3498 35.88 24.5631 36.136C24.7818 36.392 25.0858 36.52 25.4751 36.52C25.6565 36.52 25.8111 36.4933 25.9391 36.44C26.0725 36.3867 26.2058 36.3147 26.3391 36.224C26.3978 36.1867 26.4538 36.1547 26.5071 36.128C26.5605 36.1013 26.6058 36.088 26.6431 36.088C26.7018 36.088 26.7498 36.112 26.7871 36.16C26.8298 36.208 26.8511 36.2693 26.8511 36.344C26.8511 36.4133 26.8325 36.4773 26.7951 36.536C26.7578 36.5893 26.6885 36.6507 26.5871 36.72C26.4378 36.8213 26.2565 36.904 26.0431 36.968C25.8351 37.0267 25.6245 37.056 25.4111 37.056ZM29.2233 33.008C30.1993 33.008 30.6873 33.52 30.6873 34.544V36.72C30.6873 36.816 30.6579 36.8933 30.5993 36.952C30.5459 37.0107 30.4713 37.04 30.3753 37.04C30.2793 37.04 30.2019 37.0107 30.1433 36.952C30.0846 36.8933 30.0553 36.816 30.0553 36.72V36.336C29.9539 36.5653 29.7993 36.744 29.5913 36.872C29.3833 36.9947 29.1433 37.056 28.8713 37.056C28.6206 37.056 28.3886 37.0053 28.1753 36.904C27.9673 36.8027 27.8019 36.6613 27.6793 36.48C27.5566 36.2987 27.4953 36.0987 27.4953 35.88C27.4953 35.5867 27.5699 35.36 27.7193 35.2C27.8686 35.0347 28.1139 34.9173 28.4553 34.848C28.7966 34.7733 29.2713 34.736 29.8793 34.736H30.0553V34.472C30.0553 34.152 29.9886 33.9173 29.8553 33.768C29.7273 33.6187 29.5166 33.544 29.2233 33.544C28.8606 33.544 28.4926 33.6427 28.1193 33.84C27.9753 33.9307 27.8739 33.976 27.8153 33.976C27.7513 33.976 27.6979 33.952 27.6553 33.904C27.6126 33.856 27.5913 33.7947 27.5913 33.72C27.5913 33.6453 27.6126 33.5813 27.6553 33.528C27.7033 33.4693 27.7779 33.4107 27.8793 33.352C28.0659 33.2453 28.2766 33.1627 28.5113 33.104C28.7513 33.04 28.9886 33.008 29.2233 33.008ZM28.9593 36.544C29.2793 36.544 29.5406 36.4373 29.7433 36.224C29.9513 36.0053 30.0553 35.7253 30.0553 35.384V35.152H29.9113C29.4419 35.152 29.0846 35.1733 28.8393 35.216C28.5939 35.2533 28.4179 35.32 28.3113 35.416C28.2099 35.5067 28.1593 35.6427 28.1593 35.824C28.1593 36.032 28.2339 36.2053 28.3833 36.344C28.5379 36.4773 28.7299 36.544 28.9593 36.544ZM32.2014 37.04C32.1054 37.04 32.0254 37.0133 31.9614 36.96C31.9028 36.9013 31.8734 36.8213 31.8734 36.72V31.64C31.8734 31.5387 31.9028 31.4613 31.9614 31.408C32.0254 31.3493 32.1054 31.32 32.2014 31.32C32.2921 31.32 32.3668 31.3493 32.4254 31.408C32.4894 31.4613 32.5214 31.5387 32.5214 31.64V36.72C32.5214 36.8213 32.4894 36.9013 32.4254 36.96C32.3668 37.0133 32.2921 37.04 32.2014 37.04ZM34.0608 37.04C33.9648 37.04 33.8848 37.0133 33.8208 36.96C33.7621 36.9013 33.7328 36.8213 33.7328 36.72V31.64C33.7328 31.5387 33.7621 31.4613 33.8208 31.408C33.8848 31.3493 33.9648 31.32 34.0608 31.32C34.1515 31.32 34.2261 31.3493 34.2848 31.408C34.3488 31.4613 34.3808 31.5387 34.3808 31.64V36.72C34.3808 36.8213 34.3488 36.9013 34.2848 36.96C34.2261 37.0133 34.1515 37.04 34.0608 37.04Z" fill="#5D8CFF"/>
<circle cx="18.1286" cy="14.1286" r="13.6286" fill="white" stroke="#3E64FF"/>
<path d="M24.8855 11.0571L19.9712 14.1286L24.8855 17.2V11.0571Z" stroke="#3E64FF" stroke-linecap="round" stroke-linejoin="round"/>
<path d="M18.8244 9.82861H12.5178C11.8845 9.82861 11.3711 10.3787 11.3711 11.0572V17.2C11.3711 17.8786 11.8845 18.4286 12.5178 18.4286H18.8244C19.4577 18.4286 19.9711 17.8786 19.9711 17.2V11.0572C19.9711 10.3787 19.4577 9.82861 18.8244 9.82861Z" stroke="#3E64FF" stroke-linecap="round" stroke-linejoin="round"/>
</svg>
